<?xml version="1.0" encoding="UTF-8"?>
<svg id="uuid-aefb56b1-92fb-4b63-8a71-d136ba40b2af" data-name="Calque 1" xmlns="http://www.w3.org/2000/svg" width="1183.11" height="342.33" viewBox="0 0 1183.11 342.33">
  <defs>
    <style>
      .uuid-a4b7024c-a15c-46b8-858a-08f3b2300341 {
        fill: #1a1a1a;
      }
    </style>
  </defs>
  <path class="uuid-a4b7024c-a15c-46b8-858a-08f3b2300341" d="M87.94,244.64h-13.41l-.22,6.87h2.56l.91-4.68h5.1c0,.51.02,1.02.02,1.53v16.82c0,.46-.01.92-.01,1.38l-3.68.21v2.12h12.38v-2.12l-3.69-.2c0-.47-.02-.94-.02-1.4-.01-1.24-.02-2.49-.02-3.74v-9.37c0-1.24,0-2.48.02-3.73,0-.5.02-1,.02-1.5h5.08l.91,4.68h2.56l-.22-6.87h-8.29ZM128.16,244.64h-3.14v2.12l3.17.19c0,.48.02.95.02,1.43.01,1.25.02,2.51.02,3.78v3.21h-10.48v-3.23c0-1.25,0-2.51.02-3.76,0-.48.01-.96.02-1.44l3.18-.19v-2.12h-11.47v2.12l3.25.2c0,.47.02.94.02,1.41.01,1.24.02,2.48.02,3.73v9.37c0,1.25,0,2.5-.02,3.73,0,.46-.01.93-.02,1.39l-3.25.2v2.12h11.47v-2.12l-3.17-.19c0-.51-.02-1.02-.02-1.53-.01-1.27-.02-2.55-.02-3.85v-3.6h10.48v3.62c0,1.32,0,2.61-.02,3.87,0,.5-.01.99-.02,1.49l-3.17.19v2.12h11.47v-2.12l-3.26-.2c0-.47,0-.94,0-1.41-.01-1.24-.02-2.49-.02-3.74v-9.37c0-1.24,0-2.48.02-3.73,0-.46,0-.92,0-1.38l3.26-.19v-2.12h-8.33ZM167.01,266.71h-8.65c0-.52,0-1.03,0-1.55-.01-1.25-.02-2.51-.02-3.78v-3.8h4.76l.54,3.07h2.16v-8.29h-2.16l-.55,3.07h-4.74v-3.36c0-1.24,0-2.48.02-3.73,0-.5,0-1,0-1.5h7.93l.92,4.27h2.56l-.29-6.47h-19.43v2.12l3.27.2c0,.47.01.94.01,1.41v16.82c0,.46-.01.93-.01,1.39l-3.27.2v2.12h20.16l.29-6.65h-2.56l-.93,4.46ZM222.07,244.64h-3.14v2.12l3.17.19c0,.48.02.95.02,1.43.01,1.25.02,2.51.02,3.78v3.21h-10.48v-3.23c0-1.25,0-2.51.02-3.76,0-.48.01-.96.02-1.44l3.18-.19v-2.12h-11.47v2.12l3.25.2c0,.47.02.94.02,1.41.01,1.24.02,2.48.02,3.73v9.37c0,1.25,0,2.5-.02,3.73,0,.46-.01.93-.02,1.39l-3.25.2v2.12h11.47v-2.12l-3.17-.19c0-.51-.02-1.02-.02-1.53-.01-1.27-.02-2.55-.02-3.85v-3.6h10.48v3.62c0,1.32,0,2.61-.02,3.87,0,.5-.01.99-.02,1.49l-3.17.19v2.12h11.47v-2.12l-3.26-.2c0-.47,0-.94,0-1.41-.01-1.24-.02-2.49-.02-3.74v-9.37c0-1.24,0-2.48.02-3.73,0-.46,0-.92,0-1.38l3.26-.19v-2.12h-8.33ZM263.84,247.27c-1.11-1.07-2.38-1.87-3.82-2.41s-2.96-.8-4.57-.8-3.13.28-4.57.84c-1.44.56-2.71,1.39-3.82,2.48-1.11,1.1-1.98,2.44-2.61,4.02-.63,1.58-.95,3.39-.95,5.41s.31,3.89.93,5.46c.62,1.57,1.49,2.89,2.61,3.96,1.12,1.07,2.4,1.88,3.84,2.43,1.44.55,2.96.82,4.57.82s3.13-.28,4.57-.84c1.44-.56,2.71-1.39,3.82-2.5,1.11-1.11,1.98-2.45,2.61-4.04.63-1.58.95-3.38.95-5.41s-.32-3.89-.95-5.46c-.63-1.57-1.5-2.89-2.61-3.96ZM261.7,260.86c-.27,1.27-.67,2.38-1.21,3.34-.54.96-1.22,1.71-2.06,2.25-.84.54-1.83.8-2.98.8s-2.14-.27-2.98-.8c-.84-.54-1.53-1.28-2.08-2.25-.55-.96-.95-2.08-1.21-3.36-.26-1.28-.38-2.65-.38-4.11s.13-2.82.38-4.09c.26-1.27.66-2.37,1.21-3.32.55-.95,1.24-1.69,2.08-2.23.84-.54,1.83-.8,2.98-.8s2.14.27,2.98.8c.84.54,1.53,1.28,2.06,2.25.53.96.94,2.08,1.21,3.34.27,1.27.4,2.63.4,4.09s-.13,2.82-.4,4.09ZM300.17,244.64h-3.87v2.12l3.87.25v8.22l.35,7.26-12.19-17.85h-7.67v2.12l3.1.13v19.65l-3.29.24v2.12h9.53v-2.12l-3.87-.26v-8.87l-.38-8.88h.01l13.92,20.31h2.85v-22.07l3.25-.25v-2.12h-5.63ZM338.87,247.27c-1.11-1.07-2.38-1.87-3.82-2.41s-2.96-.8-4.57-.8-3.13.28-4.57.84c-1.44.56-2.71,1.39-3.82,2.48-1.11,1.1-1.98,2.44-2.61,4.02-.63,1.58-.95,3.39-.95,5.41s.31,3.89.93,5.46c.62,1.57,1.49,2.89,2.61,3.96,1.12,1.07,2.4,1.88,3.84,2.43,1.44.55,2.96.82,4.57.82s3.13-.28,4.57-.84c1.44-.56,2.71-1.39,3.82-2.5,1.11-1.11,1.98-2.45,2.61-4.04.63-1.58.95-3.38.95-5.41s-.32-3.89-.95-5.46c-.63-1.57-1.5-2.89-2.61-3.96ZM336.73,260.86c-.27,1.27-.67,2.38-1.21,3.34-.54.96-1.22,1.71-2.06,2.25-.84.54-1.83.8-2.98.8s-2.14-.27-2.98-.8c-.84-.54-1.53-1.28-2.08-2.25-.55-.96-.95-2.08-1.21-3.36-.26-1.28-.38-2.65-.38-4.11s.13-2.82.38-4.09c.26-1.27.66-2.37,1.21-3.32.55-.95,1.24-1.69,2.08-2.23.84-.54,1.83-.8,2.98-.8s2.14.27,2.98.8c.84.54,1.53,1.28,2.06,2.25.53.96.94,2.08,1.21,3.34.27,1.27.4,2.63.4,4.09s-.13,2.82-.4,4.09ZM375.3,244.64h-3.65v2.12l3.65.19v11.86c0,1.88-.23,3.39-.69,4.55-.46,1.16-1.14,2-2.03,2.54-.89.54-1.95.8-3.2.8s-2.3-.26-3.18-.77c-.88-.51-1.55-1.33-2.01-2.45-.46-1.12-.69-2.61-.69-4.46v-7.03c0-1.23,0-2.46.02-3.69,0-.45,0-.89,0-1.34l3.55-.21v-2.12h-11.73v2.12l3.14.19c0,.46.02.91.02,1.38.01,1.24.02,2.47.02,3.69v7.78c0,2.22.4,4.04,1.19,5.48.79,1.44,1.91,2.5,3.36,3.18,1.45.68,3.13,1.02,5.06,1.02s3.71-.37,5.13-1.11c1.42-.74,2.51-1.88,3.27-3.42.75-1.53,1.13-3.47,1.13-5.81v-12.21l3.25-.18v-2.12h-5.63ZM413.33,261.85c-.22-.95-.49-1.74-.82-2.37-.33-.63-.75-1.14-1.26-1.52s-1.15-.66-1.9-.84c-.76-.18-1.67-.29-2.74-.31v-.22c1.73-.07,3.2-.36,4.42-.86,1.22-.5,2.14-1.17,2.78-2.01.63-.84.95-1.81.95-2.9,0-1.95-.82-3.46-2.47-4.55-1.64-1.08-4-1.63-7.07-1.63h-11.54v2.12l3.27.21c0,.47.01.93.01,1.4v16.8c0,.47-.01.94-.01,1.41l-3.27.19v2.12h11.54v-2.12l-3.26-.2c0-.49,0-.98,0-1.47-.01-1.25-.02-2.52-.02-3.8v-3.49h2.15c.83,0,1.51.1,2.05.31.54.21.97.56,1.32,1.06.34.5.61,1.21.8,2.14l1.02,4.53c.27,1.27.79,2.16,1.57,2.67.78.51,1.9.77,3.36.77.46,0,.89-.02,1.3-.05.4-.04.78-.09,1.13-.15.35-.06.7-.13,1.04-.2v-2.05l-3.12-.28-1.22-4.73ZM404.41,255.78h-2.48v-3.56c0-1.28,0-2.55.02-3.82,0-.54,0-1.07,0-1.61h2.6c1.75,0,3.06.35,3.91,1.06.85.71,1.28,1.79,1.28,3.25,0,.93-.19,1.74-.57,2.45s-.96,1.25-1.73,1.64c-.78.39-1.79.58-3.03.58ZM444.45,244.53h-3.87l-7.69,22.02-2.9.23v2.12h8.51v-2.12l-3.23-.24,1.65-4.95h8.5l1.67,5-3.36.19v2.12h11.29v-2.12l-2.74-.15-7.82-22.1ZM437.62,259.44l2.55-7.67.75-3.62,3.76,11.29h-7.07ZM485.21,257.04c-1.34-.45-2.98-.71-4.93-.79v-.22c1.66-.1,3.05-.38,4.18-.84,1.13-.46,2-1.1,2.59-1.9.6-.8.89-1.77.89-2.89,0-1.19-.35-2.22-1.04-3.09-.69-.86-1.72-1.53-3.07-1.99-1.35-.46-2.99-.69-4.91-.69h-11.4v2.12l3.27.21c0,.47.01.93.01,1.4v16.8c0,.47-.01.93-.01,1.4l-3.27.21v2.12h10.85c1.92,0,3.57-.17,4.95-.51s2.5-.83,3.38-1.46c.88-.63,1.53-1.36,1.95-2.19.43-.83.64-1.72.64-2.67,0-1.24-.35-2.28-1.04-3.1-.69-.83-1.71-1.47-3.05-1.92ZM475.79,252.09c0-1.24,0-2.49.02-3.74,0-.52,0-1.03,0-1.55h2.2c1.12,0,2.05.15,2.79.44.74.29,1.3.74,1.68,1.33.38.6.57,1.38.57,2.36s-.2,1.75-.58,2.39c-.39.64-.98,1.13-1.77,1.46-.79.33-1.8.49-3.01.49h-1.9v-3.18ZM482.64,265.54c-1.04.8-2.62,1.21-4.77,1.21h-2.06c0-.54,0-1.08,0-1.61-.01-1.24-.02-2.5-.02-3.78v-4h2.12c2.17,0,3.76.4,4.77,1.19,1.01.79,1.52,1.97,1.52,3.53s-.52,2.67-1.55,3.47ZM518.51,266.67h-7.99c0-.49,0-.99,0-1.48-.01-1.23-.02-2.45-.02-3.65v-9.48c0-1.24,0-2.48.02-3.71,0-.46,0-.92,0-1.38l3.63-.21v-2.12h-11.94v2.12l3.27.2c0,.46.01.91.01,1.37v16.84c0,.47-.01.94-.01,1.41l-3.27.2v2.12h19.65l.33-7.34h-2.59l-1.08,5.11ZM552.26,266.71h-8.65c0-.52,0-1.03,0-1.55-.01-1.25-.02-2.51-.02-3.78v-3.8h4.76l.54,3.07h2.16v-8.29h-2.16l-.55,3.07h-4.74v-3.36c0-1.24,0-2.48.02-3.73,0-.5,0-1,0-1.5h7.93l.92,4.27h2.56l-.29-6.47h-19.43v2.12l3.27.2c0,.47.01.94.01,1.41v16.82c0,.46-.01.93-.01,1.39l-3.27.2v2.12h20.16l.29-6.65h-2.56l-.93,4.46ZM614.92,244.64h-3.84l-5.37,14.54-1.33,3.99-7-18.52h-8.58v2.12l3.1.22v19.55l-3.43.25v2.12h9.1v-2.12l-3.25-.25v-9.98l-.44-8.48,7.89,20.83h2.67l6.25-16.88,1.23-3.78-.03,9.08v3.82c0,1.28,0,2.56-.02,3.85,0,.52-.02,1.05-.02,1.57l-3.17.22v2.12h11.4v-2.12l-3.26-.21c0-.47,0-.93,0-1.4-.01-1.24-.02-2.49-.02-3.74v-9.37c0-1.24,0-2.48.02-3.73,0-.46,0-.91,0-1.36l3.26-.21v-2.12h-5.15ZM650.59,266.71h-8.65c0-.52,0-1.03,0-1.55-.01-1.25-.02-2.51-.02-3.78v-3.8h4.76l.54,3.07h2.16v-8.29h-2.16l-.55,3.07h-4.74v-3.36c0-1.24,0-2.48.02-3.73,0-.5,0-1,0-1.5h7.93l.92,4.27h2.56l-.29-6.47h-19.43v2.12l3.27.2c0,.47.01.94.01,1.41v16.82c0,.46-.01.93-.01,1.39l-3.27.2v2.12h20.16l.29-6.65h-2.56l-.93,4.46ZM687.35,261.85c-.22-.95-.49-1.74-.82-2.37-.33-.63-.75-1.14-1.26-1.52s-1.15-.66-1.9-.84c-.76-.18-1.67-.29-2.74-.31v-.22c1.73-.07,3.2-.36,4.42-.86,1.22-.5,2.14-1.17,2.78-2.01.63-.84.95-1.81.95-2.9,0-1.95-.82-3.46-2.47-4.55-1.64-1.08-4-1.63-7.07-1.63h-11.54v2.12l3.27.21c0,.47.01.93.01,1.4v16.8c0,.47-.01.94-.01,1.41l-3.27.19v2.12h11.54v-2.12l-3.26-.2c0-.49,0-.98,0-1.47-.01-1.25-.02-2.52-.02-3.8v-3.49h2.15c.83,0,1.51.1,2.05.31.54.21.97.56,1.32,1.06.34.5.61,1.21.8,2.14l1.02,4.53c.27,1.27.79,2.16,1.57,2.67.78.51,1.9.77,3.36.77.46,0,.89-.02,1.3-.05.4-.04.78-.09,1.13-.15.35-.06.7-.13,1.04-.2v-2.05l-3.12-.28-1.22-4.73ZM678.44,255.78h-2.48v-3.56c0-1.28,0-2.55.02-3.82,0-.54,0-1.07,0-1.61h2.6c1.75,0,3.06.35,3.91,1.06.85.71,1.28,1.79,1.28,3.25,0,.93-.19,1.74-.57,2.45s-.96,1.25-1.73,1.64c-.78.39-1.79.58-3.03.58ZM721.65,266.48c-.21.08-.42.17-.63.24-1.06.35-2.2.53-3.42.53-1.61,0-3.04-.39-4.29-1.17-1.25-.78-2.24-1.95-2.96-3.51-.72-1.56-1.08-3.51-1.08-5.84s.38-4.28,1.13-5.83c.75-1.55,1.78-2.7,3.07-3.47,1.29-.77,2.72-1.15,4.27-1.15,1.1,0,2.12.18,3.09.53.15.06.31.13.46.19l.98,4.28h2.59l-.18-5.52c-.95-.54-2.06-.96-3.32-1.26-1.27-.3-2.65-.46-4.16-.46-1.8,0-3.51.27-5.11.82-1.61.55-3.02,1.38-4.24,2.48-1.22,1.11-2.17,2.45-2.85,4.04-.68,1.58-1.02,3.41-1.02,5.48s.33,3.85.99,5.42c.66,1.57,1.58,2.89,2.76,3.94,1.18,1.06,2.56,1.86,4.15,2.41,1.58.55,3.31.82,5.19.82,1.73,0,3.26-.16,4.58-.49,1.33-.33,2.45-.74,3.38-1.22l.18-5.59h-2.59l-.95,4.31ZM757.49,244.64h-3.14v2.12l3.17.19c0,.48.02.95.02,1.43.01,1.25.02,2.51.02,3.78v3.21h-10.48v-3.23c0-1.25,0-2.51.02-3.76,0-.48.01-.96.02-1.44l3.18-.19v-2.12h-11.47v2.12l3.25.2c0,.47.02.94.02,1.41.01,1.24.02,2.48.02,3.73v9.37c0,1.25,0,2.5-.02,3.73,0,.46-.01.93-.02,1.39l-3.25.2v2.12h11.47v-2.12l-3.17-.19c0-.51-.02-1.02-.02-1.53-.01-1.27-.02-2.55-.02-3.85v-3.6h10.48v3.62c0,1.32,0,2.61-.02,3.87,0,.5-.01.99-.02,1.49l-3.17.19v2.12h11.47v-2.12l-3.26-.2c0-.47,0-.94,0-1.41-.01-1.24-.02-2.49-.02-3.74v-9.37c0-1.24,0-2.48.02-3.73,0-.46,0-.92,0-1.38l3.26-.19v-2.12h-8.33ZM792.95,244.53h-3.87l-7.69,22.02-2.9.23v2.12h8.51v-2.12l-3.23-.24,1.65-4.95h8.5l1.67,5-3.36.19v2.12h11.29v-2.12l-2.74-.15-7.82-22.1ZM786.13,259.44l2.55-7.67.75-3.62,3.76,11.29h-7.07ZM835.87,244.64h-3.87v2.12l3.87.25v8.22l.35,7.26-12.19-17.85h-7.67v2.12l3.1.13v19.65l-3.29.24v2.12h9.53v-2.12l-3.87-.26v-8.87l-.38-8.88h.01l13.92,20.31h2.85v-22.07l3.25-.25v-2.12h-5.63ZM867.98,244.64h-13.41l-.22,6.87h2.56l.91-4.68h5.1c0,.51.02,1.02.02,1.53v16.82c0,.46-.01.92-.01,1.38l-3.68.21v2.12h12.38v-2.12l-3.69-.2c0-.47-.02-.94-.02-1.4-.01-1.24-.02-2.49-.02-3.74v-9.37c0-1.24,0-2.48.02-3.73,0-.5.02-1,.02-1.5h5.08l.91,4.68h2.56l-.22-6.87h-8.29ZM903.74,256.44c-1.07-.68-2.36-1.33-3.87-1.94l-1.35-.55c-.9-.37-1.65-.74-2.25-1.11-.6-.38-1.04-.81-1.33-1.3-.29-.49-.44-1.07-.44-1.75s.18-1.33.55-1.86c.37-.54.88-.96,1.53-1.26.66-.3,1.45-.46,2.37-.46,1.07,0,2.02.17,2.85.51.08.03.17.09.26.13l.84,4.15h2.63l.15-5.22c-.71-.46-1.64-.86-2.81-1.2-1.17-.34-2.5-.51-3.98-.51-1.7,0-3.23.27-4.57.8-1.34.54-2.4,1.32-3.18,2.34-.78,1.02-1.17,2.26-1.17,3.73s.3,2.55.91,3.49c.61.94,1.45,1.74,2.52,2.41,1.07.67,2.3,1.28,3.69,1.84l1.28.55c.97.36,1.76.74,2.36,1.11.6.38,1.03.81,1.32,1.3.28.49.42,1.08.42,1.79s-.18,1.39-.55,1.99c-.36.6-.93,1.06-1.68,1.39-.76.33-1.72.49-2.89.49-.85,0-1.63-.09-2.34-.26-.61-.15-1.18-.35-1.74-.6l-.85-4.34h-2.7l-.11,5.55c.85.49,1.98.91,3.38,1.28,1.4.37,2.89.55,4.47.55,1.95,0,3.63-.29,5.06-.88,1.42-.58,2.53-1.42,3.32-2.5s1.19-2.37,1.19-3.85c0-1.34-.28-2.47-.84-3.4-.56-.93-1.38-1.73-2.45-2.41ZM957.29,257.14h-3.65v2.08l3.67.16c0,.69.02,1.4.02,2.08v5.32c-.09.03-.18.07-.27.1-.79.24-1.71.37-2.76.37-1.7,0-3.2-.4-4.49-1.19-1.29-.79-2.3-1.97-3.01-3.53-.72-1.56-1.08-3.49-1.08-5.81s.38-4.24,1.15-5.79c.77-1.55,1.8-2.71,3.09-3.49,1.29-.78,2.72-1.17,4.27-1.17,1.19,0,2.3.17,3.32.51.19.06.37.14.56.21l.97,4.24h2.59l-.18-5.55c-.58-.32-1.27-.6-2.06-.84s-1.66-.44-2.61-.59c-.95-.15-1.96-.22-3.03-.22-1.92,0-3.7.29-5.33.86-1.63.57-3.05,1.41-4.26,2.52-1.21,1.11-2.14,2.45-2.79,4.04s-.99,3.37-.99,5.37.32,3.82.95,5.39c.63,1.57,1.54,2.89,2.72,3.96,1.18,1.07,2.57,1.89,4.16,2.45,1.59.56,3.34.84,5.24.84,1.73,0,3.31-.19,4.73-.57,1.42-.38,2.72-.87,3.89-1.48v-1.72c0-1.41,0-2.84.02-4.27,0-.7.02-1.4.03-2.1l2.26-.12v-2.08h-7.12ZM996.92,261.85c-.22-.95-.49-1.74-.82-2.37-.33-.63-.75-1.14-1.26-1.52s-1.15-.66-1.9-.84c-.76-.18-1.67-.29-2.74-.31v-.22c1.73-.07,3.2-.36,4.42-.86,1.22-.5,2.14-1.17,2.78-2.01.63-.84.95-1.81.95-2.9,0-1.95-.82-3.46-2.47-4.55-1.64-1.08-4-1.63-7.07-1.63h-11.54v2.12l3.27.21c0,.47.01.93.01,1.4v16.8c0,.47-.01.94-.01,1.41l-3.27.19v2.12h11.54v-2.12l-3.26-.2c0-.49,0-.98,0-1.47-.01-1.25-.02-2.52-.02-3.8v-3.49h2.15c.83,0,1.51.1,2.05.31.54.21.97.56,1.32,1.06.34.5.61,1.21.8,2.14l1.02,4.53c.27,1.27.79,2.16,1.57,2.67.78.51,1.9.77,3.36.77.46,0,.89-.02,1.3-.05.4-.04.78-.09,1.13-.15.35-.06.7-.13,1.04-.2v-2.05l-3.12-.28-1.22-4.73ZM988.01,255.78h-2.48v-3.56c0-1.28,0-2.55.02-3.82,0-.54,0-1.07,0-1.61h2.6c1.75,0,3.06.35,3.91,1.06.85.71,1.28,1.79,1.28,3.25,0,.93-.19,1.74-.57,2.45s-.96,1.25-1.73,1.64c-.78.39-1.79.58-3.03.58ZM1033.87,247.27c-1.11-1.07-2.38-1.87-3.82-2.41s-2.96-.8-4.57-.8-3.13.28-4.57.84c-1.44.56-2.71,1.39-3.82,2.48-1.11,1.1-1.98,2.44-2.61,4.02-.63,1.58-.95,3.39-.95,5.41s.31,3.89.93,5.46c.62,1.57,1.49,2.89,2.61,3.96,1.12,1.07,2.4,1.88,3.84,2.43,1.44.55,2.96.82,4.57.82s3.13-.28,4.57-.84c1.44-.56,2.71-1.39,3.82-2.5,1.11-1.11,1.98-2.45,2.61-4.04.63-1.58.95-3.38.95-5.41s-.32-3.89-.95-5.46c-.63-1.57-1.5-2.89-2.61-3.96ZM1031.73,260.86c-.27,1.27-.67,2.38-1.21,3.34-.54.96-1.22,1.71-2.06,2.25-.84.54-1.83.8-2.98.8s-2.14-.27-2.98-.8c-.84-.54-1.53-1.28-2.08-2.25-.55-.96-.95-2.08-1.21-3.36-.26-1.28-.38-2.65-.38-4.11s.13-2.82.38-4.09c.26-1.27.66-2.37,1.21-3.32.55-.95,1.24-1.69,2.08-2.23.84-.54,1.83-.8,2.98-.8s2.14.27,2.98.8c.84.54,1.53,1.28,2.06,2.25.53.96.94,2.08,1.21,3.34.27,1.27.4,2.63.4,4.09s-.13,2.82-.4,4.09ZM1070.3,244.64h-3.65v2.12l3.65.19v11.86c0,1.88-.23,3.39-.69,4.55-.46,1.16-1.14,2-2.03,2.54-.89.54-1.95.8-3.2.8s-2.3-.26-3.18-.77c-.88-.51-1.55-1.33-2.01-2.45-.46-1.12-.69-2.61-.69-4.46v-7.03c0-1.23,0-2.46.02-3.69,0-.45,0-.89,0-1.34l3.55-.21v-2.12h-11.73v2.12l3.14.19c0,.46.02.91.02,1.38.01,1.24.02,2.47.02,3.69v7.78c0,2.22.4,4.04,1.19,5.48.79,1.44,1.91,2.5,3.36,3.18,1.45.68,3.13,1.02,5.06,1.02s3.71-.37,5.13-1.11c1.42-.74,2.51-1.88,3.27-3.42.75-1.53,1.13-3.47,1.13-5.81v-12.21l3.25-.18v-2.12h-5.63ZM1108.44,248.02c-.75-1.08-1.91-1.92-3.45-2.5-1.55-.59-3.51-.88-5.9-.88h-10.41v2.12l3.27.21c0,.47.01.93.01,1.4v16.82c0,.46,0,.93-.01,1.4l-3.27.19v2.12h11.98v-2.12l-3.69-.21c0-.45-.02-.91-.02-1.36-.01-1.22-.02-2.4-.02-3.56v-2.1h1.68c2.6,0,4.71-.33,6.32-.99,1.61-.66,2.78-1.57,3.52-2.74.74-1.17,1.12-2.47,1.12-3.91,0-1.51-.38-2.81-1.13-3.89ZM1104,254.91c-.4.83-1.04,1.46-1.92,1.9-.88.44-2.04.66-3.51.66h-1.64v-5.41c0-1.24,0-2.48.02-3.73,0-.52.02-1.02.02-1.53h1.78c2.05,0,3.53.43,4.46,1.3.92.86,1.39,2.16,1.39,3.89,0,1.12-.2,2.09-.6,2.92ZM572.29,72.64c-40.29,0-73.07,32.78-73.07,73.07s32.78,73.07,73.07,73.07,73.07-32.78,73.07-73.07-32.78-73.07-73.07-73.07ZM644.2,144.32l-31.56-31.56,10.99-17.4c12.43,12.68,20.21,29.93,20.57,48.96ZM611.23,112.92l-3.13,4.96c-2.32-2.98-5-5.66-7.98-7.98l4.96-3.13,6.15,6.15ZM606.04,106.16l15.73-9.94-9.94,15.73-5.8-5.8ZM545.8,135.88c-1.14,3.06-1.76,6.37-1.76,9.82s.63,6.76,1.76,9.82l-17.36-3.92c-.26-1.93-.41-3.9-.41-5.9s.15-3.97.41-5.9l17.36-3.92ZM528.61,138.62c1.12-6.93,3.85-13.32,7.8-18.78l9.4,14.89-17.2,3.89ZM545.81,156.67l-9.4,14.89c-3.95-5.46-6.68-11.85-7.8-18.78l17.2,3.89ZM545.15,145.7c0-14.96,12.17-27.14,27.14-27.14s27.14,12.17,27.14,27.14-12.17,27.14-27.14,27.14-27.14-12.17-27.14-27.14ZM598.78,155.53c1.14-3.06,1.76-6.37,1.76-9.82s-.63-6.76-1.76-9.82l17.36,3.92c.26,1.93.41,3.9.41,5.9s-.15,3.97-.41,5.9l-17.36,3.92ZM615.97,152.79c-1.12,6.93-3.85,13.32-7.8,18.78l-9.4-14.89,17.2-3.89ZM598.77,134.74l9.4-14.89c3.95,5.46,6.68,11.85,7.8,18.78l-17.2-3.89ZM607.46,118.88l-9.5,15.04c-2.82-6.13-7.77-11.07-13.9-13.9l15.04-9.5c3.14,2.4,5.95,5.21,8.35,8.35ZM583.26,119.22l-3.89-17.2c6.93,1.12,13.32,3.85,18.78,7.8l-14.89,9.4ZM582.11,119.22c-3.06-1.14-6.37-1.76-9.82-1.76s-6.76.63-9.82,1.76l3.92-17.36c1.93-.26,3.9-.41,5.9-.41s3.97.15,5.9.41l3.92,17.36ZM561.32,119.22l-14.89-9.4c5.46-3.95,11.85-6.68,18.78-7.8l-3.89,17.2ZM560.51,120.03c-6.13,2.82-11.07,7.77-13.9,13.9l-9.5-15.04c2.4-3.14,5.21-5.95,8.35-8.35l15.04,9.5ZM536.48,117.89l-3.13-4.96,6.15-6.15,4.96,3.13c-2.98,2.32-5.66,5-7.98,7.98ZM532.74,111.96l-9.94-15.73,15.73,9.94-5.8,5.8ZM535.76,118.83c-4.27,5.79-7.21,12.63-8.33,20.06l-25.9,5.85,31.01-31.01,3.22,5.1ZM527.28,151.34l-24.97-5.64,24.97-5.64c-.23,1.85-.36,3.73-.36,5.64s.13,3.79.36,5.64ZM527.43,152.52c1.12,7.43,4.06,14.27,8.33,20.06l-3.22,5.1-31.01-31.01,25.9,5.85ZM532.74,179.45l5.8,5.8-15.73,9.94,9.94-15.74ZM533.35,178.49l3.13-4.96c2.32,2.98,5,5.66,7.98,7.98l-4.96,3.13-6.15-6.15ZM537.12,172.52l9.5-15.04c2.82,6.13,7.77,11.08,13.9,13.9l-15.04,9.5c-3.14-2.4-5.95-5.21-8.35-8.35ZM561.32,172.18l3.89,17.2c-6.93-1.12-13.32-3.85-18.78-7.8l14.89-9.4ZM562.46,172.19c3.06,1.14,6.37,1.76,9.82,1.76s6.76-.63,9.82-1.76l-3.92,17.36c-1.93.26-3.9.41-5.9.41s-3.97-.15-5.9-.41l-3.92-17.36ZM583.26,172.18l14.89,9.4c-5.46,3.95-11.85,6.68-18.78,7.8l3.89-17.2ZM584.06,171.38c6.13-2.82,11.08-7.77,13.9-13.9l9.5,15.04c-2.4,3.14-5.21,5.95-8.35,8.35l-15.04-9.5ZM608.09,173.52l3.13,4.96-6.15,6.15-4.96-3.13c2.98-2.32,5.66-5,7.98-7.98ZM611.83,179.45l9.94,15.74-15.74-9.94,5.8-5.8ZM608.81,172.58c4.27-5.79,7.21-12.63,8.33-20.06l25.9-5.85-31.01,31.01-3.22-5.1ZM617.3,140.06l24.97,5.64-24.97,5.64c.23-1.85.36-3.73.36-5.64s-.13-3.79-.36-5.64ZM617.15,138.89c-1.12-7.43-4.06-14.27-8.33-20.06l3.22-5.1,31.01,31.01-25.9-5.85ZM622.63,94.36l-17.4,10.99-31.56-31.56c19.04.36,36.28,8.14,48.96,20.57ZM604.26,105.96l-5.1,3.22c-5.79-4.27-12.63-7.21-20.06-8.33l-5.85-25.9,31.01,31.01ZM577.93,100.7c-1.85-.23-3.73-.36-5.64-.36s-3.79.13-5.64.36l5.64-24.97,5.64,24.97ZM565.47,100.85c-7.43,1.12-14.27,4.06-20.06,8.33l-5.1-3.22,31.01-31.01-5.85,25.9ZM570.91,73.79l-31.56,31.56-17.4-10.99c12.68-12.43,29.93-20.21,48.96-20.57ZM520.95,95.36l10.99,17.4-31.56,31.56c.36-19.04,8.14-36.28,20.57-48.96ZM500.37,147.08l31.56,31.56-10.99,17.4c-12.44-12.68-20.21-29.93-20.57-48.96ZM521.95,197.05l17.4-10.99,31.56,31.56c-19.04-.36-36.28-8.14-48.96-20.57ZM540.31,185.45l5.1-3.22c5.79,4.27,12.63,7.21,20.06,8.33l5.85,25.9-31.01-31.01ZM566.65,190.71c1.85.23,3.73.36,5.64.36s3.79-.13,5.64-.36l-5.64,24.97-5.64-24.97ZM579.1,190.56c7.43-1.12,14.27-4.06,20.06-8.33l5.1,3.22-31.01,31.01,5.85-25.9ZM573.67,217.62l31.56-31.56,17.4,10.99c-12.68,12.43-29.93,20.21-48.96,20.57ZM623.63,196.04l-10.99-17.4,31.56-31.56c-.36,19.04-8.14,36.28-20.57,48.96ZM572.29,163.38c9.75,0,17.67-7.93,17.67-17.67s-7.93-17.67-17.67-17.67-17.67,7.93-17.67,17.67,7.93,17.67,17.67,17.67ZM572.29,129.14c9.13,0,16.56,7.43,16.56,16.56s-7.43,16.56-16.56,16.56-16.56-7.43-16.56-16.56,7.43-16.56,16.56-16.56ZM572.29,152.05c3.5,0,6.34-2.84,6.34-6.34s-2.84-6.34-6.34-6.34-6.34,2.84-6.34,6.34,2.84,6.34,6.34,6.34ZM572.29,156.84c6.14,0,11.14-5,11.14-11.14s-5-11.14-11.14-11.14-11.14,5-11.14,11.14,5,11.14,11.14,11.14ZM572.29,135.68c5.53,0,10.02,4.5,10.02,10.02s-4.5,10.02-10.02,10.02-10.02-4.5-10.02-10.02,4.5-10.02,10.02-10.02Z"/>
</svg>