<?xml version="1.0" encoding="UTF-8"?>
<svg id="uuid-66277e5b-8890-4b46-853e-4979bddd00f2" data-name="Black" xmlns="http://www.w3.org/2000/svg" width="1895.7" height="2368.99" viewBox="0 0 1895.7 2368.99">
  <defs>
    <style>
      .uuid-f0358eec-1774-4ae2-b174-cb5a5ae1dcb3 {
        fill: #1a1a1a;
      }
    </style>
  </defs>
  <path class="uuid-f0358eec-1774-4ae2-b174-cb5a5ae1dcb3" d="M49.46,0h0s-.58,0-.58,0h0C48.88,26.8,27.08,48.6.29,48.6h0v.58h0C27.4,49.18,49.46,27.12,49.46,0ZM79.68,0h0s-.58,0-.58,0h0C79.1,43.46,43.74,78.81.29,78.81h0v.58h0C44.06,79.39,79.68,43.78,79.68,0ZM30.79,0h0s-.58,0-.58,0h0c0,16.5-13.42,29.93-29.93,29.93h0v.58h0C17.1,30.5,30.79,16.82,30.79,0ZM474.14,30.5h0c16.82,0,30.5-13.68,30.5-30.5h0s-.58,0-.58,0h0c0,16.5-13.42,29.93-29.93,29.93h0c-16.5,0-29.93-13.42-29.93-29.93h0s-.58,0-.58,0h0c0,16.82,13.68,30.5,30.5,30.5ZM474.14,49.18h0c27.12,0,49.18-22.06,49.18-49.18h0s-.58,0-.58,0h0c0,26.8-21.8,48.6-48.6,48.6h0c-26.8,0-48.6-21.8-48.6-48.6h0s-.58,0-.58,0h0c0,27.12,22.06,49.18,49.18,49.18ZM474.14,79.39h0c43.78,0,79.39-35.61,79.39-79.39h0s-.58,0-.58,0h0c0,43.46-35.35,78.81-78.81,78.81h0C430.68,78.81,395.33,43.46,395.33,0h0s-.58,0-.58,0h0c0,43.78,35.61,79.39,79.39,79.39ZM947.99,30.5h0c16.82,0,30.5-13.68,30.5-30.5h0s-.58,0-.58,0h0c0,16.5-13.42,29.93-29.93,29.93h0c-16.5,0-29.93-13.42-29.93-29.93h0s-.58,0-.58,0h0c0,16.82,13.68,30.5,30.5,30.5ZM947.99,49.18h0c27.12,0,49.18-22.06,49.18-49.18h0s-.58,0-.58,0h0c0,26.8-21.8,48.6-48.6,48.6h0c-26.8,0-48.6-21.8-48.6-48.6h0s-.58,0-.58,0h0c0,27.12,22.06,49.18,49.18,49.18ZM947.99,79.39h0c43.78,0,79.39-35.61,79.39-79.39h0s-.58,0-.58,0h0c0,43.46-35.35,78.81-78.81,78.81h0c-43.46,0-78.81-35.35-78.81-78.81h0s-.58,0-.58,0h0c0,43.78,35.61,79.39,79.39,79.39ZM1421.85,49.18h0c27.12,0,49.18-22.06,49.18-49.18h0s-.58,0-.58,0h0c0,26.8-21.8,48.6-48.6,48.6h0c-26.8,0-48.6-21.8-48.6-48.6h0s-.58,0-.58,0h0c0,27.12,22.06,49.18,49.18,49.18ZM1421.85,30.5h0c16.82,0,30.5-13.68,30.5-30.5h0s-.58,0-.58,0h0c0,16.5-13.42,29.93-29.93,29.93h0c-16.5,0-29.93-13.42-29.93-29.93h0s-.58,0-.58,0h0c0,16.82,13.68,30.5,30.5,30.5ZM1421.85,79.39h0c43.78,0,79.39-35.61,79.39-79.39h0s-.58,0-.58,0h0c0,43.46-35.35,78.81-78.81,78.81h0c-43.46,0-78.81-35.35-78.81-78.81h0s-.58,0-.58,0h0c0,43.78,35.61,79.39,79.39,79.39ZM1768.01,0h0s-.58,0-.58,0h0c0,17.18,3.4,33.59,9.56,48.58l-86.05-19.44c-1.34-9.57-2.04-19.3-2.04-29.14h0s-.58,0-.58,0h0c0,9.79.69,19.47,2.01,29l-31.56-7.13-31.56,7.13c1.33-9.53,2.01-19.21,2.01-29h0s-.58,0-.58,0h0c0,9.84-.69,19.57-2.04,29.14l-86.05,19.44c6.16-14.99,9.56-31.39,9.56-48.58h0s-.58,0-.58,0h0c0,70.41-57.28,127.7-127.7,127.7h0c-70.41,0-127.7-57.28-127.7-127.7h0s-.58,0-.58,0h0c0,17.18,3.4,33.59,9.56,48.58l-86.05-19.44c-1.34-9.57-2.04-19.3-2.04-29.14h0s-.58,0-.58,0h0c0,9.79.69,19.47,2.01,29l-31.56-7.13-31.56,7.13c1.33-9.53,2.01-19.21,2.01-29h0s-.58,0-.58,0h0c0,9.84-.69,19.57-2.04,29.14l-86.05,19.44c6.16-14.99,9.56-31.39,9.56-48.58h0s-.58,0-.58,0h0c0,70.41-57.28,127.7-127.7,127.7h0c-70.41,0-127.7-57.28-127.7-127.7h0s-.58,0-.58,0h0c0,17.18,3.4,33.59,9.56,48.58l-86.05-19.44c-1.34-9.57-2.04-19.3-2.04-29.14h0s-.58,0-.58,0h0c0,9.79.69,19.47,2.01,29l-31.56-7.13-31.56,7.13c1.33-9.53,2.01-19.21,2.01-29h0s-.58,0-.58,0h0c0,9.84-.69,19.57-2.04,29.14l-86.05,19.44c6.16-14.99,9.56-31.39,9.56-48.58h0s-.58,0-.58,0h0c0,70.41-57.28,127.7-127.7,127.7h0C403.73,127.7,346.44,70.41,346.44,0h0s-.58,0-.58,0h0c0,17.18,3.4,33.59,9.56,48.58l-86.05-19.44c-1.34-9.57-2.04-19.3-2.04-29.14h0s-.58,0-.58,0h0c0,9.79.69,19.47,2.01,29l-31.56-7.13-31.56,7.13c1.33-9.53,2.01-19.21,2.01-29h0s-.58,0-.58,0h0c0,9.84-.69,19.57-2.04,29.14l-86.05,19.44C125.15,33.59,128.56,17.18,128.56,0h0s-.58,0-.58,0h0c0,70.41-57.28,127.7-127.7,127.7h0v.58h0c17.18,0,33.58-3.4,48.57-9.56l-19.44,86.05c-9.57,1.34-19.3,2.04-29.14,2.04h0v.58h0c9.79,0,19.47-.69,29-2.01l-7.13,31.57,7.13,31.57c-9.53-1.33-19.21-2.01-29-2.01h0v.58h0c9.84,0,19.56.7,29.14,2.04l19.44,86.05c-14.99-6.16-31.39-9.56-48.57-9.56h0v.58h0c70.41,0,127.7,57.28,127.7,127.7h0c0,70.41-57.28,127.7-127.7,127.7h0v.58h0c17.18,0,33.58-3.4,48.57-9.56l-19.44,86.05c-9.57,1.34-19.3,2.04-29.14,2.04h0v.58h0c9.79,0,19.47-.69,29-2.01l-7.13,31.57,7.13,31.57c-9.53-1.33-19.21-2.01-29-2.01h0v.58h0c9.84,0,19.56.7,29.14,2.04l19.44,86.05c-14.99-6.16-31.39-9.56-48.57-9.56h0v.58h0c70.41,0,127.7,57.28,127.7,127.7h0c0,70.41-57.28,127.7-127.7,127.7h0v.58h0c17.18,0,33.58-3.4,48.57-9.56l-19.44,86.05c-9.57,1.34-19.3,2.04-29.14,2.04h0v.58h0c9.79,0,19.47-.69,29-2.01l-7.13,31.57,7.13,31.57c-9.53-1.33-19.21-2.01-29-2.01h0v.58h0c9.84,0,19.56.7,29.14,2.04l19.44,86.05c-14.99-6.16-31.39-9.56-48.57-9.56h0v.58h0c70.41,0,127.7,57.28,127.7,127.7h0c0,70.41-57.28,127.7-127.7,127.7h0v.58h0c17.18,0,33.58-3.4,48.57-9.56l-19.44,86.05c-9.57,1.34-19.3,2.04-29.14,2.04h0v.58h0c9.79,0,19.47-.69,29-2.01l-7.13,31.57,7.13,31.57c-9.53-1.33-19.21-2.01-29-2.01h0v.58h0c9.84,0,19.56.7,29.14,2.04l19.44,86.05c-14.99-6.16-31.39-9.56-48.57-9.56h0v.58h0c70.41,0,127.7,57.28,127.7,127.7h0c0,70.41-57.28,127.7-127.7,127.7h0v.58h0c17.18,0,33.58-3.4,48.57-9.56l-19.44,86.05c-9.57,1.34-19.3,2.04-29.14,2.04h0v.58h0c9.79,0,19.47-.69,29-2.01l-7.13,31.57,7.13,31.57c-9.53-1.33-19.21-2.01-29-2.01h0v.58h0c9.84,0,19.56.7,29.14,2.04l19.44,86.05c-14.99-6.16-31.39-9.56-48.57-9.56h0v.58h0c70.41,0,127.7,57.28,127.7,127.7h0s.58,0,.58,0h0c0-17.18-3.4-33.59-9.56-48.58l86.05,19.44c1.34,9.57,2.04,19.3,2.04,29.14h0s.58,0,.58,0h0c0-9.79-.69-19.47-2.01-29l31.56,7.13,31.56-7.13c-1.33,9.53-2.01,19.21-2.01,29h0s.58,0,.58,0h0c0-9.84.69-19.57,2.04-29.14l86.05-19.44c-6.16,14.99-9.56,31.39-9.56,48.57h0s.58,0,.58,0h0c0-70.41,57.28-127.7,127.7-127.7h0c70.41,0,127.7,57.28,127.7,127.7h0s.58,0,.58,0h0c0-17.18-3.4-33.59-9.56-48.58l86.05,19.44c1.34,9.57,2.04,19.3,2.04,29.14h0s.58,0,.58,0h0c0-9.79-.69-19.47-2.01-29l31.56,7.13,31.56-7.13c-1.33,9.53-2.01,19.21-2.01,29h0s.58,0,.58,0h0c0-9.84.69-19.57,2.04-29.14l86.05-19.44c-6.16,14.99-9.56,31.39-9.56,48.57h0s.58,0,.58,0h0c0-70.41,57.28-127.7,127.7-127.7h0c70.41,0,127.7,57.28,127.7,127.7h0s.58,0,.58,0h0c0-17.18-3.4-33.59-9.56-48.58l86.05,19.44c1.34,9.57,2.04,19.3,2.04,29.14h0s.58,0,.58,0h0c0-9.79-.69-19.47-2.01-29l31.56,7.13,31.56-7.13c-1.33,9.53-2.01,19.21-2.01,29h0s.58,0,.58,0h0c0-9.84.69-19.57,2.04-29.14l86.05-19.44c-6.16,14.99-9.56,31.39-9.56,48.57h0s.58,0,.58,0h0c0-70.41,57.28-127.7,127.7-127.7h0c70.41,0,127.7,57.28,127.7,127.7h0s.58,0,.58,0h0c0-17.18-3.4-33.59-9.56-48.58l86.05,19.44c1.34,9.57,2.04,19.3,2.04,29.14h0s.58,0,.58,0h0c0-9.79-.69-19.47-2.01-29l31.56,7.13,31.56-7.13c-1.33,9.53-2.01,19.21-2.01,29h0s.58,0,.58,0h0c0-9.84.69-19.57,2.04-29.14l86.05-19.44c-6.16,14.99-9.56,31.39-9.56,48.57h0s.58,0,.58,0h0c0-70.41,57.28-127.7,127.7-127.7h0v-.58h0c-17.18,0-33.58,3.4-48.57,9.56l19.44-86.05c9.57-1.34,19.3-2.04,29.14-2.04h0v-.58h0c-9.79,0-19.47.69-29,2.01l7.13-31.57-7.13-31.57c9.53,1.33,19.21,2.01,29,2.01h0v-.58h0c-9.84,0-19.56-.7-29.14-2.04l-19.44-86.05c14.99,6.16,31.39,9.56,48.57,9.56h0v-.58h0c-70.41,0-127.7-57.28-127.7-127.7h0c0-70.41,57.28-127.7,127.7-127.7h0v-.58h0c-17.18,0-33.58,3.4-48.57,9.56l19.44-86.05c9.57-1.34,19.3-2.04,29.14-2.04h0v-.58h0c-9.79,0-19.47.69-29,2.01l7.13-31.57-7.13-31.57c9.53,1.33,19.21,2.01,29,2.01h0v-.58h0c-9.84,0-19.56-.7-29.14-2.04l-19.44-86.05c14.99,6.16,31.39,9.56,48.57,9.56h0v-.58h0c-70.41,0-127.7-57.28-127.7-127.7h0c0-70.41,57.28-127.7,127.7-127.7h0v-.58h0c-17.18,0-33.58,3.4-48.57,9.56l19.44-86.05c9.57-1.34,19.3-2.04,29.14-2.04h0v-.58h0c-9.79,0-19.47.69-29,2.01l7.13-31.57-7.13-31.57c9.53,1.33,19.21,2.01,29,2.01h0v-.58h0c-9.84,0-19.56-.7-29.13-2.04l-19.44-86.05c14.99,6.16,31.39,9.56,48.57,9.56h0v-.58h0c-70.41,0-127.7-57.28-127.7-127.7h0c0-70.41,57.28-127.7,127.7-127.7h0v-.58h0c-17.18,0-33.58,3.4-48.57,9.56l19.44-86.05c9.57-1.34,19.3-2.04,29.14-2.04h0v-.58h0c-9.79,0-19.47.69-29,2.01l7.13-31.57-7.13-31.57c9.53,1.33,19.21,2.01,29,2.01h0v-.58h0c-9.84,0-19.56-.7-29.14-2.04l-19.44-86.05c14.99,6.16,31.39,9.56,48.57,9.56h0v-.58h0c-70.41,0-127.7-57.28-127.7-127.7h0c0-70.41,57.28-127.7,127.7-127.7h0v-.58h0c-17.18,0-33.58,3.4-48.57,9.56l19.44-86.05c9.57-1.34,19.3-2.04,29.14-2.04h0v-.58h0c-9.79,0-19.47.69-29,2.01l7.13-31.57-7.13-31.57c9.53,1.33,19.21,2.01,29,2.01h0v-.58h0c-9.84,0-19.56-.69-29.14-2.04l-19.44-86.05c14.99,6.16,31.39,9.56,48.57,9.56h0v-.58h0c-70.41,0-127.7-57.28-127.7-127.7ZM1846.1,118.29l-74.58,47.1c-7.72-5.82-15.09-12.21-22.04-19.16s-13.34-14.33-19.16-22.04l47.1-74.58c13.01,30.91,37.79,55.69,68.69,68.69ZM1690.34,502.86l-31.56-7.13-31.56,7.13c1.33-9.53,2.01-19.21,2.01-29h0c0-9.79-.69-19.47-2.01-29l31.56,7.13,31.56-7.13c-1.33,9.53-2.01,19.21-2.01,29h0c0,9.79.69,19.47,2.01,29ZM1690.34,976.71l-31.56-7.13-31.56,7.13c1.33-9.53,2.01-19.21,2.01-29h0c0-9.79-.69-19.47-2.01-29l31.56,7.13,31.56-7.13c-1.33,9.53-2.01,19.21-2.01,29h0c0,9.79.69,19.47,2.01,29ZM1690.34,1450.57l-31.56-7.13-31.56,7.13c1.33-9.53,2.01-19.21,2.01-29h0c0-9.79-.69-19.47-2.01-29l31.56,7.13,31.56-7.13c-1.33,9.53-2.01,19.21-2.01,29h0c0,9.79.69,19.47,2.01,29ZM1690.34,1924.42l-31.56-7.13-31.56,7.13c1.33-9.53,2.01-19.21,2.01-29h0c0-9.79-.69-19.47-2.01-29l31.56,7.13,31.56-7.13c-1.33,9.53-2.01,19.21-2.01,29h0c0,9.79.69,19.47,2.01,29ZM205.65,1866.42l31.56,7.13,31.56-7.13c-1.33,9.53-2.01,19.21-2.01,29h0c0,9.79.69,19.47,2.01,29l-31.56-7.13-31.56,7.13c1.33-9.53,2.01-19.21,2.01-29h0c0-9.79-.69-19.47-2.01-29ZM205.65,1392.56l31.56,7.13,31.56-7.13c-1.33,9.53-2.01,19.21-2.01,29h0c0,9.79.69,19.47,2.01,29l-31.56-7.13-31.56,7.13c1.33-9.53,2.01-19.21,2.01-29h0c0-9.79-.69-19.47-2.01-29ZM205.65,918.71l31.56,7.13,31.56-7.13c-1.33,9.53-2.01,19.21-2.01,29h0c0,9.79.69,19.47,2.01,29l-31.56-7.13-31.56,7.13c1.33-9.53,2.01-19.21,2.01-29h0c0-9.79-.69-19.47-2.01-29ZM205.65,444.85l31.56,7.13,31.56-7.13c-1.33,9.53-2.01,19.21-2.01,29h0c0,9.79.69,19.47,2.01,29l-31.56-7.13-31.56,7.13c1.33-9.53,2.01-19.21,2.01-29h0c0-9.79-.69-19.47-2.01-29ZM1658.78,236.39l-53.35-84.49,53.35-53.35,53.35,53.35-53.35,84.49ZM1712.55,152.32l30.84,30.84-83.68,52.84,52.84-83.68ZM1712.13,321.96l-53.35,53.35-53.35-53.35,53.35-84.49,53.35,84.49ZM1659.7,237.85l83.68,52.84-30.84,30.84-52.84-83.68ZM1658.78,710.24l-53.35-84.49,53.35-53.35,53.35,53.35-53.35,84.49ZM1712.55,626.17l30.84,30.84-83.68,52.84,52.84-83.68ZM1712.13,795.81l-53.35,53.35-53.35-53.35,53.35-84.49,53.35,84.49ZM1659.7,711.71l83.68,52.84-30.84,30.84-52.84-83.68ZM1658.78,1184.1l-53.35-84.49,53.35-53.35,53.35,53.35-53.35,84.49ZM1712.55,1100.03l30.84,30.84-83.68,52.84,52.84-83.68ZM1712.13,1269.66l-53.35,53.35-53.35-53.35,53.35-84.49,53.35,84.49ZM1659.7,1185.56l83.68,52.84-30.84,30.84-52.84-83.68ZM1658.78,1657.95l-53.35-84.49,53.35-53.35,53.35,53.35-53.35,84.49ZM1712.55,1573.88l30.84,30.84-83.68,52.84,52.84-83.68ZM1712.13,1743.52l-53.35,53.35-53.35-53.35,53.35-84.49,53.35,84.49ZM1659.7,1659.42l83.68,52.84-30.84,30.84-52.84-83.68ZM1658.78,2131.8l-53.35-84.49,53.35-53.35,53.35,53.35-53.35,84.49ZM1712.55,2047.74l30.84,30.84-83.68,52.84,52.84-83.68ZM1657.85,2131.42l-83.68-52.84,30.84-30.84,52.84,83.68ZM1658.23,2132.35l-84.49,53.35-53.35-53.35,53.35-53.35,84.49,53.35ZM1573.67,2078.26l-27.11-17.12c7.68-5.8,15.01-12.16,21.93-19.08,6.92-6.92,13.28-14.26,19.08-21.93l17.12,27.11-31.02,31.02ZM183.86,2047.32l53.35-53.35,53.35,53.35-53.35,84.49-53.35-84.49ZM236.29,2131.42l-83.68-52.84,30.84-30.84,52.84,83.68ZM290.98,2047.74l30.84,30.84-83.68,52.84,52.84-83.68ZM322.24,2078.99l53.35,53.35-53.35,53.35-84.49-53.35,84.49-53.35ZM291.3,2047.23l17.12-27.11c5.8,7.68,12.16,15.01,19.08,21.93,6.92,6.92,14.25,13.28,21.93,19.08l-27.11,17.12-31.02-31.02ZM237.21,1659.03l53.35,84.49-53.35,53.35-53.35-53.35,53.35-84.49ZM183.44,1743.1l-30.84-30.84,83.68-52.84-52.84,83.68ZM183.86,1573.46l53.35-53.35,53.35,53.35-53.35,84.49-53.35-84.49ZM236.29,1657.56l-83.68-52.84,30.84-30.84,52.84,83.68ZM237.21,1185.18l53.35,84.49-53.35,53.35-53.35-53.35,53.35-84.49ZM183.44,1269.25l-30.84-30.84,83.68-52.84-52.84,83.68ZM183.86,1099.61l53.35-53.35,53.35,53.35-53.35,84.49-53.35-84.49ZM236.29,1183.71l-83.68-52.84,30.84-30.84,52.84,83.68ZM237.21,711.32l53.35,84.49-53.35,53.35-53.35-53.35,53.35-84.49ZM183.44,795.39l-30.84-30.84,83.68-52.84-52.84,83.68ZM183.86,625.75l53.35-53.35,53.35,53.35-53.35,84.49-53.35-84.49ZM236.29,709.86l-83.68-52.84,30.84-30.84,52.84,83.68ZM237.21,237.47l53.35,84.49-53.35,53.35-53.35-53.35,53.35-84.49ZM183.44,321.54l-30.84-30.84,83.68-52.84-52.84,83.68ZM238.14,237.85l83.68,52.84-30.84,30.84-52.84-83.68ZM237.75,236.93l84.49-53.35,53.35,53.35-53.35,53.35-84.49-53.35ZM322.32,291.01l27.11,17.12c-7.68,5.8-15.01,12.16-21.93,19.08-6.92,6.92-13.28,14.26-19.08,21.93l-17.12-27.11,31.02-31.02ZM1519.58,710.78l53.67,53.67-27.18,17.17c-27.81-20.89-60.17-34.29-94.6-39.19l-7.15-31.65,7.15-31.65c34.43-4.89,66.8-18.3,94.6-39.19l27.18,17.17-53.67,53.67ZM1573.75,657.43l84.49,53.35-84.49,53.35-53.35-53.35,53.35-53.35ZM1519.58,1184.64l53.67,53.67-27.18,17.17c-27.81-20.89-60.17-34.29-94.6-39.19l-7.15-31.65,7.15-31.65c34.43-4.89,66.8-18.3,94.6-39.19l27.18,17.17-53.67,53.67ZM1573.75,1131.28l84.49,53.35-84.49,53.35-53.35-53.35,53.35-53.35ZM1519.58,1658.49l53.67,53.67-27.18,17.17c-27.81-20.89-60.17-34.29-94.6-39.19l-7.15-31.65,7.15-31.65c34.43-4.89,66.8-18.3,94.6-39.19l27.18,17.17-53.67,53.67ZM1573.75,1605.14l84.49,53.35-84.49,53.35-53.35-53.35,53.35-53.35ZM1238.59,2046.82l-53.67-53.67-53.67,53.67-17.17-27.18c20.89-27.81,34.29-60.17,39.19-94.6l31.65-7.15,31.65,7.15c4.89,34.43,18.3,66.8,39.19,94.6l-17.17,27.18ZM1238.69,2047.74l30.84,30.84-83.68,52.84,52.84-83.68ZM1183.99,2131.42l-83.68-52.84,30.84-30.84,52.84,83.68ZM764.73,2046.82l-53.67-53.67-53.67,53.67-17.17-27.18c20.89-27.81,34.29-60.17,39.19-94.6l31.65-7.15,31.65,7.15c4.89,34.43,18.3,66.8,39.19,94.6l-17.17,27.18ZM764.84,2047.74l30.84,30.84-83.68,52.84,52.84-83.68ZM710.14,2131.42l-83.68-52.84,30.84-30.84,52.84,83.68ZM376.41,1658.49l-53.67-53.67,27.18-17.17c27.81,20.89,60.17,34.29,94.6,39.19l7.15,31.65-7.15,31.65c-34.43,4.89-66.8,18.3-94.6,39.19l-27.18-17.17,53.67-53.67ZM322.24,1711.84l-84.49-53.35,84.49-53.35,53.35,53.35-53.35,53.35ZM376.41,1184.64l-53.67-53.67,27.18-17.17c27.81,20.89,60.17,34.29,94.6,39.19l7.15,31.65-7.15,31.65c-34.43,4.89-66.8,18.3-94.6,39.19l-27.18-17.17,53.67-53.67ZM322.24,1237.99l-84.49-53.35,84.49-53.35,53.35,53.35-53.35,53.35ZM376.41,710.78l-53.67-53.67,27.18-17.17c27.81,20.89,60.17,34.29,94.6,39.19l7.15,31.65-7.15,31.65c-34.43,4.89-66.8,18.3-94.6,39.19l-27.18-17.17,53.67-53.67ZM322.24,764.13l-84.49-53.35,84.49-53.35,53.35,53.35-53.35,53.35ZM657.4,322.46l53.67,53.67,53.67-53.67,17.17,27.18c-20.89,27.81-34.29,60.17-39.19,94.6l-31.65,7.15-31.65-7.15c-4.89-34.43-18.3-66.8-39.19-94.6l17.17-27.18ZM657.3,321.54l-30.84-30.84,83.68-52.84-52.84,83.68ZM711.99,237.85l83.68,52.84-30.84,30.84-52.84-83.68ZM1131.25,322.46l53.67,53.67,53.67-53.67,17.17,27.18c-20.89,27.81-34.29,60.17-39.19,94.6l-31.65,7.15-31.65-7.15c-4.89-34.43-18.3-66.8-39.19-94.6l17.17-27.18ZM1131.15,321.54l-30.84-30.84,83.68-52.84-52.84,83.68ZM1185.85,237.85l83.68,52.84-30.84,30.84-52.84-83.68ZM1303.13,522.43l-86.05-19.44c-1.34-9.57-2.04-19.3-2.04-29.14h0c0-9.84.69-19.57,2.04-29.14l86.05-19.44c-6.16,14.99-9.56,31.39-9.56,48.57h0c0,17.18,3.4,33.59,9.56,48.58ZM1450.99,678.62c-9.57,1.34-19.3,2.04-29.14,2.04h0c-9.84,0-19.56-.7-29.14-2.04l-19.44-86.05c14.99,6.16,31.39,9.56,48.57,9.56h0c17.18,0,33.58-3.4,48.57-9.56l-19.44,86.05ZM1471.02,592.56l74.52,47.06c-27.63,20.71-59.77,34.02-93.95,38.91l19.42-85.97ZM1470.42,829c-14.99-6.16-31.39-9.56-48.57-9.56h0c-17.18,0-33.58,3.4-48.57,9.56l19.44-86.05c9.57-1.34,19.3-2.04,29.14-2.04h0c9.84,0,19.56.7,29.14,2.04l19.44,86.05ZM1451.6,743.03c34.18,4.89,66.31,18.21,93.95,38.91l-74.52,47.06-19.42-85.97ZM1303.13,996.28l-86.05-19.44c-1.34-9.57-2.04-19.3-2.04-29.14h0c0-9.84.69-19.57,2.04-29.14l86.05-19.44c-6.16,14.99-9.56,31.39-9.56,48.57h0c0,17.18,3.4,33.58,9.56,48.58ZM1450.99,1152.47c-9.57,1.34-19.3,2.04-29.14,2.04h0c-9.84,0-19.56-.7-29.14-2.04l-19.44-86.05c14.99,6.16,31.39,9.56,48.57,9.56h0c17.18,0,33.58-3.4,48.57-9.56l-19.44,86.05ZM1471.02,1066.41l74.52,47.06c-27.63,20.71-59.77,34.02-93.95,38.91l19.42-85.97ZM1470.42,1302.85c-14.99-6.16-31.39-9.56-48.57-9.56h0c-17.18,0-33.58,3.4-48.57,9.56l19.44-86.05c9.57-1.34,19.3-2.04,29.14-2.04h0c9.84,0,19.56.7,29.14,2.04l19.44,86.05ZM1451.6,1216.89c34.18,4.89,66.31,18.21,93.95,38.91l-74.52,47.06-19.42-85.97ZM1303.13,1470.14l-86.05-19.44c-1.34-9.57-2.04-19.3-2.04-29.14h0c0-9.84.69-19.57,2.04-29.14l86.05-19.44c-6.16,14.99-9.56,31.39-9.56,48.57h0c0,17.18,3.4,33.59,9.56,48.58ZM1450.99,1626.32c-9.57,1.34-19.3,2.04-29.14,2.04h0c-9.84,0-19.56-.7-29.14-2.04l-19.44-86.05c14.99,6.16,31.39,9.56,48.57,9.56h0c17.18,0,33.58-3.4,48.57-9.56l-19.44,86.05ZM1471.02,1540.27l74.52,47.06c-27.63,20.71-59.77,34.02-93.95,38.91l19.42-85.97ZM1470.42,1776.7c-14.99-6.16-31.39-9.56-48.57-9.56h0c-17.18,0-33.58,3.4-48.57,9.56l19.44-86.05c9.57-1.34,19.3-2.04,29.14-2.04h0c9.84,0,19.56.7,29.14,2.04l19.44,86.05ZM1451.6,1690.74c34.18,4.89,66.31,18.21,93.95,38.91l-74.52,47.06-19.42-85.97ZM1303.13,1943.99l-86.05-19.44c-1.34-9.57-2.04-19.3-2.04-29.14h0c0-9.84.69-19.57,2.04-29.14l86.05-19.44c-6.16,14.99-9.56,31.39-9.56,48.57h0c0,17.18,3.4,33.59,9.56,48.58ZM1066.71,1846.84l86.05,19.44c1.34,9.57,2.04,19.3,2.04,29.14h0c0,9.84-.69,19.57-2.04,29.14l-86.05,19.44c6.16-14.99,9.56-31.39,9.56-48.57h0c0-17.18-3.4-33.59-9.56-48.58ZM829.28,1943.99l-86.05-19.44c-1.34-9.57-2.04-19.3-2.04-29.14h0c0-9.84.69-19.57,2.04-29.14l86.05-19.44c-6.16,14.99-9.56,31.39-9.56,48.57h0c0,17.18,3.4,33.59,9.56,48.58ZM592.85,1846.84l86.05,19.44c1.34,9.57,2.04,19.3,2.04,29.14h0c0,9.84-.69,19.57-2.04,29.14l-86.05,19.44c6.16-14.99,9.56-31.39,9.56-48.57h0c0-17.18-3.4-33.59-9.56-48.58ZM445,1690.66c9.57-1.34,19.3-2.04,29.14-2.04h0c9.84,0,19.56.7,29.14,2.04l19.44,86.05c-14.99-6.16-31.39-9.56-48.57-9.56h0c-17.18,0-33.58,3.4-48.57,9.56l19.44-86.05ZM424.97,1776.71l-74.52-47.06c27.63-20.71,59.77-34.02,93.95-38.91l-19.42,85.97ZM425.56,1540.28c14.99,6.16,31.39,9.56,48.57,9.56h0c17.18,0,33.58-3.4,48.57-9.56l-19.44,86.05c-9.57,1.34-19.3,2.04-29.14,2.04h0c-9.84,0-19.56-.7-29.14-2.04l-19.44-86.05ZM444.39,1626.24c-34.18-4.89-66.31-18.21-93.95-38.91l74.52-47.06,19.42,85.97ZM592.85,1372.99l86.05,19.44c1.34,9.57,2.04,19.3,2.04,29.14h0c0,9.84-.69,19.57-2.04,29.14l-86.05,19.44c6.16-14.99,9.56-31.39,9.56-48.57h0c0-17.18-3.4-33.59-9.56-48.58ZM445,1216.8c9.57-1.34,19.3-2.04,29.14-2.04h0c9.84,0,19.56.7,29.14,2.04l19.44,86.05c-14.99-6.16-31.39-9.56-48.57-9.56h0c-17.18,0-33.58,3.4-48.57,9.56l19.44-86.05ZM424.97,1302.86l-74.52-47.06c27.63-20.71,59.77-34.02,93.95-38.91l-19.42,85.97ZM425.56,1066.42c14.99,6.16,31.39,9.56,48.57,9.56h0c17.18,0,33.58-3.4,48.57-9.56l-19.44,86.05c-9.57,1.34-19.3,2.04-29.14,2.04h0c-9.84,0-19.56-.7-29.14-2.04l-19.44-86.05ZM444.39,1152.39c-34.18-4.89-66.31-18.21-93.95-38.91l74.52-47.06,19.42,85.97ZM592.85,899.13l86.05,19.44c1.34,9.57,2.04,19.3,2.04,29.14h0c0,9.84-.69,19.57-2.04,29.14l-86.05,19.44c6.16-14.99,9.56-31.39,9.56-48.57h0c0-17.18-3.4-33.59-9.56-48.58ZM445,742.95c9.57-1.34,19.3-2.04,29.14-2.04h0c9.84,0,19.56.7,29.14,2.04l19.44,86.05c-14.99-6.16-31.39-9.56-48.57-9.56h0c-17.18,0-33.58,3.4-48.57,9.56l19.44-86.05ZM424.97,829.01l-74.52-47.06c27.63-20.71,59.77-34.02,93.95-38.91l-19.42,85.97ZM425.56,592.57c14.99,6.16,31.39,9.56,48.57,9.56h0c17.18,0,33.58-3.4,48.57-9.56l-19.44,86.05c-9.57,1.34-19.3,2.04-29.14,2.04h0c-9.84,0-19.56-.7-29.14-2.04l-19.44-86.05ZM444.39,678.53c-34.18-4.89-66.31-18.21-93.95-38.91l74.52-47.06,19.42,85.97ZM592.85,425.28l86.05,19.44c1.34,9.57,2.04,19.3,2.04,29.14h0c0,9.84-.69,19.57-2.04,29.14l-86.05,19.44c6.16-14.99,9.56-31.39,9.56-48.57h0c0-17.18-3.4-33.58-9.56-48.58ZM829.28,522.43l-86.05-19.44c-1.34-9.57-2.04-19.3-2.04-29.14h0c0-9.84.69-19.57,2.04-29.14l86.05-19.44c-6.16,14.99-9.56,31.39-9.56,48.57h0c0,17.18,3.4,33.59,9.56,48.58ZM1066.71,425.28l86.05,19.44c1.34,9.57,2.04,19.3,2.04,29.14h0c0,9.84-.69,19.57-2.04,29.14l-86.05,19.44c6.16-14.99,9.56-31.39,9.56-48.57h0c0-17.18-3.4-33.58-9.56-48.58ZM1216.49,502.86l-31.56-7.13-31.56,7.13c1.33-9.53,2.01-19.21,2.01-29h0c0-9.79-.69-19.47-2.01-29l31.56,7.13,31.56-7.13c-1.33,9.53-2.01,19.21-2.01,29h0c0,9.79.69,19.47,2.01,29ZM1216.49,976.71l-31.56-7.13-31.56,7.13c1.33-9.53,2.01-19.21,2.01-29h0c0-9.79-.69-19.47-2.01-29l31.56,7.13,31.56-7.13c-1.33,9.53-2.01,19.21-2.01,29h0c0,9.79.69,19.47,2.01,29ZM1216.49,1450.57l-31.56-7.13-31.56,7.13c1.33-9.53,2.01-19.21,2.01-29h0c0-9.79-.69-19.47-2.01-29l31.56,7.13,31.56-7.13c-1.33,9.53-2.01,19.21-2.01,29h0c0,9.79.69,19.47,2.01,29ZM679.5,1392.56l31.56,7.13,31.56-7.13c-1.33,9.53-2.01,19.21-2.01,29h0c0,9.79.69,19.47,2.01,29l-31.56-7.13-31.56,7.13c1.33-9.53,2.01-19.21,2.01-29h0c0-9.79-.69-19.47-2.01-29ZM679.5,918.71l31.56,7.13,31.56-7.13c-1.33,9.53-2.01,19.21-2.01,29h0c0,9.79.69,19.47,2.01,29l-31.56-7.13-31.56,7.13c1.33-9.53,2.01-19.21,2.01-29h0c0-9.79-.69-19.47-2.01-29ZM1183.99,1659.42l-52.84,83.68-30.84-30.84,83.68-52.84ZM1099.89,1711.84l-53.35-53.35,53.35-53.35,84.49,53.35-84.49,53.35ZM1184.92,1659.03l53.35,84.49-53.35,53.35-53.35-53.35,53.35-84.49ZM1185.85,1659.42l83.68,52.84-30.84,30.84-52.84-83.68ZM1185.46,1658.49l84.49-53.35,53.35,53.35-53.35,53.35-84.49-53.35ZM1185.85,1657.56l52.84-83.68,30.84,30.84-83.68,52.84ZM1184.92,1657.95l-53.35-84.49,53.35-53.35,53.35,53.35-53.35,84.49ZM1183.99,1657.56l-83.68-52.84,30.84-30.84,52.84,83.68ZM1099.81,1604.4l-27.11-17.12c7.68-5.8,15.01-12.16,21.93-19.08,6.92-6.92,13.28-14.26,19.08-21.93l17.12,27.11-31.02,31.02ZM711.07,1657.95l-53.35-84.49,53.35-53.35,53.35,53.35-53.35,84.49ZM764.84,1573.88l30.84,30.84-83.68,52.84,52.84-83.68ZM710.14,1657.56l-83.68-52.84,30.84-30.84,52.84,83.68ZM710.53,1658.49l-84.49,53.35-53.35-53.35,53.35-53.35,84.49,53.35ZM710.14,1659.42l-52.84,83.68-30.84-30.84,83.68-52.84ZM711.07,1659.03l53.35,84.49-53.35,53.35-53.35-53.35,53.35-84.49ZM711.99,1659.42l83.68,52.84-30.84,30.84-52.84-83.68ZM711.61,1658.49l84.49-53.35,53.35,53.35-53.35,53.35-84.49-53.35ZM765.15,1573.38l17.12-27.11c5.8,7.68,12.16,15.01,19.08,21.93,6.92,6.92,14.25,13.28,21.93,19.08l-27.11,17.12-31.02-31.02ZM711.99,709.86l52.84-83.68,30.84,30.84-83.68,52.84ZM796.09,657.43l53.35,53.35-53.35,53.35-84.49-53.35,84.49-53.35ZM711.07,710.24l-53.35-84.49,53.35-53.35,53.35,53.35-53.35,84.49ZM710.14,709.86l-83.68-52.84,30.84-30.84,52.84,83.68ZM710.53,710.78l-84.49,53.35-53.35-53.35,53.35-53.35,84.49,53.35ZM710.14,711.71l-52.84,83.68-30.84-30.84,83.68-52.84ZM711.07,711.32l53.35,84.49-53.35,53.35-53.35-53.35,53.35-84.49ZM711.99,711.71l83.68,52.84-30.84,30.84-52.84-83.68ZM796.18,764.87l27.11,17.12c-7.68,5.8-15.01,12.16-21.93,19.08-6.92,6.92-13.28,14.26-19.08,21.93l-17.12-27.11,31.02-31.02ZM1045.72,1184.64l53.67,53.67-27.18,17.17c-27.81-20.89-60.17-34.29-94.6-39.19l-7.15-31.65,7.15-31.65c34.43-4.89,66.8-18.3,94.6-39.19l27.18,17.17-53.67,53.67ZM1099.89,1131.28l84.49,53.35-84.49,53.35-53.35-53.35,53.35-53.35ZM850.26,1184.64l-53.67-53.67,27.18-17.17c27.81,20.89,60.17,34.29,94.6,39.19l7.15,31.65-7.15,31.65c-34.43,4.89-66.8,18.3-94.6,39.19l-27.18-17.17,53.67-53.67ZM796.09,1237.99l-84.49-53.35,84.49-53.35,53.35,53.35-53.35,53.35ZM977.13,1152.47c-9.57,1.34-19.3,2.04-29.14,2.04h0c-9.84,0-19.56-.7-29.14-2.04l-19.44-86.05c14.99,6.16,31.39,9.56,48.57,9.56h0c17.18,0,33.58-3.4,48.57-9.56l-19.44,86.05ZM997.16,1066.41l74.52,47.06c-27.63,20.71-59.77,34.02-93.95,38.91l19.42-85.97ZM996.57,1302.85c-14.99-6.16-31.39-9.56-48.57-9.56h0c-17.18,0-33.58,3.4-48.57,9.56l19.44-86.05c9.57-1.34,19.3-2.04,29.14-2.04h0c9.84,0,19.56.7,29.14,2.04l19.44,86.05ZM977.74,1216.89c34.18,4.89,66.31,18.21,93.95,38.91l-74.52,47.06-19.42-85.97ZM898.82,1302.86l-74.52-47.06c27.63-20.71,59.77-34.02,93.95-38.91l-19.42,85.97ZM947.99,1214.19h0c-9.79,0-19.47.69-29,2.01l7.13-31.57-7.13-31.57c9.53,1.33,19.21,2.01,29,2.01h0c9.79,0,19.47-.69,29-2.01l-7.13,31.57,7.13,31.57c-9.53-1.33-19.21-2.01-29-2.01ZM918.24,1152.39c-34.18-4.89-66.31-18.21-93.95-38.91l74.52-47.06,19.42,85.97ZM823.81,1113.1c-7.72-5.82-15.09-12.21-22.04-19.16-6.96-6.96-13.34-14.33-19.16-22.04l47.1-74.58c13.01,30.91,37.79,55.69,68.69,68.69l-74.58,47.1ZM823.81,1256.17l74.58,47.1c-30.91,13.01-55.69,37.79-68.69,68.69l-47.1-74.58c5.82-7.72,12.21-15.09,19.16-22.04,6.96-6.96,14.33-13.34,22.04-19.16ZM947.99,1293.87h0c70.41,0,127.7,57.28,127.7,127.7h0c0,70.41-57.28,127.7-127.7,127.7h0c-70.41,0-127.7-57.28-127.7-127.7h0c0-70.41,57.28-127.7,127.7-127.7ZM997.59,1303.27l74.58-47.1c7.72,5.82,15.09,12.21,22.04,19.16,6.96,6.96,13.34,14.33,19.16,22.04l-47.1,74.58c-13.01-30.91-37.79-55.69-68.69-68.69ZM1072.18,1113.1l-74.58-47.1c30.91-13.01,55.69-37.79,68.69-68.69l47.1,74.58c-5.82,7.72-12.21,15.09-19.16,22.04-6.96,6.96-14.33,13.34-22.04,19.16ZM947.99,1075.41h0c-70.41,0-127.7-57.28-127.7-127.7h0c0-70.41,57.28-127.7,127.7-127.7h0c70.41,0,127.7,57.28,127.7,127.7h0c0,70.41-57.28,127.7-127.7,127.7ZM997.59,829.42l74.58-47.1c7.72,5.82,15.09,12.21,22.04,19.16,6.96,6.96,13.34,14.33,19.16,22.04l-47.1,74.58c-13.01-30.91-37.79-55.69-68.69-68.69ZM997.16,829.01l-19.42-85.97c34.18,4.89,66.31,18.21,93.95,38.91l-74.52,47.06ZM996.57,829c-14.99-6.16-31.39-9.56-48.57-9.56h0c-17.18,0-33.58,3.4-48.57,9.56l19.44-86.05c9.57-1.34,19.3-2.04,29.14-2.04h0c9.84,0,19.56.7,29.14,2.04l19.44,86.05ZM898.82,829.01l-74.52-47.06c27.63-20.71,59.77-34.02,93.95-38.91l-19.42,85.97ZM898.39,829.42c-30.91,13.01-55.69,37.79-68.69,68.69l-47.1-74.58c5.82-7.72,12.21-15.09,19.16-22.04,6.96-6.96,14.33-13.34,22.04-19.16l74.58,47.1ZM829.29,898.54l-85.97,19.42c4.9-34.18,18.21-66.31,38.91-93.95l47.06,74.52ZM829.28,899.13c-6.16,14.99-9.56,31.39-9.56,48.57h0c0,17.18,3.4,33.58,9.56,48.58l-86.05-19.44c-1.34-9.57-2.04-19.3-2.04-29.14h0c0-9.84.69-19.57,2.04-29.14l86.05-19.44ZM829.29,996.88l-47.06,74.52c-20.71-27.63-34.02-59.77-38.91-93.95l85.97,19.42ZM782.27,1072.41c5.8,7.68,12.16,15.01,19.08,21.93,6.92,6.92,14.25,13.28,21.93,19.08l-27.11,17.12-31.02-31.02,17.12-27.11ZM795.68,1130.87l-83.68,52.84,52.84-83.68,30.84,30.84ZM711.07,1184.1l-53.35-84.49,53.35-53.35,53.35,53.35-53.35,84.49ZM710.14,1183.71l-83.68-52.84,30.84-30.84,52.84,83.68ZM710.53,1184.64l-84.49,53.35-53.35-53.35,53.35-53.35,84.49,53.35ZM710.14,1185.56l-52.84,83.68-30.84-30.84,83.68-52.84ZM711.07,1185.18l53.35,84.49-53.35,53.35-53.35-53.35,53.35-84.49ZM711.99,1185.56l83.68,52.84-30.84,30.84-52.84-83.68ZM796.18,1238.72l27.11,17.12c-7.68,5.8-15.01,12.16-21.93,19.08-6.92,6.92-13.28,14.26-19.08,21.93l-17.12-27.11,31.02-31.02ZM829.29,1372.39l-85.97,19.42c4.9-34.18,18.21-66.31,38.91-93.95l47.06,74.52ZM829.28,1372.99c-6.16,14.99-9.56,31.39-9.56,48.57h0c0,17.18,3.4,33.59,9.56,48.58l-86.05-19.44c-1.34-9.57-2.04-19.3-2.04-29.14h0c0-9.84.69-19.57,2.04-29.14l86.05-19.44ZM829.29,1470.73l-47.06,74.52c-20.71-27.63-34.02-59.77-38.91-93.95l85.97,19.42ZM801.77,1567.79c-6.96-6.96-13.34-14.33-19.16-22.04l47.1-74.58c13.01,30.91,37.79,55.69,68.69,68.69l-74.58,47.1c-7.72-5.82-15.09-12.21-22.04-19.16ZM898.82,1540.27l19.42,85.97c-34.18-4.89-66.31-18.21-93.95-38.91l74.52-47.06ZM899.42,1540.28c14.99,6.16,31.39,9.56,48.57,9.56h0c17.18,0,33.58-3.4,48.57-9.56l-19.44,86.05c-9.57,1.34-19.3,2.04-29.14,2.04h0c-9.84,0-19.56-.7-29.14-2.04l-19.44-86.05ZM997.16,1540.27l74.52,47.06c-27.63,20.71-59.77,34.02-93.95,38.91l19.42-85.97ZM997.59,1539.86c30.91-13.01,55.69-37.79,68.69-68.69l47.1,74.58c-5.82,7.72-12.21,15.09-19.16,22.04-6.96,6.96-14.33,13.34-22.04,19.16l-74.58-47.1ZM1066.7,1470.73l85.97-19.42c-4.9,34.18-18.21,66.31-38.91,93.95l-47.06-74.52ZM1066.71,1470.14c6.16-14.99,9.56-31.39,9.56-48.57h0c0-17.18-3.4-33.59-9.56-48.58l86.05,19.44c1.34,9.57,2.04,19.3,2.04,29.14h0c0,9.84-.69,19.57-2.04,29.14l-86.05,19.44ZM1066.7,1372.39l47.06-74.52c20.71,27.63,34.02,59.77,38.91,93.95l-85.97-19.42ZM1113.71,1296.86c-5.8-7.68-12.16-15.01-19.08-21.93-6.92-6.92-14.25-13.28-21.93-19.08l27.11-17.12,31.02,31.02-17.12,27.11ZM1100.31,1238.41l83.68-52.84-52.84,83.68-30.84-30.84ZM1184.92,1185.18l53.35,84.49-53.35,53.35-53.35-53.35,53.35-84.49ZM1185.85,1185.56l83.68,52.84-30.84,30.84-52.84-83.68ZM1185.46,1184.64l84.49-53.35,53.35,53.35-53.35,53.35-84.49-53.35ZM1185.85,1183.71l52.84-83.68,30.84,30.84-83.68,52.84ZM1184.92,1184.1l-53.35-84.49,53.35-53.35,53.35,53.35-53.35,84.49ZM1183.99,1183.71l-83.68-52.84,30.84-30.84,52.84,83.68ZM1099.81,1130.55l-27.11-17.12c7.68-5.8,15.01-12.16,21.93-19.08,6.92-6.92,13.28-14.26,19.08-21.93l17.12,27.11-31.02,31.02ZM1066.7,996.88l85.97-19.42c-4.9,34.18-18.21,66.31-38.91,93.95l-47.06-74.52ZM1066.71,996.28c6.16-14.99,9.56-31.39,9.56-48.57h0c0-17.18-3.4-33.59-9.56-48.58l86.05,19.44c1.34,9.57,2.04,19.3,2.04,29.14h0c0,9.84-.69,19.57-2.04,29.14l-86.05,19.44ZM1066.7,898.54l47.06-74.52c20.71,27.63,34.02,59.77,38.91,93.95l-85.97-19.42ZM1113.71,823c-5.8-7.68-12.16-15.01-19.08-21.93-6.92-6.92-14.25-13.28-21.93-19.08l27.11-17.12,31.02,31.02-17.12,27.11ZM1046.54,710.78l53.35-53.35,84.49,53.35-84.49,53.35-53.35-53.35ZM1100.31,764.55l83.68-52.84-52.84,83.68-30.84-30.84ZM1184.92,711.32l53.35,84.49-53.35,53.35-53.35-53.35,53.35-84.49ZM1185.85,711.71l83.68,52.84-30.84,30.84-52.84-83.68ZM1185.46,710.78l84.49-53.35,53.35,53.35-53.35,53.35-84.49-53.35ZM1185.85,709.86l52.84-83.68,30.84,30.84-83.68,52.84ZM1184.92,710.24l-53.35-84.49,53.35-53.35,53.35,53.35-53.35,84.49ZM1183.99,709.86l-83.68-52.84,30.84-30.84,52.84,83.68ZM1099.81,656.7l-27.11-17.12c7.68-5.8,15.01-12.16,21.93-19.08,6.92-6.92,13.28-14.26,19.08-21.93l17.12,27.11-31.02,31.02ZM1099.39,657.11l-53.67,53.67,53.67,53.67-27.18,17.17c-27.81-20.89-60.17-34.29-94.6-39.19l-7.15-31.65,7.15-31.65c34.43-4.89,66.8-18.3,94.6-39.19l27.18,17.17ZM969.87,710.78l7.13,31.57c-9.53-1.33-19.21-2.01-29-2.01h0c-9.79,0-19.47.69-29,2.01l7.13-31.57-7.13-31.57c9.53,1.33,19.21,2.01,29,2.01h0c9.79,0,19.47-.69,29-2.01l-7.13,31.57ZM925.53,710.78l-7.15,31.65c-34.43,4.89-66.8,18.3-94.6,39.19l-27.18-17.17,53.67-53.67-53.67-53.67,27.18-17.17c27.81,20.89,60.17,34.29,94.6,39.19l7.15,31.65ZM796.18,656.7l-31.02-31.02,17.12-27.11c5.8,7.68,12.16,15.01,19.08,21.93,6.92,6.92,14.25,13.28,21.93,19.08l-27.11,17.12ZM764.73,625.25l-53.67-53.67-53.67,53.67-17.17-27.18c20.89-27.81,34.29-60.17,39.19-94.6l31.65-7.15,31.65,7.15c4.89,34.43,18.3,66.8,39.19,94.6l-17.17,27.18ZM656.98,625.67l-31.02,31.02-27.11-17.12c7.68-5.8,15.01-12.16,21.93-19.08,6.92-6.92,13.28-14.26,19.08-21.93l17.12,27.11ZM625.54,657.11l-53.67,53.67,53.67,53.67-27.18,17.17c-27.81-20.89-60.17-34.29-94.6-39.19l-7.15-31.65,7.15-31.65c34.43-4.89,66.8-18.3,94.6-39.19l27.18,17.17ZM625.96,764.87l31.02,31.02-17.12,27.11c-5.8-7.68-12.16-15.01-19.08-21.93-6.92-6.92-14.25-13.28-21.93-19.08l27.11-17.12ZM657.4,796.31l53.67,53.67,53.67-53.67,17.17,27.18c-20.89,27.81-34.29,60.17-39.19,94.6l-31.65,7.15-31.65-7.15c-4.89-34.43-18.3-66.8-39.19-94.6l17.17-27.18ZM711.07,970.17l31.65,7.15c4.89,34.43,18.3,66.8,39.19,94.6l-17.17,27.18-53.67-53.67-53.67,53.67-17.17-27.18c20.89-27.81,34.29-60.17,39.19-94.6l31.65-7.15ZM656.98,1099.53l-31.02,31.02-27.11-17.12c7.68-5.8,15.01-12.16,21.93-19.08,6.92-6.92,13.28-14.26,19.08-21.93l17.12,27.11ZM625.54,1130.97l-53.67,53.67,53.67,53.67-27.18,17.17c-27.81-20.89-60.17-34.29-94.6-39.19l-7.15-31.65,7.15-31.65c34.43-4.89,66.8-18.3,94.6-39.19l27.18,17.17ZM625.96,1238.72l31.02,31.02-17.12,27.11c-5.8-7.68-12.16-15.01-19.08-21.93-6.92-6.92-14.25-13.28-21.93-19.08l27.11-17.12ZM657.4,1270.17l53.67,53.67,53.67-53.67,17.17,27.18c-20.89,27.81-34.29,60.17-39.19,94.6l-31.65,7.15-31.65-7.15c-4.89-34.43-18.3-66.8-39.19-94.6l17.17-27.18ZM711.07,1444.03l31.65,7.15c4.89,34.43,18.3,66.8,39.19,94.6l-17.17,27.18-53.67-53.67-53.67,53.67-17.17-27.18c20.89-27.81,34.29-60.17,39.19-94.6l31.65-7.15ZM656.98,1573.38l-31.02,31.02-27.11-17.12c7.68-5.8,15.01-12.16,21.93-19.08,6.92-6.92,13.28-14.26,19.08-21.93l17.12,27.11ZM625.54,1604.82l-53.67,53.67,53.67,53.67-27.18,17.17c-27.81-20.89-60.17-34.29-94.6-39.19l-7.15-31.65,7.15-31.65c34.43-4.89,66.8-18.3,94.6-39.19l27.18,17.17ZM625.96,1712.58l31.02,31.02-17.12,27.11c-5.8-7.68-12.16-15.01-19.08-21.93-6.92-6.92-14.25-13.28-21.93-19.08l27.11-17.12ZM657.4,1744.02l53.67,53.67,53.67-53.67,17.17,27.18c-20.89,27.81-34.29,60.17-39.19,94.6l-31.65,7.15-31.65-7.15c-4.89-34.43-18.3-66.8-39.19-94.6l17.17-27.18ZM765.15,1743.6l31.02-31.02,27.11,17.12c-7.68,5.8-15.01,12.16-21.93,19.08-6.92,6.92-13.28,14.26-19.08,21.93l-17.12-27.11ZM796.6,1712.16l53.67-53.67-53.67-53.67,27.18-17.17c27.81,20.89,60.17,34.29,94.6,39.19l7.15,31.65-7.15,31.65c-34.43,4.89-66.8,18.3-94.6,39.19l-27.18-17.17ZM926.12,1658.49l-7.13-31.57c9.53,1.33,19.21,2.01,29,2.01h0c9.79,0,19.47-.69,29-2.01l-7.13,31.57,7.13,31.57c-9.53-1.33-19.21-2.01-29-2.01h0c-9.79,0-19.47.69-29,2.01l7.13-31.57ZM970.46,1658.49l7.15-31.65c34.43-4.89,66.8-18.3,94.6-39.19l27.18,17.17-53.67,53.67,53.67,53.67-27.18,17.17c-27.81-20.89-60.17-34.29-94.6-39.19l-7.15-31.65ZM1099.81,1712.58l31.02,31.02-17.12,27.11c-5.8-7.68-12.16-15.01-19.08-21.93-6.92-6.92-14.25-13.28-21.93-19.08l27.11-17.12ZM1131.25,1744.02l53.67,53.67,53.67-53.67,17.17,27.18c-20.89,27.81-34.29,60.17-39.19,94.6l-31.65,7.15-31.65-7.15c-4.89-34.43-18.3-66.8-39.19-94.6l17.17-27.18ZM1239.01,1743.6l31.02-31.02,27.11,17.12c-7.68,5.8-15.01,12.16-21.93,19.08-6.92,6.92-13.28,14.26-19.08,21.93l-17.12-27.11ZM1270.45,1712.16l53.67-53.67-53.67-53.67,27.18-17.17c27.81,20.89,60.17,34.29,94.6,39.19l7.15,31.65-7.15,31.65c-34.43,4.89-66.8,18.3-94.6,39.19l-27.18-17.17ZM1270.03,1604.4l-31.02-31.02,17.12-27.11c5.8,7.68,12.16,15.01,19.08,21.93,6.92,6.92,14.25,13.28,21.93,19.08l-27.11,17.12ZM1238.59,1572.96l-53.67-53.67-53.67,53.67-17.17-27.18c20.89-27.81,34.29-60.17,39.19-94.6l31.65-7.15,31.65,7.15c4.89,34.43,18.3,66.8,39.19,94.6l-17.17,27.18ZM1184.92,1399.1l-31.65-7.15c-4.89-34.43-18.3-66.8-39.19-94.6l17.17-27.18,53.67,53.67,53.67-53.67,17.17,27.18c-20.89,27.81-34.29,60.17-39.19,94.6l-31.65,7.15ZM1239.01,1269.75l31.02-31.02,27.11,17.12c-7.68,5.8-15.01,12.16-21.93,19.08-6.92,6.92-13.28,14.26-19.08,21.93l-17.12-27.11ZM1270.45,1238.3l53.67-53.67-53.67-53.67,27.18-17.17c27.81,20.89,60.17,34.29,94.6,39.19l7.15,31.65-7.15,31.65c-34.43,4.89-66.8,18.3-94.6,39.19l-27.18-17.17ZM1270.03,1130.55l-31.02-31.02,17.12-27.11c5.8,7.68,12.16,15.01,19.08,21.93,6.92,6.92,14.25,13.28,21.93,19.08l-27.11,17.12ZM1238.59,1099.11l-53.67-53.67-53.67,53.67-17.17-27.18c20.89-27.81,34.29-60.17,39.19-94.6l31.65-7.15,31.65,7.15c4.89,34.43,18.3,66.8,39.19,94.6l-17.17,27.18ZM1184.92,925.24l-31.65-7.15c-4.89-34.43-18.3-66.8-39.19-94.6l17.17-27.18,53.67,53.67,53.67-53.67,17.17,27.18c-20.89,27.81-34.29,60.17-39.19,94.6l-31.65,7.15ZM1239.01,795.89l31.02-31.02,27.11,17.12c-7.68,5.8-15.01,12.16-21.93,19.08-6.92,6.92-13.28,14.26-19.08,21.93l-17.12-27.11ZM1270.45,764.45l53.67-53.67-53.67-53.67,27.18-17.17c27.81,20.89,60.17,34.29,94.6,39.19l7.15,31.65-7.15,31.65c-34.43,4.89-66.8,18.3-94.6,39.19l-27.18-17.17ZM1270.03,656.7l-31.02-31.02,17.12-27.11c5.8,7.68,12.16,15.01,19.08,21.93,6.92,6.92,14.25,13.28,21.93,19.08l-27.11,17.12ZM1238.59,625.25l-53.67-53.67-53.67,53.67-17.17-27.18c20.89-27.81,34.29-60.17,39.19-94.6l31.65-7.15,31.65,7.15c4.89,34.43,18.3,66.8,39.19,94.6l-17.17,27.18ZM1152.67,503.6c-4.9,34.18-18.21,66.31-38.91,93.95l-47.06-74.52,85.97-19.42ZM1113.39,598.04c-5.82,7.72-12.21,15.09-19.16,22.04-6.96,6.96-14.33,13.34-22.04,19.16l-74.58-47.1c30.91-13.01,55.69-37.79,68.69-68.69l47.1,74.58ZM1071.69,639.62c-27.63,20.71-59.77,34.02-93.95,38.91l19.42-85.97,74.52,47.06ZM977.13,678.62c-9.57,1.34-19.3,2.04-29.14,2.04h0c-9.84,0-19.56-.7-29.14-2.04l-19.44-86.05c14.99,6.16,31.39,9.56,48.57,9.56h0c17.18,0,33.58-3.4,48.57-9.56l-19.44,86.05ZM918.24,678.53c-34.18-4.89-66.31-18.21-93.95-38.91l74.52-47.06,19.42,85.97ZM823.81,639.25c-7.72-5.82-15.09-12.21-22.04-19.16-6.96-6.96-13.34-14.33-19.16-22.04l47.1-74.58c13.01,30.91,37.79,55.69,68.69,68.69l-74.58,47.1ZM782.23,597.55c-20.71-27.63-34.02-59.77-38.91-93.95l85.97,19.42-47.06,74.52ZM740.62,473.85h0c0,9.79.69,19.47,2.01,29l-31.56-7.13-31.56,7.13c1.33-9.53,2.01-19.21,2.01-29h0c0-9.79-.69-19.47-2.01-29l31.56,7.13,31.56-7.13c-1.33,9.53-2.01,19.21-2.01,29ZM678.82,503.6c-4.9,34.18-18.21,66.31-38.91,93.95l-47.06-74.52,85.97-19.42ZM639.53,598.04c-5.82,7.72-12.21,15.09-19.16,22.04-6.96,6.96-14.33,13.34-22.04,19.16l-74.58-47.1c30.91-13.01,55.69-37.79,68.69-68.69l47.1,74.58ZM597.83,639.62c-27.63,20.71-59.77,34.02-93.95,38.91l19.42-85.97,74.52,47.06ZM474.14,681.23h0c9.79,0,19.47-.69,29-2.01l-7.13,31.57,7.13,31.57c-9.53-1.33-19.21-2.01-29-2.01h0c-9.79,0-19.47.69-29,2.01l7.13-31.57-7.13-31.57c9.53,1.33,19.21,2.01,29,2.01ZM503.89,743.03c34.18,4.89,66.31,18.21,93.95,38.91l-74.52,47.06-19.42-85.97ZM598.32,782.32c7.72,5.82,15.09,12.21,22.04,19.16,6.96,6.96,13.34,14.33,19.16,22.04l-47.1,74.58c-13.01-30.91-37.79-55.69-68.69-68.69l74.58-47.1ZM639.9,824.01c20.71,27.63,34.02,59.77,38.91,93.95l-85.97-19.42,47.06-74.52ZM678.82,977.46c-4.9,34.18-18.21,66.31-38.91,93.95l-47.06-74.52,85.97-19.42ZM639.53,1071.89c-5.82,7.72-12.21,15.09-19.16,22.04-6.96,6.96-14.33,13.34-22.04,19.16l-74.58-47.1c30.91-13.01,55.69-37.79,68.69-68.69l47.1,74.58ZM597.83,1113.47c-27.63,20.71-59.77,34.02-93.95,38.91l19.42-85.97,74.52,47.06ZM474.14,1155.08h0c9.79,0,19.47-.69,29-2.01l-7.13,31.57,7.13,31.57c-9.53-1.33-19.21-2.01-29-2.01h0c-9.79,0-19.47.69-29,2.01l7.13-31.57-7.13-31.57c9.53,1.33,19.21,2.01,29,2.01ZM503.89,1216.89c34.18,4.89,66.31,18.21,93.95,38.91l-74.52,47.06-19.42-85.97ZM598.32,1256.17c7.72,5.82,15.09,12.21,22.04,19.16,6.96,6.96,13.34,14.33,19.16,22.04l-47.1,74.58c-13.01-30.91-37.79-55.69-68.69-68.69l74.58-47.1ZM639.9,1297.87c20.71,27.63,34.02,59.77,38.91,93.95l-85.97-19.42,47.06-74.52ZM678.82,1451.31c-4.9,34.18-18.21,66.31-38.91,93.95l-47.06-74.52,85.97-19.42ZM639.53,1545.75c-5.82,7.72-12.21,15.09-19.16,22.04-6.96,6.96-14.33,13.34-22.04,19.16l-74.58-47.1c30.91-13.01,55.69-37.79,68.69-68.69l47.1,74.58ZM597.83,1587.33c-27.63,20.71-59.77,34.02-93.95,38.91l19.42-85.97,74.52,47.06ZM474.14,1628.94h0c9.79,0,19.47-.69,29-2.01l-7.13,31.57,7.13,31.57c-9.53-1.33-19.21-2.01-29-2.01h0c-9.79,0-19.47.69-29,2.01l7.13-31.57-7.13-31.57c9.53,1.33,19.21,2.01,29,2.01ZM503.89,1690.74c34.18,4.89,66.31,18.21,93.95,38.91l-74.52,47.06-19.42-85.97ZM598.32,1730.03c7.72,5.82,15.09,12.21,22.04,19.16,6.96,6.96,13.34,14.33,19.16,22.04l-47.1,74.58c-13.01-30.91-37.79-55.69-68.69-68.69l74.58-47.1ZM639.9,1771.72c20.71,27.63,34.02,59.77,38.91,93.95l-85.97-19.42,47.06-74.52ZM681.51,1895.42h0c0-9.79-.69-19.47-2.01-29l31.56,7.13,31.56-7.13c-1.33,9.53-2.01,19.21-2.01,29h0c0,9.79.69,19.47,2.01,29l-31.56-7.13-31.56,7.13c1.33-9.53,2.01-19.21,2.01-29ZM743.31,1865.67c4.9-34.18,18.21-66.31,38.91-93.95l47.06,74.52-85.97,19.42ZM782.6,1771.23c5.82-7.72,12.21-15.09,19.16-22.04,6.96-6.96,14.33-13.34,22.04-19.16l74.58,47.1c-30.91,13.01-55.69,37.79-68.69,68.69l-47.1-74.58ZM824.3,1729.65c27.63-20.71,59.77-34.02,93.95-38.91l-19.42,85.97-74.52-47.06ZM918.85,1690.66c9.57-1.34,19.3-2.04,29.14-2.04h0c9.84,0,19.56.7,29.14,2.04l19.44,86.05c-14.99-6.16-31.39-9.56-48.57-9.56h0c-17.18,0-33.58,3.4-48.57,9.56l19.44-86.05ZM977.74,1690.74c34.18,4.89,66.31,18.21,93.95,38.91l-74.52,47.06-19.42-85.97ZM1072.18,1730.03c7.72,5.82,15.09,12.21,22.04,19.16,6.96,6.96,13.34,14.33,19.16,22.04l-47.1,74.58c-13.01-30.91-37.79-55.69-68.69-68.69l74.58-47.1ZM1113.76,1771.72c20.71,27.63,34.02,59.77,38.91,93.95l-85.97-19.42,47.06-74.52ZM1155.37,1895.42h0c0-9.79-.69-19.47-2.01-29l31.56,7.13,31.56-7.13c-1.33,9.53-2.01,19.21-2.01,29h0c0,9.79.69,19.47,2.01,29l-31.56-7.13-31.56,7.13c1.33-9.53,2.01-19.21,2.01-29ZM1217.17,1865.67c4.9-34.18,18.21-66.31,38.91-93.95l47.06,74.52-85.97,19.42ZM1256.46,1771.23c5.82-7.72,12.21-15.09,19.16-22.04,6.96-6.96,14.33-13.34,22.04-19.16l74.58,47.1c-30.91,13.01-55.69,37.79-68.69,68.69l-47.1-74.58ZM1298.15,1729.65c27.63-20.71,59.77-34.02,93.95-38.91l-19.42,85.97-74.52-47.06ZM1421.85,1688.04h0c-9.79,0-19.47.69-29,2.01l7.13-31.57-7.13-31.57c9.53,1.33,19.21,2.01,29,2.01h0c9.79,0,19.47-.69,29-2.01l-7.13,31.57,7.13,31.57c-9.53-1.33-19.21-2.01-29-2.01ZM1392.1,1626.24c-34.18-4.89-66.31-18.21-93.95-38.91l74.52-47.06,19.42,85.97ZM1297.66,1586.95c-7.72-5.82-15.09-12.21-22.04-19.16-6.96-6.96-13.34-14.33-19.16-22.04l47.1-74.58c13.01,30.91,37.79,55.69,68.69,68.69l-74.58,47.1ZM1256.08,1545.26c-20.71-27.63-34.02-59.77-38.91-93.95l85.97,19.42-47.06,74.52ZM1217.17,1391.81c4.9-34.18,18.21-66.31,38.91-93.95l47.06,74.52-85.97,19.42ZM1256.46,1297.38c5.82-7.72,12.21-15.09,19.16-22.04,6.96-6.96,14.33-13.34,22.04-19.16l74.58,47.1c-30.91,13.01-55.69,37.79-68.69,68.69l-47.1-74.58ZM1298.15,1255.8c27.63-20.71,59.77-34.02,93.95-38.91l-19.42,85.97-74.52-47.06ZM1421.85,1214.19h0c-9.79,0-19.47.69-29,2.01l7.13-31.57-7.13-31.57c9.53,1.33,19.21,2.01,29,2.01h0c9.79,0,19.47-.69,29-2.01l-7.13,31.57,7.13,31.57c-9.53-1.33-19.21-2.01-29-2.01ZM1392.1,1152.39c-34.18-4.89-66.31-18.21-93.95-38.91l74.52-47.06,19.42,85.97ZM1297.66,1113.1c-7.72-5.82-15.09-12.21-22.04-19.16-6.96-6.96-13.34-14.33-19.16-22.04l47.1-74.58c13.01,30.91,37.79,55.69,68.69,68.69l-74.58,47.1ZM1256.08,1071.4c-20.71-27.63-34.02-59.77-38.91-93.95l85.97,19.42-47.06,74.52ZM1217.17,917.96c4.9-34.18,18.21-66.31,38.91-93.95l47.06,74.52-85.97,19.42ZM1256.46,823.52c5.82-7.72,12.21-15.09,19.16-22.04,6.96-6.96,14.33-13.34,22.04-19.16l74.58,47.1c-30.91,13.01-55.69,37.79-68.69,68.69l-47.1-74.58ZM1298.15,781.94c27.63-20.71,59.77-34.02,93.95-38.91l-19.42,85.97-74.52-47.06ZM1421.85,740.33h0c-9.79,0-19.47.69-29,2.01l7.13-31.57-7.13-31.57c9.53,1.33,19.21,2.01,29,2.01h0c9.79,0,19.47-.69,29-2.01l-7.13,31.57,7.13,31.57c-9.53-1.33-19.21-2.01-29-2.01ZM1392.1,678.53c-34.18-4.89-66.31-18.21-93.95-38.91l74.52-47.06,19.42,85.97ZM1297.66,639.25c-7.72-5.82-15.09-12.21-22.04-19.16-6.96-6.96-13.34-14.33-19.16-22.04l47.1-74.58c13.01,30.91,37.79,55.69,68.69,68.69l-74.58,47.1ZM1256.08,597.55c-20.71-27.63-34.02-59.77-38.91-93.95l85.97,19.42-47.06,74.52ZM1217.17,444.11c4.9-34.18,18.21-66.31,38.91-93.95l47.06,74.52-85.97,19.42ZM1152.67,444.11l-85.97-19.42,47.06-74.52c20.71,27.63,34.02,59.77,38.91,93.95ZM1075.69,473.85h0c0,70.41-57.28,127.7-127.7,127.7h0c-70.41,0-127.7-57.28-127.7-127.7h0c0-70.41,57.28-127.7,127.7-127.7h0c70.41,0,127.7,57.28,127.7,127.7ZM743.31,444.11c4.9-34.18,18.21-66.31,38.91-93.95l47.06,74.52-85.97,19.42ZM678.82,444.11l-85.97-19.42,47.06-74.52c20.71,27.63,34.02,59.77,38.91,93.95ZM601.84,473.85h0c0,70.41-57.28,127.7-127.7,127.7h0c-70.41,0-127.7-57.28-127.7-127.7h0c0-70.41,57.28-127.7,127.7-127.7h0c70.41,0,127.7,57.28,127.7,127.7ZM424.54,592.15l-74.58,47.1c-7.72-5.82-15.09-12.21-22.04-19.16-6.96-6.96-13.34-14.33-19.16-22.04l47.1-74.58c13.01,30.91,37.79,55.69,68.69,68.69ZM349.95,782.32l74.58,47.1c-30.91,13.01-55.69,37.79-68.69,68.69l-47.1-74.58c5.82-7.72,12.21-15.09,19.16-22.04,6.96-6.96,14.33-13.34,22.04-19.16ZM474.14,820.01h0c70.41,0,127.7,57.28,127.7,127.7h0c0,70.41-57.28,127.7-127.7,127.7h0c-70.41,0-127.7-57.28-127.7-127.7h0c0-70.41,57.28-127.7,127.7-127.7ZM424.54,1066l-74.58,47.1c-7.72-5.82-15.09-12.21-22.04-19.16-6.96-6.96-13.34-14.33-19.16-22.04l47.1-74.58c13.01,30.91,37.79,55.69,68.69,68.69ZM349.95,1256.17l74.58,47.1c-30.91,13.01-55.69,37.79-68.69,68.69l-47.1-74.58c5.82-7.72,12.21-15.09,19.16-22.04,6.96-6.96,14.33-13.34,22.04-19.16ZM474.14,1293.87h0c70.41,0,127.7,57.28,127.7,127.7h0c0,70.41-57.28,127.7-127.7,127.7h0c-70.41,0-127.7-57.28-127.7-127.7h0c0-70.41,57.28-127.7,127.7-127.7ZM424.54,1539.86l-74.58,47.1c-7.72-5.82-15.09-12.21-22.04-19.16-6.96-6.96-13.34-14.33-19.16-22.04l47.1-74.58c13.01,30.91,37.79,55.69,68.69,68.69ZM349.95,1730.03l74.58,47.1c-30.91,13.01-55.69,37.79-68.69,68.69l-47.1-74.58c5.82-7.72,12.21-15.09,19.16-22.04,6.96-6.96,14.33-13.34,22.04-19.16ZM474.14,1767.72h0c70.41,0,127.7,57.28,127.7,127.7h0c0,70.41-57.28,127.7-127.7,127.7h0c-70.41,0-127.7-57.28-127.7-127.7h0c0-70.41,57.28-127.7,127.7-127.7ZM678.82,1925.17c-4.9,34.18-18.21,66.31-38.91,93.95l-47.06-74.52,85.97-19.42ZM743.31,1925.17l85.97,19.42-47.06,74.52c-20.71-27.63-34.02-59.77-38.91-93.95ZM820.3,1895.42h0c0-70.41,57.28-127.7,127.7-127.7h0c70.41,0,127.7,57.28,127.7,127.7h0c0,70.41-57.28,127.7-127.7,127.7h0c-70.41,0-127.7-57.28-127.7-127.7ZM1152.67,1925.17c-4.9,34.18-18.21,66.31-38.91,93.95l-47.06-74.52,85.97-19.42ZM1217.17,1925.17l85.97,19.42-47.06,74.52c-20.71-27.63-34.02-59.77-38.91-93.95ZM1294.15,1895.42h0c0-70.41,57.28-127.7,127.7-127.7h0c70.41,0,127.7,57.28,127.7,127.7h0c0,70.41-57.28,127.7-127.7,127.7h0c-70.41,0-127.7-57.28-127.7-127.7ZM1471.45,1777.12l74.58-47.1c7.72,5.82,15.09,12.21,22.04,19.16,6.96,6.96,13.34,14.33,19.16,22.04l-47.1,74.58c-13.01-30.91-37.79-55.69-68.69-68.69ZM1546.03,1586.95l-74.58-47.1c30.91-13.01,55.69-37.79,68.69-68.69l47.1,74.58c-5.82,7.72-12.21,15.09-19.16,22.04-6.96,6.96-14.33,13.34-22.04,19.16ZM1421.85,1549.26h0c-70.41,0-127.7-57.28-127.7-127.7h0c0-70.41,57.28-127.7,127.7-127.7h0c70.41,0,127.7,57.28,127.7,127.7h0c0,70.41-57.28,127.7-127.7,127.7ZM1471.45,1303.27l74.58-47.1c7.72,5.82,15.09,12.21,22.04,19.16,6.96,6.96,13.34,14.33,19.16,22.04l-47.1,74.58c-13.01-30.91-37.79-55.69-68.69-68.69ZM1546.03,1113.1l-74.58-47.1c30.91-13.01,55.69-37.79,68.69-68.69l47.1,74.58c-5.82,7.72-12.21,15.09-19.16,22.04-6.96,6.96-14.33,13.34-22.04,19.16ZM1421.85,1075.41h0c-70.41,0-127.7-57.28-127.7-127.7h0c0-70.41,57.28-127.7,127.7-127.7h0c70.41,0,127.7,57.28,127.7,127.7h0c0,70.41-57.28,127.7-127.7,127.7ZM1471.45,829.42l74.58-47.1c7.72,5.82,15.09,12.21,22.04,19.16,6.96,6.96,13.34,14.33,19.16,22.04l-47.1,74.58c-13.01-30.91-37.79-55.69-68.69-68.69ZM1546.03,639.25l-74.58-47.1c30.91-13.01,55.69-37.79,68.69-68.69l47.1,74.58c-5.82,7.72-12.21,15.09-19.16,22.04-6.96,6.96-14.33,13.34-22.04,19.16ZM1421.85,601.55h0c-70.41,0-127.7-57.28-127.7-127.7h0c0-70.41,57.28-127.7,127.7-127.7h0c70.41,0,127.7,57.28,127.7,127.7h0c0,70.41-57.28,127.7-127.7,127.7ZM1471.45,355.56l74.58-47.1c7.72,5.82,15.09,12.21,22.04,19.16,6.96,6.96,13.34,14.33,19.16,22.04l-47.1,74.58c-13.01-30.91-37.79-55.69-68.69-68.69ZM1471.02,355.15l-19.42-85.97c34.18,4.89,66.31,18.21,93.95,38.91l-74.52,47.06ZM1470.42,355.14c-14.99-6.16-31.39-9.56-48.57-9.56h0c-17.18,0-33.58,3.4-48.57,9.56l19.44-86.05c9.57-1.34,19.3-2.04,29.14-2.04h0c9.84,0,19.56.7,29.14,2.04l19.44,86.05ZM1372.68,355.15l-74.52-47.06c27.63-20.71,59.77-34.02,93.95-38.91l-19.42,85.97ZM1372.25,355.56c-30.91,13.01-55.69,37.79-68.69,68.69l-47.1-74.58c5.82-7.72,12.21-15.09,19.16-22.04,6.96-6.96,14.33-13.34,22.04-19.16l74.58,47.1ZM1275.21,327.22c-6.92,6.92-13.28,14.26-19.08,21.93l-17.12-27.11,31.02-31.02,27.11,17.12c-7.68,5.8-15.01,12.16-21.93,19.08ZM1269.95,290.28l-84.49-53.35,84.49-53.35,53.35,53.35-53.35,53.35ZM1238.27,321.96l-53.35,53.35-53.35-53.35,53.35-84.49,53.35,84.49ZM1099.89,290.28l-53.35-53.35,53.35-53.35,84.49,53.35-84.49,53.35ZM1130.83,322.04l-17.12,27.11c-5.8-7.68-12.16-15.01-19.08-21.93-6.92-6.92-14.25-13.28-21.93-19.08l27.11-17.12,31.02,31.02ZM1094.22,327.63c6.96,6.96,13.34,14.33,19.16,22.04l-47.1,74.58c-13.01-30.91-37.79-55.69-68.69-68.69l74.58-47.1c7.72,5.82,15.09,12.21,22.04,19.16ZM997.16,355.15l-19.42-85.97c34.18,4.89,66.31,18.21,93.95,38.91l-74.52,47.06ZM996.57,355.14c-14.99-6.16-31.39-9.56-48.57-9.56h0c-17.18,0-33.58,3.4-48.57,9.56l19.44-86.05c9.57-1.34,19.3-2.04,29.14-2.04h0c9.84,0,19.56.7,29.14,2.04l19.44,86.05ZM898.82,355.15l-74.52-47.06c27.63-20.71,59.77-34.02,93.95-38.91l-19.42,85.97ZM898.39,355.56c-30.91,13.01-55.69,37.79-68.69,68.69l-47.1-74.58c5.82-7.72,12.21-15.09,19.16-22.04,6.96-6.96,14.33-13.34,22.04-19.16l74.58,47.1ZM801.36,327.22c-6.92,6.92-13.28,14.26-19.08,21.93l-17.12-27.11,31.02-31.02,27.11,17.12c-7.68,5.8-15.01,12.16-21.93,19.08ZM796.09,290.28l-84.49-53.35,84.49-53.35,53.35,53.35-53.35,53.35ZM764.42,321.96l-53.35,53.35-53.35-53.35,53.35-84.49,53.35,84.49ZM626.04,290.28l-53.35-53.35,53.35-53.35,84.49,53.35-84.49,53.35ZM656.98,322.04l-17.12,27.11c-5.8-7.68-12.16-15.01-19.08-21.93-6.92-6.92-14.25-13.28-21.93-19.08l27.11-17.12,31.02,31.02ZM620.37,327.63c6.96,6.96,13.34,14.33,19.16,22.04l-47.1,74.58c-13.01-30.91-37.79-55.69-68.69-68.69l74.58-47.1c7.72,5.82,15.09,12.21,22.04,19.16ZM523.31,355.15l-19.42-85.97c34.18,4.89,66.31,18.21,93.95,38.91l-74.52,47.06ZM522.71,355.14c-14.99-6.16-31.39-9.56-48.57-9.56h0c-17.18,0-33.58,3.4-48.57,9.56l19.44-86.05c9.57-1.34,19.3-2.04,29.14-2.04h0c9.84,0,19.56.7,29.14,2.04l19.44,86.05ZM424.97,355.15l-74.52-47.06c27.63-20.71,59.77-34.02,93.95-38.91l-19.42,85.97ZM424.54,355.56c-30.91,13.01-55.69,37.79-68.69,68.69l-47.1-74.58c5.82-7.72,12.21-15.09,19.16-22.04,6.96-6.96,14.33-13.34,22.04-19.16l74.58,47.1ZM355.43,424.69l-85.97,19.42c4.9-34.18,18.21-66.31,38.91-93.95l47.06,74.52ZM355.43,425.28c-6.16,14.99-9.56,31.39-9.56,48.57h0c0,17.18,3.4,33.59,9.56,48.58l-86.05-19.44c-1.34-9.57-2.04-19.3-2.04-29.14h0c0-9.84.69-19.57,2.04-29.14l86.05-19.44ZM355.43,523.02l-47.06,74.52c-20.71-27.63-34.02-59.77-38.91-93.95l85.97,19.42ZM308.42,598.56c5.8,7.68,12.16,15.01,19.08,21.93,6.92,6.92,14.25,13.28,21.93,19.08l-27.11,17.12-31.02-31.02,17.12-27.11ZM321.82,657.01l-83.68,52.84,52.84-83.68,30.84,30.84ZM238.14,711.71l83.68,52.84-30.84,30.84-52.84-83.68ZM322.32,764.87l27.11,17.12c-7.68,5.8-15.01,12.16-21.93,19.08-6.92,6.92-13.28,14.26-19.08,21.93l-17.12-27.11,31.02-31.02ZM355.43,898.54l-85.97,19.42c4.9-34.18,18.21-66.31,38.91-93.95l47.06,74.52ZM355.43,899.13c-6.16,14.99-9.56,31.39-9.56,48.57h0c0,17.18,3.4,33.58,9.56,48.58l-86.05-19.44c-1.34-9.57-2.04-19.3-2.04-29.14h0c0-9.84.69-19.57,2.04-29.14l86.05-19.44ZM355.43,996.88l-47.06,74.52c-20.71-27.63-34.02-59.77-38.91-93.95l85.97,19.42ZM308.42,1072.41c5.8,7.68,12.16,15.01,19.08,21.93,6.92,6.92,14.25,13.28,21.93,19.08l-27.11,17.12-31.02-31.02,17.12-27.11ZM321.82,1130.87l-83.68,52.84,52.84-83.68,30.84,30.84ZM238.14,1185.56l83.68,52.84-30.84,30.84-52.84-83.68ZM322.32,1238.72l27.11,17.12c-7.68,5.8-15.01,12.16-21.93,19.08-6.92,6.92-13.28,14.26-19.08,21.93l-17.12-27.11,31.02-31.02ZM355.43,1372.39l-85.97,19.42c4.9-34.18,18.21-66.31,38.91-93.95l47.06,74.52ZM355.43,1372.99c-6.16,14.99-9.56,31.39-9.56,48.57h0c0,17.18,3.4,33.59,9.56,48.58l-86.05-19.44c-1.34-9.57-2.04-19.3-2.04-29.14h0c0-9.84.69-19.57,2.04-29.14l86.05-19.44ZM355.43,1470.73l-47.06,74.52c-20.71-27.63-34.02-59.77-38.91-93.95l85.97,19.42ZM308.42,1546.27c5.8,7.68,12.16,15.01,19.08,21.93,6.92,6.92,14.25,13.28,21.93,19.08l-27.11,17.12-31.02-31.02,17.12-27.11ZM321.82,1604.72l-83.68,52.84,52.84-83.68,30.84,30.84ZM238.14,1659.42l83.68,52.84-30.84,30.84-52.84-83.68ZM322.32,1712.58l27.11,17.12c-7.68,5.8-15.01,12.16-21.93,19.08-6.92,6.92-13.28,14.26-19.08,21.93l-17.12-27.11,31.02-31.02ZM355.43,1846.25l-85.97,19.42c4.9-34.18,18.21-66.31,38.91-93.95l47.06,74.52ZM355.43,1846.84c-6.16,14.99-9.56,31.39-9.56,48.57h0c0,17.18,3.4,33.59,9.56,48.58l-86.05-19.44c-1.34-9.57-2.04-19.3-2.04-29.14h0c0-9.84.69-19.57,2.04-29.14l86.05-19.44ZM355.43,1944.59l-47.06,74.52c-20.71-27.63-34.02-59.77-38.91-93.95l85.97,19.42ZM327.91,2041.65c-6.96-6.96-13.34-14.33-19.16-22.04l47.1-74.58c13.01,30.91,37.79,55.69,68.69,68.69l-74.58,47.1c-7.72-5.82-15.09-12.21-22.04-19.16ZM424.97,2014.12l19.42,85.97c-34.18-4.89-66.31-18.21-93.95-38.91l74.52-47.06ZM425.56,2014.13c14.99,6.16,31.39,9.56,48.57,9.56h0c17.18,0,33.58-3.4,48.57-9.56l-19.44,86.05c-9.57,1.34-19.3,2.04-29.14,2.04h0c-9.84,0-19.56-.7-29.14-2.04l-19.44-86.05ZM523.31,2014.12l74.52,47.06c-27.63,20.71-59.77,34.02-93.95,38.91l19.42-85.97ZM523.74,2013.71c30.91-13.01,55.69-37.79,68.69-68.69l47.1,74.58c-5.82,7.72-12.21,15.09-19.16,22.04-6.96,6.96-14.33,13.34-22.04,19.16l-74.58-47.1ZM620.78,2042.05c6.92-6.92,13.28-14.26,19.08-21.93l17.12,27.11-31.02,31.02-27.11-17.12c7.68-5.8,15.01-12.16,21.93-19.08ZM626.04,2078.99l84.49,53.35-84.49,53.35-53.35-53.35,53.35-53.35ZM657.71,2047.32l53.35-53.35,53.35,53.35-53.35,84.49-53.35-84.49ZM796.09,2078.99l53.35,53.35-53.35,53.35-84.49-53.35,84.49-53.35ZM765.15,2047.23l17.12-27.11c5.8,7.68,12.16,15.01,19.08,21.93,6.92,6.92,14.25,13.28,21.93,19.08l-27.11,17.12-31.02-31.02ZM801.77,2041.65c-6.96-6.96-13.34-14.33-19.16-22.04l47.1-74.58c13.01,30.91,37.79,55.69,68.69,68.69l-74.58,47.1c-7.72-5.82-15.09-12.21-22.04-19.16ZM898.82,2014.12l19.42,85.97c-34.18-4.89-66.31-18.21-93.95-38.91l74.52-47.06ZM899.42,2014.13c14.99,6.16,31.39,9.56,48.57,9.56h0c17.18,0,33.58-3.4,48.57-9.56l-19.44,86.05c-9.57,1.34-19.3,2.04-29.14,2.04h0c-9.84,0-19.56-.7-29.14-2.04l-19.44-86.05ZM997.16,2014.12l74.52,47.06c-27.63,20.71-59.77,34.02-93.95,38.91l19.42-85.97ZM997.59,2013.71c30.91-13.01,55.69-37.79,68.69-68.69l47.1,74.58c-5.82,7.72-12.21,15.09-19.16,22.04-6.96,6.96-14.33,13.34-22.04,19.16l-74.58-47.1ZM1094.63,2042.05c6.92-6.92,13.28-14.26,19.08-21.93l17.12,27.11-31.02,31.02-27.11-17.12c7.68-5.8,15.01-12.16,21.93-19.08ZM1099.89,2078.99l84.49,53.35-84.49,53.35-53.35-53.35,53.35-53.35ZM1131.57,2047.32l53.35-53.35,53.35,53.35-53.35,84.49-53.35-84.49ZM1269.95,2078.99l53.35,53.35-53.35,53.35-84.49-53.35,84.49-53.35ZM1239.01,2047.23l17.12-27.11c5.8,7.68,12.16,15.01,19.08,21.93,6.92,6.92,14.25,13.28,21.93,19.08l-27.11,17.12-31.02-31.02ZM1275.62,2041.65c-6.96-6.96-13.34-14.33-19.16-22.04l47.1-74.58c13.01,30.91,37.79,55.69,68.69,68.69l-74.58,47.1c-7.72-5.82-15.09-12.21-22.04-19.16ZM1372.68,2014.12l19.42,85.97c-34.18-4.89-66.31-18.21-93.95-38.91l74.52-47.06ZM1373.27,2014.13c14.99,6.16,31.39,9.56,48.57,9.56h0c17.18,0,33.58-3.4,48.57-9.56l-19.44,86.05c-9.57,1.34-19.3,2.04-29.14,2.04h0c-9.84,0-19.56-.7-29.14-2.04l-19.44-86.05ZM1471.02,2014.12l74.52,47.06c-27.63,20.71-59.77,34.02-93.95,38.91l19.42-85.97ZM1471.45,2013.71c30.91-13.01,55.69-37.79,68.69-68.69l47.1,74.58c-5.82,7.72-12.21,15.09-19.16,22.04-6.96,6.96-14.33,13.34-22.04,19.16l-74.58-47.1ZM1540.55,1944.59l85.97-19.42c-4.9,34.18-18.21,66.31-38.91,93.95l-47.06-74.52ZM1540.56,1943.99c6.16-14.99,9.56-31.39,9.56-48.57h0c0-17.18-3.4-33.59-9.56-48.58l86.05,19.44c1.34,9.57,2.04,19.3,2.04,29.14h0c0,9.84-.69,19.57-2.04,29.14l-86.05,19.44ZM1540.55,1846.25l47.06-74.52c20.71,27.63,34.02,59.77,38.91,93.95l-85.97-19.42ZM1587.57,1770.71c-5.8-7.68-12.16-15.01-19.08-21.93-6.92-6.92-14.25-13.28-21.93-19.08l27.11-17.12,31.02,31.02-17.12,27.11ZM1574.17,1712.26l83.68-52.84-52.84,83.68-30.84-30.84ZM1657.85,1657.56l-83.68-52.84,30.84-30.84,52.84,83.68ZM1573.67,1604.4l-27.11-17.12c7.68-5.8,15.01-12.16,21.93-19.08,6.92-6.92,13.28-14.26,19.08-21.93l17.12,27.11-31.02,31.02ZM1540.55,1470.73l85.97-19.42c-4.9,34.18-18.21,66.31-38.91,93.95l-47.06-74.52ZM1540.56,1470.14c6.16-14.99,9.56-31.39,9.56-48.57h0c0-17.18-3.4-33.59-9.56-48.58l86.05,19.44c1.34,9.57,2.04,19.3,2.04,29.14h0c0,9.84-.69,19.57-2.04,29.14l-86.05,19.44ZM1540.55,1372.39l47.06-74.52c20.71,27.63,34.02,59.77,38.91,93.95l-85.97-19.42ZM1587.57,1296.86c-5.8-7.68-12.16-15.01-19.08-21.93-6.92-6.92-14.25-13.28-21.93-19.08l27.11-17.12,31.02,31.02-17.12,27.11ZM1574.17,1238.41l83.68-52.84-52.84,83.68-30.84-30.84ZM1657.85,1183.71l-83.68-52.84,30.84-30.84,52.84,83.68ZM1573.67,1130.55l-27.11-17.12c7.68-5.8,15.01-12.16,21.93-19.08,6.92-6.92,13.28-14.26,19.08-21.93l17.12,27.11-31.02,31.02ZM1540.55,996.88l85.97-19.42c-4.9,34.18-18.21,66.31-38.91,93.95l-47.06-74.52ZM1540.56,996.28c6.16-14.99,9.56-31.39,9.56-48.57h0c0-17.18-3.4-33.59-9.56-48.58l86.05,19.44c1.34,9.57,2.04,19.3,2.04,29.14h0c0,9.84-.69,19.57-2.04,29.14l-86.05,19.44ZM1540.55,898.54l47.06-74.52c20.71,27.63,34.02,59.77,38.91,93.95l-85.97-19.42ZM1587.57,823c-5.8-7.68-12.16-15.01-19.08-21.93-6.92-6.92-14.25-13.28-21.93-19.08l27.11-17.12,31.02,31.02-17.12,27.11ZM1574.17,764.55l83.68-52.84-52.84,83.68-30.84-30.84ZM1657.85,709.86l-83.68-52.84,30.84-30.84,52.84,83.68ZM1573.67,656.7l-27.11-17.12c7.68-5.8,15.01-12.16,21.93-19.08,6.92-6.92,13.28-14.26,19.08-21.93l17.12,27.11-31.02,31.02ZM1540.55,523.02l85.97-19.42c-4.9,34.18-18.21,66.31-38.91,93.95l-47.06-74.52ZM1540.56,522.43c6.16-14.99,9.56-31.39,9.56-48.57h0c0-17.18-3.4-33.58-9.56-48.58l86.05,19.44c1.34,9.57,2.04,19.3,2.04,29.14h0c0,9.84-.69,19.57-2.04,29.14l-86.05,19.44ZM1540.55,424.69l47.06-74.52c20.71,27.63,34.02,59.77,38.91,93.95l-85.97-19.42ZM1587.57,349.15c-5.8-7.68-12.16-15.01-19.08-21.93-6.92-6.92-14.25-13.28-21.93-19.08l27.11-17.12,31.02,31.02-17.12,27.11ZM1520.4,236.93l53.35-53.35,84.49,53.35-84.49,53.35-53.35-53.35ZM1574.17,290.7l83.68-52.84-52.84,83.68-30.84-30.84ZM1657.85,236l-83.68-52.84,30.84-30.84,52.84,83.68ZM1573.67,182.84l-27.11-17.12c7.68-5.8,15.01-12.16,21.93-19.08,6.92-6.92,13.28-14.26,19.08-21.93l17.12,27.11-31.02,31.02ZM1573.25,183.26l-53.67,53.67,53.67,53.67-27.18,17.17c-27.81-20.89-60.17-34.29-94.6-39.19l-7.15-31.65,7.15-31.65c34.43-4.89,66.8-18.3,94.6-39.19l27.18,17.17ZM1443.72,236.93l7.13,31.57c-9.53-1.33-19.21-2.01-29-2.01h0c-9.79,0-19.47.69-29,2.01l7.13-31.57-7.13-31.57c9.53,1.33,19.21,2.01,29,2.01h0c9.79,0,19.47-.69,29-2.01l-7.13,31.57ZM1399.38,236.93l-7.15,31.65c-34.43,4.89-66.8,18.3-94.6,39.19l-27.18-17.17,53.67-53.67-53.67-53.67,27.18-17.17c27.81,20.89,60.17,34.29,94.6,39.19l7.15,31.65ZM1270.03,182.84l-31.02-31.02,17.12-27.11c5.8,7.68,12.16,15.01,19.08,21.93,6.92,6.92,14.25,13.28,21.93,19.08l-27.11,17.12ZM1269.53,183.16l-83.68,52.84,52.84-83.68,30.84,30.84ZM1184.92,236.39l-53.35-84.49,53.35-53.35,53.35,53.35-53.35,84.49ZM1183.99,236l-83.68-52.84,30.84-30.84,52.84,83.68ZM1099.81,182.84l-27.11-17.12c7.68-5.8,15.01-12.16,21.93-19.08,6.92-6.92,13.28-14.26,19.08-21.93l17.12,27.11-31.02,31.02ZM1099.39,183.26l-53.67,53.67,53.67,53.67-27.18,17.17c-27.81-20.89-60.17-34.29-94.6-39.19l-7.15-31.65,7.15-31.65c34.43-4.89,66.8-18.3,94.6-39.19l27.18,17.17ZM969.87,236.93l7.13,31.57c-9.53-1.33-19.21-2.01-29-2.01h0c-9.79,0-19.47.69-29,2.01l7.13-31.57-7.13-31.57c9.53,1.33,19.21,2.01,29,2.01h0c9.79,0,19.47-.69,29-2.01l-7.13,31.57ZM925.53,236.93l-7.15,31.65c-34.43,4.89-66.8,18.3-94.6,39.19l-27.18-17.17,53.67-53.67-53.67-53.67,27.18-17.17c27.81,20.89,60.17,34.29,94.6,39.19l7.15,31.65ZM796.18,182.84l-31.02-31.02,17.12-27.11c5.8,7.68,12.16,15.01,19.08,21.93,6.92,6.92,14.25,13.28,21.93,19.08l-27.11,17.12ZM795.68,183.16l-83.68,52.84,52.84-83.68,30.84,30.84ZM711.07,236.39l-53.35-84.49,53.35-53.35,53.35,53.35-53.35,84.49ZM710.14,236l-83.68-52.84,30.84-30.84,52.84,83.68ZM625.96,182.84l-27.11-17.12c7.68-5.8,15.01-12.16,21.93-19.08,6.92-6.92,13.28-14.26,19.08-21.93l17.12,27.11-31.02,31.02ZM625.54,183.26l-53.67,53.67,53.67,53.67-27.18,17.17c-27.81-20.89-60.17-34.29-94.6-39.19l-7.15-31.65,7.15-31.65c34.43-4.89,66.8-18.3,94.6-39.19l27.18,17.17ZM496.01,236.93l7.13,31.57c-9.53-1.33-19.21-2.01-29-2.01h0c-9.79,0-19.47.69-29,2.01l7.13-31.57-7.13-31.57c9.53,1.33,19.21,2.01,29,2.01h0c9.79,0,19.47-.69,29-2.01l-7.13,31.57ZM451.67,236.93l-7.15,31.65c-34.43,4.89-66.8,18.3-94.6,39.19l-27.18-17.17,53.67-53.67-53.67-53.67,27.18-17.17c27.81,20.89,60.17,34.29,94.6,39.19l7.15,31.65ZM322.32,182.84l-31.02-31.02,17.12-27.11c5.8,7.68,12.16,15.01,19.08,21.93,6.92,6.92,14.25,13.28,21.93,19.08l-27.11,17.12ZM321.82,183.16l-83.68,52.84,52.84-83.68,30.84,30.84ZM237.21,236.39l-53.35-84.49,53.35-53.35,53.35,53.35-53.35,84.49ZM236.29,236l-83.68-52.84,30.84-30.84,52.84,83.68ZM152.1,182.84l-27.11-17.12c7.68-5.8,15.01-12.16,21.93-19.08,6.92-6.92,13.28-14.26,19.08-21.93l17.12,27.11-31.02,31.02ZM152.18,183.58l84.49,53.35-84.49,53.35-53.35-53.35,53.35-53.35ZM183.13,322.04l-17.12,27.11c-5.8-7.68-12.16-15.01-19.08-21.93-6.92-6.92-14.25-13.28-21.93-19.08l27.11-17.12,31.02,31.02ZM183.54,322.46l53.67,53.67,53.67-53.67,17.17,27.18c-20.89,27.81-34.29,60.17-39.19,94.6l-31.65,7.15-31.65-7.15c-4.89-34.43-18.3-66.8-39.19-94.6l17.17-27.18ZM237.21,496.32l31.65,7.15c4.89,34.43,18.3,66.8,39.19,94.6l-17.17,27.18-53.67-53.67-53.67,53.67-17.17-27.18c20.89-27.81,34.29-60.17,39.19-94.6l31.65-7.15ZM183.13,625.67l-31.02,31.02-27.11-17.12c7.68-5.8,15.01-12.16,21.93-19.08,6.92-6.92,13.28-14.26,19.08-21.93l17.12,27.11ZM152.18,657.43l84.49,53.35-84.49,53.35-53.35-53.35,53.35-53.35ZM183.13,795.89l-17.12,27.11c-5.8-7.68-12.16-15.01-19.08-21.93-6.92-6.92-14.25-13.28-21.93-19.08l27.11-17.12,31.02,31.02ZM183.54,796.31l53.67,53.67,53.67-53.67,17.17,27.18c-20.89,27.81-34.29,60.17-39.19,94.6l-31.65,7.15-31.65-7.15c-4.89-34.43-18.3-66.8-39.19-94.6l17.17-27.18ZM237.21,970.17l31.65,7.15c4.89,34.43,18.3,66.8,39.19,94.6l-17.17,27.18-53.67-53.67-53.67,53.67-17.17-27.18c20.89-27.81,34.29-60.17,39.19-94.6l31.65-7.15ZM183.13,1099.53l-31.02,31.02-27.11-17.12c7.68-5.8,15.01-12.16,21.93-19.08,6.92-6.92,13.28-14.26,19.08-21.93l17.12,27.11ZM152.18,1131.28l84.49,53.35-84.49,53.35-53.35-53.35,53.35-53.35ZM183.13,1269.75l-17.12,27.11c-5.8-7.68-12.16-15.01-19.08-21.93-6.92-6.92-14.25-13.28-21.93-19.08l27.11-17.12,31.02,31.02ZM183.54,1270.17l53.67,53.67,53.67-53.67,17.17,27.18c-20.89,27.81-34.29,60.17-39.19,94.6l-31.65,7.15-31.65-7.15c-4.89-34.43-18.3-66.8-39.19-94.6l17.17-27.18ZM237.21,1444.03l31.65,7.15c4.89,34.43,18.3,66.8,39.19,94.6l-17.17,27.18-53.67-53.67-53.67,53.67-17.17-27.18c20.89-27.81,34.29-60.17,39.19-94.6l31.65-7.15ZM183.13,1573.38l-31.02,31.02-27.11-17.12c7.68-5.8,15.01-12.16,21.93-19.08,6.92-6.92,13.28-14.26,19.08-21.93l17.12,27.11ZM152.18,1605.14l84.49,53.35-84.49,53.35-53.35-53.35,53.35-53.35ZM183.13,1743.6l-17.12,27.11c-5.8-7.68-12.16-15.01-19.08-21.93-6.92-6.92-14.25-13.28-21.93-19.08l27.11-17.12,31.02,31.02ZM183.54,1744.02l53.67,53.67,53.67-53.67,17.17,27.18c-20.89,27.81-34.29,60.17-39.19,94.6l-31.65,7.15-31.65-7.15c-4.89-34.43-18.3-66.8-39.19-94.6l17.17-27.18ZM237.21,1917.88l31.65,7.15c4.89,34.43,18.3,66.8,39.19,94.6l-17.17,27.18-53.67-53.67-53.67,53.67-17.17-27.18c20.89-27.81,34.29-60.17,39.19-94.6l31.65-7.15ZM183.13,2047.23l-31.02,31.02-27.11-17.12c7.68-5.8,15.01-12.16,21.93-19.08,6.92-6.92,13.28-14.26,19.08-21.93l17.12,27.11ZM152.18,2078.99l84.49,53.35-84.49,53.35-53.35-53.35,53.35-53.35ZM183.13,2217.46l-17.12,27.11c-5.8-7.68-12.16-15.01-19.08-21.93-6.92-6.92-14.25-13.28-21.93-19.08l27.11-17.12,31.02,31.02ZM152.6,2186.12l83.68-52.84-52.84,83.68-30.84-30.84ZM237.21,2132.89l53.35,84.49-53.35,53.35-53.35-53.35,53.35-84.49ZM238.14,2133.27l83.68,52.84-30.84,30.84-52.84-83.68ZM322.32,2186.43l27.11,17.12c-7.68,5.8-15.01,12.16-21.93,19.08-6.92,6.92-13.28,14.26-19.08,21.93l-17.12-27.11,31.02-31.02ZM322.74,2186.01l53.67-53.67-53.67-53.67,27.18-17.17c27.81,20.89,60.17,34.29,94.6,39.19l7.15,31.65-7.15,31.65c-34.43,4.89-66.8,18.3-94.6,39.19l-27.18-17.17ZM452.27,2132.35l-7.13-31.57c9.53,1.33,19.21,2.01,29,2.01h0c9.79,0,19.47-.69,29-2.01l-7.13,31.57,7.13,31.57c-9.53-1.33-19.21-2.01-29-2.01h0c-9.79,0-19.47.69-29,2.01l7.13-31.57ZM496.6,2132.35l7.15-31.65c34.43-4.89,66.8-18.3,94.6-39.19l27.18,17.17-53.67,53.67,53.67,53.67-27.18,17.17c-27.81-20.89-60.17-34.29-94.6-39.19l-7.15-31.65ZM625.96,2186.43l31.02,31.02-17.12,27.11c-5.8-7.68-12.16-15.01-19.08-21.93-6.92-6.92-14.25-13.28-21.93-19.08l27.11-17.12ZM626.46,2186.12l83.68-52.84-52.84,83.68-30.84-30.84ZM711.07,2132.89l53.35,84.49-53.35,53.35-53.35-53.35,53.35-84.49ZM711.99,2133.27l83.68,52.84-30.84,30.84-52.84-83.68ZM796.18,2186.43l27.11,17.12c-7.68,5.8-15.01,12.16-21.93,19.08-6.92,6.92-13.28,14.26-19.08,21.93l-17.12-27.11,31.02-31.02ZM796.6,2186.01l53.67-53.67-53.67-53.67,27.18-17.17c27.81,20.89,60.17,34.29,94.6,39.19l7.15,31.65-7.15,31.65c-34.43,4.89-66.8,18.3-94.6,39.19l-27.18-17.17ZM926.12,2132.35l-7.13-31.57c9.53,1.33,19.21,2.01,29,2.01h0c9.79,0,19.47-.69,29-2.01l-7.13,31.57,7.13,31.57c-9.53-1.33-19.21-2.01-29-2.01h0c-9.79,0-19.47.69-29,2.01l7.13-31.57ZM970.46,2132.35l7.15-31.65c34.43-4.89,66.8-18.3,94.6-39.19l27.18,17.17-53.67,53.67,53.67,53.67-27.18,17.17c-27.81-20.89-60.17-34.29-94.6-39.19l-7.15-31.65ZM1099.81,2186.43l31.02,31.02-17.12,27.11c-5.8-7.68-12.16-15.01-19.08-21.93-6.92-6.92-14.25-13.28-21.93-19.08l27.11-17.12ZM1100.31,2186.12l83.68-52.84-52.84,83.68-30.84-30.84ZM1184.92,2132.89l53.35,84.49-53.35,53.35-53.35-53.35,53.35-84.49ZM1185.85,2133.27l83.68,52.84-30.84,30.84-52.84-83.68ZM1270.03,2186.43l27.11,17.12c-7.68,5.8-15.01,12.16-21.93,19.08-6.92,6.92-13.28,14.26-19.08,21.93l-17.12-27.11,31.02-31.02ZM1270.45,2186.01l53.67-53.67-53.67-53.67,27.18-17.17c27.81,20.89,60.17,34.29,94.6,39.19l7.15,31.65-7.15,31.65c-34.43,4.89-66.8,18.3-94.6,39.19l-27.18-17.17ZM1399.98,2132.35l-7.13-31.57c9.53,1.33,19.21,2.01,29,2.01h0c9.79,0,19.47-.69,29-2.01l-7.13,31.57,7.13,31.57c-9.53-1.33-19.21-2.01-29-2.01h0c-9.79,0-19.47.69-29,2.01l7.13-31.57ZM1444.31,2132.35l7.15-31.65c34.43-4.89,66.8-18.3,94.6-39.19l27.18,17.17-53.67,53.67,53.67,53.67-27.18,17.17c-27.81-20.89-60.17-34.29-94.6-39.19l-7.15-31.65ZM1573.67,2186.43l31.02,31.02-17.12,27.11c-5.8-7.68-12.16-15.01-19.08-21.93-6.92-6.92-14.25-13.28-21.93-19.08l27.11-17.12ZM1574.17,2186.12l83.68-52.84-52.84,83.68-30.84-30.84ZM1658.78,2132.89l53.35,84.49-53.35,53.35-53.35-53.35,53.35-84.49ZM1659.7,2133.27l83.68,52.84-30.84,30.84-52.84-83.68ZM1743.89,2186.43l27.11,17.12c-7.68,5.8-15.01,12.16-21.93,19.08-6.92,6.92-13.28,14.26-19.08,21.93l-17.12-27.11,31.02-31.02ZM1743.8,2185.7l-84.49-53.35,84.49-53.35,53.35,53.35-53.35,53.35ZM1712.86,2047.23l17.12-27.11c5.8,7.68,12.16,15.01,19.08,21.93,6.92,6.92,14.25,13.28,21.93,19.08l-27.11,17.12-31.02-31.02ZM1712.44,2046.82l-53.67-53.67-53.67,53.67-17.17-27.18c20.89-27.81,34.29-60.17,39.19-94.6l31.65-7.15,31.65,7.15c4.89,34.43,18.3,66.8,39.19,94.6l-17.17,27.18ZM1658.78,1872.95l-31.65-7.15c-4.89-34.43-18.3-66.8-39.19-94.6l17.17-27.18,53.67,53.67,53.67-53.67,17.17,27.18c-20.89,27.81-34.29,60.17-39.19,94.6l-31.65,7.15ZM1712.86,1743.6l31.02-31.02,27.11,17.12c-7.68,5.8-15.01,12.16-21.93,19.08-6.92,6.92-13.28,14.26-19.08,21.93l-17.12-27.11ZM1743.8,1711.84l-84.49-53.35,84.49-53.35,53.35,53.35-53.35,53.35ZM1712.86,1573.38l17.12-27.11c5.8,7.68,12.16,15.01,19.08,21.93,6.92,6.92,14.25,13.28,21.93,19.08l-27.11,17.12-31.02-31.02ZM1712.44,1572.96l-53.67-53.67-53.67,53.67-17.17-27.18c20.89-27.81,34.29-60.17,39.19-94.6l31.65-7.15,31.65,7.15c4.89,34.43,18.3,66.8,39.19,94.6l-17.17,27.18ZM1658.78,1399.1l-31.65-7.15c-4.89-34.43-18.3-66.8-39.19-94.6l17.17-27.18,53.67,53.67,53.67-53.67,17.17,27.18c-20.89,27.81-34.29,60.17-39.19,94.6l-31.65,7.15ZM1712.86,1269.75l31.02-31.02,27.11,17.12c-7.68,5.8-15.01,12.16-21.93,19.08-6.92,6.92-13.28,14.26-19.08,21.93l-17.12-27.11ZM1743.8,1237.99l-84.49-53.35,84.49-53.35,53.35,53.35-53.35,53.35ZM1712.86,1099.53l17.12-27.11c5.8,7.68,12.16,15.01,19.08,21.93,6.92,6.92,14.25,13.28,21.93,19.08l-27.11,17.12-31.02-31.02ZM1712.44,1099.11l-53.67-53.67-53.67,53.67-17.17-27.18c20.89-27.81,34.29-60.17,39.19-94.6l31.65-7.15,31.65,7.15c4.89,34.43,18.3,66.8,39.19,94.6l-17.17,27.18ZM1658.78,925.24l-31.65-7.15c-4.89-34.43-18.3-66.8-39.19-94.6l17.17-27.18,53.67,53.67,53.67-53.67,17.17,27.18c-20.89,27.81-34.29,60.17-39.19,94.6l-31.65,7.15ZM1712.86,795.89l31.02-31.02,27.11,17.12c-7.68,5.8-15.01,12.16-21.93,19.08-6.92,6.92-13.28,14.26-19.08,21.93l-17.12-27.11ZM1743.8,764.13l-84.49-53.35,84.49-53.35,53.35,53.35-53.35,53.35ZM1712.86,625.67l17.12-27.11c5.8,7.68,12.16,15.01,19.08,21.93,6.92,6.92,14.25,13.28,21.93,19.08l-27.11,17.12-31.02-31.02ZM1712.44,625.25l-53.67-53.67-53.67,53.67-17.17-27.18c20.89-27.81,34.29-60.17,39.19-94.6l31.65-7.15,31.65,7.15c4.89,34.43,18.3,66.8,39.19,94.6l-17.17,27.18ZM1658.78,451.39l-31.65-7.15c-4.89-34.43-18.3-66.8-39.19-94.6l17.17-27.18,53.67,53.67,53.67-53.67,17.17,27.18c-20.89,27.81-34.29,60.17-39.19,94.6l-31.65,7.15ZM1712.86,322.04l31.02-31.02,27.11,17.12c-7.68,5.8-15.01,12.16-21.93,19.08-6.92,6.92-13.28,14.26-19.08,21.93l-17.12-27.11ZM1743.8,290.28l-84.49-53.35,84.49-53.35,53.35,53.35-53.35,53.35ZM1712.86,151.82l17.12-27.11c5.8,7.68,12.16,15.01,19.08,21.93,6.92,6.92,14.25,13.28,21.93,19.08l-27.11,17.12-31.02-31.02ZM1777,49.17l-47.06,74.52c-20.71-27.63-34.02-59.76-38.91-93.94l85.97,19.42ZM1627.13,29.61l31.65-7.15,31.65,7.15c4.89,34.43,18.3,66.8,39.19,94.6l-17.17,27.18-53.67-53.67-53.67,53.67-17.17-27.18c20.89-27.81,34.29-60.17,39.19-94.6ZM1626.53,29.75c-4.9,34.18-18.21,66.31-38.91,93.94l-47.06-74.52,85.97-19.42ZM1540.14,49.6l47.1,74.58c-5.82,7.72-12.21,15.09-19.16,22.04s-14.33,13.34-22.04,19.16l-74.58-47.1c30.91-13.01,55.69-37.79,68.69-68.69ZM1545.54,165.77c-27.63,20.71-59.77,34.02-93.95,38.91l19.42-85.97,74.52,47.06ZM1421.85,128.27h0c17.18,0,33.58-3.4,48.57-9.56l-19.44,86.05c-9.57,1.34-19.3,2.04-29.14,2.04h0c-9.84,0-19.56-.69-29.14-2.04l-19.44-86.05c14.99,6.16,31.39,9.56,48.57,9.56ZM1392.1,204.68c-34.18-4.9-66.31-18.21-93.95-38.91l74.52-47.06,19.42,85.97ZM1372.25,118.29l-74.58,47.1c-7.72-5.82-15.09-12.21-22.04-19.16s-13.34-14.33-19.16-22.04l47.1-74.58c13.01,30.91,37.79,55.69,68.69,68.69ZM1303.14,49.17l-47.06,74.52c-20.71-27.63-34.02-59.76-38.91-93.94l85.97,19.42ZM1153.27,29.61l31.65-7.15,31.65,7.15c4.89,34.43,18.3,66.8,39.19,94.6l-17.17,27.18-53.67-53.67-53.67,53.67-17.17-27.18c20.89-27.81,34.29-60.17,39.19-94.6ZM1152.67,29.75c-4.9,34.18-18.21,66.31-38.91,93.94l-47.06-74.52,85.97-19.42ZM1066.29,49.6l47.1,74.58c-5.82,7.72-12.21,15.09-19.16,22.04s-14.33,13.34-22.04,19.16l-74.58-47.1c30.91-13.01,55.69-37.79,68.69-68.69ZM1071.69,165.77c-27.63,20.71-59.77,34.02-93.95,38.91l19.42-85.97,74.52,47.06ZM947.99,128.27h0c17.18,0,33.58-3.4,48.57-9.56l-19.44,86.05c-9.57,1.34-19.3,2.04-29.14,2.04h0c-9.84,0-19.56-.69-29.14-2.04l-19.44-86.05c14.99,6.16,31.39,9.56,48.57,9.56ZM918.24,204.68c-34.18-4.9-66.31-18.21-93.95-38.91l74.52-47.06,19.42,85.97ZM898.39,118.29l-74.58,47.1c-7.72-5.82-15.09-12.21-22.04-19.16s-13.34-14.33-19.16-22.04l47.1-74.58c13.01,30.91,37.79,55.69,68.69,68.69ZM829.29,49.17l-47.06,74.52c-20.71-27.63-34.02-59.76-38.91-93.94l85.97,19.42ZM679.42,29.61l31.65-7.15,31.65,7.15c4.89,34.43,18.3,66.8,39.19,94.6l-17.17,27.18-53.67-53.67-53.67,53.67-17.17-27.18c20.89-27.81,34.29-60.17,39.19-94.6ZM678.82,29.75c-4.9,34.18-18.21,66.31-38.91,93.94l-47.06-74.52,85.97-19.42ZM592.43,49.6l47.1,74.58c-5.82,7.72-12.21,15.09-19.16,22.04s-14.33,13.34-22.04,19.16l-74.58-47.1c30.91-13.01,55.69-37.79,68.69-68.69ZM597.83,165.77c-27.63,20.71-59.77,34.02-93.95,38.91l19.42-85.97,74.52,47.06ZM474.14,128.27h0c17.18,0,33.58-3.4,48.57-9.56l-19.44,86.05c-9.57,1.34-19.3,2.04-29.14,2.04h0c-9.84,0-19.56-.69-29.14-2.04l-19.44-86.05c14.99,6.16,31.39,9.56,48.57,9.56ZM444.39,204.68c-34.18-4.9-66.31-18.21-93.95-38.91l74.52-47.06,19.42,85.97ZM424.54,118.29l-74.58,47.1c-7.72-5.82-15.09-12.21-22.04-19.16s-13.34-14.33-19.16-22.04l47.1-74.58c13.01,30.91,37.79,55.69,68.69,68.69ZM355.43,49.17l-47.06,74.52c-20.71-27.63-34.02-59.76-38.91-93.94l85.97,19.42ZM205.56,29.61l31.65-7.15,31.65,7.15c4.89,34.43,18.3,66.8,39.19,94.6l-17.17,27.18-53.67-53.67-53.67,53.67-17.17-27.18c20.89-27.81,34.29-60.17,39.19-94.6ZM204.96,29.75c-4.9,34.18-18.21,66.31-38.91,93.94l-47.06-74.52,85.97-19.42ZM118.58,49.6l47.1,74.58c-5.82,7.72-12.21,15.09-19.16,22.04s-14.33,13.34-22.04,19.16l-74.58-47.1c30.91-13.01,55.69-37.79,68.69-68.69ZM49.45,118.7l74.52,47.06c-27.63,20.71-59.77,34.02-93.95,38.91l19.42-85.97ZM22.75,236.93l7.15-31.65c34.43-4.89,66.8-18.3,94.6-39.19l27.18,17.17-53.67,53.67,53.67,53.67-27.18,17.17c-27.81-20.89-60.17-34.29-94.6-39.19l-7.15-31.65ZM30.03,269.18c34.18,4.89,66.31,18.21,93.95,38.91l-74.52,47.06-19.42-85.97ZM49.89,355.56l74.58-47.1c7.72,5.82,15.09,12.21,22.04,19.16,6.96,6.96,13.34,14.33,19.16,22.04l-47.1,74.58c-13.01-30.91-37.79-55.69-68.69-68.69ZM166.05,350.16c20.71,27.63,34.02,59.77,38.91,93.95l-85.97-19.42,47.06-74.52ZM128.56,473.86h0c0-17.18-3.4-33.58-9.56-48.58l86.05,19.44c1.34,9.57,2.04,19.3,2.04,29.14h0c0,9.84-.69,19.57-2.04,29.14l-86.05,19.44c6.16-14.99,9.56-31.39,9.56-48.57ZM204.96,503.6c-4.9,34.18-18.21,66.31-38.91,93.95l-47.06-74.52,85.97-19.42ZM118.58,523.46l47.1,74.58c-5.82,7.72-12.21,15.09-19.16,22.04-6.96,6.96-14.33,13.34-22.04,19.16l-74.58-47.1c30.91-13.01,55.69-37.79,68.69-68.69ZM49.45,592.56l74.52,47.06c-27.63,20.71-59.77,34.02-93.95,38.91l19.42-85.97ZM22.75,710.78l7.15-31.65c34.43-4.89,66.8-18.3,94.6-39.19l27.18,17.17-53.67,53.67,53.67,53.67-27.18,17.17c-27.81-20.89-60.17-34.29-94.6-39.19l-7.15-31.65ZM30.03,743.03c34.18,4.89,66.31,18.21,93.95,38.91l-74.52,47.06-19.42-85.97ZM49.89,829.42l74.58-47.1c7.72,5.82,15.09,12.21,22.04,19.16,6.96,6.96,13.34,14.33,19.16,22.04l-47.1,74.58c-13.01-30.91-37.79-55.69-68.69-68.69ZM166.05,824.01c20.71,27.63,34.02,59.77,38.91,93.95l-85.97-19.42,47.06-74.52ZM128.56,947.71h0c0-17.18-3.4-33.59-9.56-48.58l86.05,19.44c1.34,9.57,2.04,19.3,2.04,29.14h0c0,9.84-.69,19.57-2.04,29.14l-86.05,19.44c6.16-14.99,9.56-31.39,9.56-48.57ZM204.96,977.46c-4.9,34.18-18.21,66.31-38.91,93.95l-47.06-74.52,85.97-19.42ZM118.58,997.31l47.1,74.58c-5.82,7.72-12.21,15.09-19.16,22.04-6.96,6.96-14.33,13.34-22.04,19.16l-74.58-47.1c30.91-13.01,55.69-37.79,68.69-68.69ZM49.45,1066.41l74.52,47.06c-27.63,20.71-59.77,34.02-93.95,38.91l19.42-85.97ZM22.75,1184.64l7.15-31.65c34.43-4.89,66.8-18.3,94.6-39.19l27.18,17.17-53.67,53.67,53.67,53.67-27.18,17.17c-27.81-20.89-60.17-34.29-94.6-39.19l-7.15-31.65ZM30.03,1216.89c34.18,4.89,66.31,18.21,93.95,38.91l-74.52,47.06-19.42-85.97ZM49.89,1303.27l74.58-47.1c7.72,5.82,15.09,12.21,22.04,19.16,6.96,6.96,13.34,14.33,19.16,22.04l-47.1,74.58c-13.01-30.91-37.79-55.69-68.69-68.69ZM166.05,1297.87c20.71,27.63,34.02,59.77,38.91,93.95l-85.97-19.42,47.06-74.52ZM128.56,1421.56h0c0-17.18-3.4-33.59-9.56-48.58l86.05,19.44c1.34,9.57,2.04,19.3,2.04,29.14h0c0,9.84-.69,19.57-2.04,29.14l-86.05,19.44c6.16-14.99,9.56-31.39,9.56-48.57ZM204.96,1451.31c-4.9,34.18-18.21,66.31-38.91,93.95l-47.06-74.52,85.97-19.42ZM118.58,1471.16l47.1,74.58c-5.82,7.72-12.21,15.09-19.16,22.04-6.96,6.96-14.33,13.34-22.04,19.16l-74.58-47.1c30.91-13.01,55.69-37.79,68.69-68.69ZM49.45,1540.27l74.52,47.06c-27.63,20.71-59.77,34.02-93.95,38.91l19.42-85.97ZM22.75,1658.49l7.15-31.65c34.43-4.89,66.8-18.3,94.6-39.19l27.18,17.17-53.67,53.67,53.67,53.67-27.18,17.17c-27.81-20.89-60.17-34.29-94.6-39.19l-7.15-31.65ZM30.03,1690.74c34.18,4.89,66.31,18.21,93.95,38.91l-74.52,47.06-19.42-85.97ZM49.89,1777.12l74.58-47.1c7.72,5.82,15.09,12.21,22.04,19.16,6.96,6.96,13.34,14.33,19.16,22.04l-47.1,74.58c-13.01-30.91-37.79-55.69-68.69-68.69ZM166.05,1771.72c20.71,27.63,34.02,59.77,38.91,93.95l-85.97-19.42,47.06-74.52ZM128.56,1895.42h0c0-17.18-3.4-33.59-9.56-48.58l86.05,19.44c1.34,9.57,2.04,19.3,2.04,29.14h0c0,9.84-.69,19.57-2.04,29.14l-86.05,19.44c6.16-14.99,9.56-31.39,9.56-48.57ZM204.96,1925.17c-4.9,34.18-18.21,66.31-38.91,93.95l-47.06-74.52,85.97-19.42ZM118.58,1945.02l47.1,74.58c-5.82,7.72-12.21,15.09-19.16,22.04-6.96,6.96-14.33,13.34-22.04,19.16l-74.58-47.1c30.91-13.01,55.69-37.79,68.69-68.69ZM49.45,2014.12l74.52,47.06c-27.63,20.71-59.77,34.02-93.95,38.91l19.42-85.97ZM22.75,2132.35l7.15-31.65c34.43-4.89,66.8-18.3,94.6-39.19l27.18,17.17-53.67,53.67,53.67,53.67-27.18,17.17c-27.81-20.89-60.17-34.29-94.6-39.19l-7.15-31.65ZM30.03,2164.59c34.18,4.89,66.31,18.21,93.95,38.91l-74.52,47.06-19.42-85.97ZM49.89,2250.98l74.58-47.1c7.72,5.82,15.09,12.21,22.04,19.16,6.96,6.96,13.34,14.33,19.16,22.04l-47.1,74.58c-13.01-30.91-37.79-55.69-68.69-68.69ZM118.99,2320.1l47.06-74.52c20.71,27.63,34.02,59.77,38.91,93.95l-85.97-19.42ZM268.86,2339.66l-31.65,7.15-31.65-7.15c-4.89-34.43-18.3-66.8-39.19-94.6l17.17-27.18,53.67,53.67,53.67-53.67,17.17,27.18c-20.89,27.81-34.29,60.17-39.19,94.6ZM269.46,2339.52c4.9-34.18,18.21-66.31,38.91-93.95l47.06,74.52-85.97,19.42ZM355.85,2319.67l-47.1-74.58c5.82-7.72,12.21-15.09,19.16-22.04,6.96-6.96,14.33-13.34,22.04-19.16l74.58,47.1c-30.91,13.01-55.69,37.79-68.69,68.69ZM350.44,2203.51c27.63-20.71,59.77-34.02,93.95-38.91l-19.42,85.97-74.52-47.06ZM474.14,2241h0c-17.18,0-33.58,3.4-48.57,9.56l19.44-86.05c9.57-1.34,19.3-2.04,29.14-2.04h0c9.84,0,19.56.7,29.14,2.04l19.44,86.05c-14.99-6.16-31.39-9.56-48.57-9.56ZM503.89,2164.59c34.18,4.89,66.31,18.21,93.95,38.91l-74.52,47.06-19.42-85.97ZM523.74,2250.98l74.58-47.1c7.72,5.82,15.09,12.21,22.04,19.16,6.96,6.96,13.34,14.33,19.16,22.04l-47.1,74.58c-13.01-30.91-37.79-55.69-68.69-68.69ZM592.84,2320.1l47.06-74.52c20.71,27.63,34.02,59.77,38.91,93.95l-85.97-19.42ZM742.71,2339.66l-31.65,7.15-31.65-7.15c-4.89-34.43-18.3-66.8-39.19-94.6l17.17-27.18,53.67,53.67,53.67-53.67,17.17,27.18c-20.89,27.81-34.29,60.17-39.19,94.6ZM743.31,2339.52c4.9-34.18,18.21-66.31,38.91-93.95l47.06,74.52-85.97,19.42ZM829.7,2319.67l-47.1-74.58c5.82-7.72,12.21-15.09,19.16-22.04,6.96-6.96,14.33-13.34,22.04-19.16l74.58,47.1c-30.91,13.01-55.69,37.79-68.69,68.69ZM824.3,2203.51c27.63-20.71,59.77-34.02,93.95-38.91l-19.42,85.97-74.52-47.06ZM947.99,2241h0c-17.18,0-33.58,3.4-48.57,9.56l19.44-86.05c9.57-1.34,19.3-2.04,29.14-2.04h0c9.84,0,19.56.7,29.14,2.04l19.44,86.05c-14.99-6.16-31.39-9.56-48.57-9.56ZM977.74,2164.59c34.18,4.89,66.31,18.21,93.95,38.91l-74.52,47.06-19.42-85.97ZM997.59,2250.98l74.58-47.1c7.72,5.82,15.09,12.21,22.04,19.16,6.96,6.96,13.34,14.33,19.16,22.04l-47.1,74.58c-13.01-30.91-37.79-55.69-68.69-68.69ZM1066.7,2320.1l47.06-74.52c20.71,27.63,34.02,59.77,38.91,93.95l-85.97-19.42ZM1216.57,2339.66l-31.65,7.15-31.65-7.15c-4.89-34.43-18.3-66.8-39.19-94.6l17.17-27.18,53.67,53.67,53.67-53.67,17.17,27.18c-20.89,27.81-34.29,60.17-39.19,94.6ZM1217.17,2339.52c4.9-34.18,18.21-66.31,38.91-93.95l47.06,74.52-85.97,19.42ZM1303.55,2319.67l-47.1-74.58c5.82-7.72,12.21-15.09,19.16-22.04,6.96-6.96,14.33-13.34,22.04-19.16l74.58,47.1c-30.91,13.01-55.69,37.79-68.69,68.69ZM1298.15,2203.51c27.63-20.71,59.77-34.02,93.95-38.91l-19.42,85.97-74.52-47.06ZM1421.85,2241h0c-17.18,0-33.58,3.4-48.57,9.56l19.44-86.05c9.57-1.34,19.3-2.04,29.14-2.04h0c9.84,0,19.56.7,29.14,2.04l19.44,86.05c-14.99-6.16-31.39-9.56-48.57-9.56ZM1451.6,2164.59c34.18,4.89,66.31,18.21,93.95,38.91l-74.52,47.06-19.42-85.97ZM1471.45,2250.98l74.58-47.1c7.72,5.82,15.09,12.21,22.04,19.16,6.96,6.96,13.34,14.33,19.16,22.04l-47.1,74.58c-13.01-30.91-37.79-55.69-68.69-68.69ZM1540.55,2320.1l47.06-74.52c20.71,27.63,34.02,59.77,38.91,93.95l-85.97-19.42ZM1690.42,2339.66l-31.65,7.15-31.65-7.15c-4.89-34.43-18.3-66.8-39.19-94.6l17.17-27.18,53.67,53.67,53.67-53.67,17.17,27.18c-20.89,27.81-34.29,60.17-39.19,94.6ZM1691.02,2339.52c4.9-34.18,18.21-66.31,38.91-93.95l47.06,74.52-85.97,19.42ZM1777.41,2319.67l-47.1-74.58c5.82-7.72,12.21-15.09,19.16-22.04,6.96-6.96,14.33-13.34,22.04-19.16l74.58,47.1c-30.91,13.01-55.69,37.79-68.69,68.69ZM1846.53,2250.57l-74.52-47.06c27.63-20.71,59.77-34.02,93.95-38.91l-19.42,85.97ZM1873.24,2132.35l-7.15,31.65c-34.43,4.89-66.8,18.3-94.6,39.19l-27.18-17.17,53.67-53.67-53.67-53.67,27.18-17.17c27.81,20.89,60.17,34.29,94.6,39.19l7.15,31.65ZM1865.95,2100.1c-34.18-4.89-66.31-18.21-93.95-38.91l74.52-47.06,19.42,85.97ZM1846.1,2013.71l-74.58,47.1c-7.72-5.82-15.09-12.21-22.04-19.16-6.96-6.96-13.34-14.33-19.16-22.04l47.1-74.58c13.01,30.91,37.79,55.69,68.69,68.69ZM1729.94,2019.11c-20.71-27.63-34.02-59.77-38.91-93.95l85.97,19.42-47.06,74.52ZM1767.43,1895.42h0c0,17.18,3.4,33.59,9.56,48.58l-86.05-19.44c-1.34-9.57-2.04-19.3-2.04-29.14h0c0-9.84.69-19.57,2.04-29.14l86.05-19.44c-6.16,14.99-9.56,31.39-9.56,48.57ZM1691.02,1865.67c4.9-34.18,18.21-66.31,38.91-93.95l47.06,74.52-85.97,19.42ZM1777.41,1845.82l-47.1-74.58c5.82-7.72,12.21-15.09,19.16-22.04,6.96-6.96,14.33-13.34,22.04-19.16l74.58,47.1c-30.91,13.01-55.69,37.79-68.69,68.69ZM1846.53,1776.71l-74.52-47.06c27.63-20.71,59.77-34.02,93.95-38.91l-19.42,85.97ZM1873.24,1658.49l-7.15,31.65c-34.43,4.89-66.8,18.3-94.6,39.19l-27.18-17.17,53.67-53.67-53.67-53.67,27.18-17.17c27.81,20.89,60.17,34.29,94.6,39.19l7.15,31.65ZM1865.95,1626.24c-34.18-4.89-66.31-18.21-93.95-38.91l74.52-47.06,19.42,85.97ZM1846.1,1539.86l-74.58,47.1c-7.72-5.82-15.09-12.21-22.04-19.16-6.96-6.96-13.34-14.33-19.16-22.04l47.1-74.58c13.01,30.91,37.79,55.69,68.69,68.69ZM1729.94,1545.26c-20.71-27.63-34.02-59.77-38.91-93.95l85.97,19.42-47.06,74.52ZM1767.43,1421.56h0c0,17.18,3.4,33.59,9.56,48.58l-86.05-19.44c-1.34-9.57-2.04-19.3-2.04-29.14h0c0-9.84.69-19.57,2.04-29.14l86.05-19.44c-6.16,14.99-9.56,31.39-9.56,48.57ZM1691.02,1391.81c4.9-34.18,18.21-66.31,38.91-93.95l47.06,74.52-85.97,19.42ZM1777.41,1371.96l-47.1-74.58c5.82-7.72,12.21-15.09,19.16-22.04,6.96-6.96,14.33-13.34,22.04-19.16l74.58,47.1c-30.91,13.01-55.69,37.79-68.69,68.69ZM1846.53,1302.86l-74.52-47.06c27.63-20.71,59.77-34.02,93.95-38.91l-19.42,85.97ZM1873.24,1184.64l-7.15,31.65c-34.43,4.89-66.8,18.3-94.6,39.19l-27.18-17.17,53.67-53.67-53.67-53.67,27.18-17.17c27.81,20.89,60.17,34.29,94.6,39.19l7.15,31.65ZM1865.95,1152.39c-34.18-4.89-66.31-18.21-93.95-38.91l74.52-47.06,19.42,85.97ZM1846.1,1066l-74.58,47.1c-7.72-5.82-15.09-12.21-22.04-19.16-6.96-6.96-13.34-14.33-19.16-22.04l47.1-74.58c13.01,30.91,37.79,55.69,68.69,68.69ZM1729.94,1071.4c-20.71-27.63-34.02-59.77-38.91-93.95l85.97,19.42-47.06,74.52ZM1767.43,947.71h0c0,17.18,3.4,33.58,9.56,48.58l-86.05-19.44c-1.34-9.57-2.04-19.3-2.04-29.14h0c0-9.84.69-19.57,2.04-29.14l86.05-19.44c-6.16,14.99-9.56,31.39-9.56,48.57ZM1691.02,917.96c4.9-34.18,18.21-66.31,38.91-93.95l47.06,74.52-85.97,19.42ZM1777.41,898.11l-47.1-74.58c5.82-7.72,12.21-15.09,19.16-22.04,6.96-6.96,14.33-13.34,22.04-19.16l74.58,47.1c-30.91,13.01-55.69,37.79-68.69,68.69ZM1846.53,829.01l-74.52-47.06c27.63-20.71,59.77-34.02,93.95-38.91l-19.42,85.97ZM1873.24,710.78l-7.15,31.65c-34.43,4.89-66.8,18.3-94.6,39.19l-27.18-17.17,53.67-53.67-53.67-53.67,27.18-17.17c27.81,20.89,60.17,34.29,94.6,39.19l7.15,31.65ZM1865.95,678.53c-34.18-4.89-66.31-18.21-93.95-38.91l74.52-47.06,19.42,85.97ZM1846.1,592.15l-74.58,47.1c-7.72-5.82-15.09-12.21-22.04-19.16-6.96-6.96-13.34-14.33-19.16-22.04l47.1-74.58c13.01,30.91,37.79,55.69,68.69,68.69ZM1729.94,597.55c-20.71-27.63-34.02-59.77-38.91-93.95l85.97,19.42-47.06,74.52ZM1767.43,473.85h0c0,17.18,3.4,33.59,9.56,48.58l-86.05-19.44c-1.34-9.57-2.04-19.3-2.04-29.14h0c0-9.84.69-19.57,2.04-29.14l86.05-19.44c-6.16,14.99-9.56,31.39-9.56,48.57ZM1691.02,444.11c4.9-34.18,18.21-66.31,38.91-93.95l47.06,74.52-85.97,19.42ZM1777.41,424.25l-47.1-74.58c5.82-7.72,12.21-15.09,19.16-22.04,6.96-6.96,14.33-13.34,22.04-19.16l74.58,47.1c-30.91,13.01-55.69,37.79-68.69,68.69ZM1846.53,355.15l-74.52-47.06c27.63-20.71,59.77-34.02,93.95-38.91l-19.42,85.97ZM1873.24,236.93l-7.15,31.65c-34.43,4.89-66.8,18.3-94.6,39.19l-27.18-17.17,53.67-53.67-53.67-53.67,27.18-17.17c27.81,20.89,60.17,34.29,94.6,39.19l7.15,31.65ZM1865.95,204.68c-34.18-4.9-66.31-18.21-93.95-38.91l74.52-47.06,19.42,85.97ZM1816.89,0h0s-.58,0-.58,0h0c0,43.78,35.61,79.39,79.39,79.39h0v-.58h0c-43.46,0-78.81-35.35-78.81-78.81ZM1895.7,29.93c-16.5,0-29.93-13.42-29.93-29.93h0s-.58,0-.58,0h0c0,16.82,13.68,30.5,30.5,30.5h0v-.58h0ZM1847.1,0h0s-.58,0-.58,0h0c0,27.12,22.06,49.18,49.18,49.18h0v-.58h0c-26.8,0-48.6-21.8-48.6-48.6ZM947.99,443.35h0c-16.82,0-30.5,13.68-30.5,30.5h0c0,16.82,13.68,30.5,30.5,30.5h0c16.82,0,30.5-13.68,30.5-30.5h0c0-16.82-13.68-30.5-30.5-30.5ZM977.92,473.85h0c0,16.5-13.42,29.93-29.93,29.93h0c-16.5,0-29.93-13.42-29.93-29.93h0c0-16.5,13.42-29.93,29.93-29.93h0c16.5,0,29.93,13.42,29.93,29.93h0ZM947.99,424.68h0c-27.12,0-49.18,22.06-49.18,49.18h0c0,27.12,22.06,49.18,49.18,49.18h0c27.12,0,49.18-22.06,49.18-49.18h0c0-27.12-22.06-49.18-49.18-49.18ZM996.59,473.85h0c0,26.8-21.8,48.6-48.6,48.6h0c-26.8,0-48.6-21.8-48.6-48.6h0c0-26.8,21.8-48.6,48.6-48.6h0c26.8,0,48.6,21.8,48.6,48.6h0ZM947.99,394.46h0c-43.78,0-79.39,35.61-79.39,79.39h0c0,43.78,35.61,79.39,79.39,79.39h0c43.78,0,79.39-35.61,79.39-79.39h0c0-43.78-35.61-79.39-79.39-79.39ZM1026.81,473.85h0c0,43.46-35.35,78.81-78.81,78.81h0c-43.46,0-78.81-35.35-78.81-78.81h0c0-43.46,35.35-78.81,78.81-78.81h0c43.46,0,78.81,35.35,78.81,78.81h0ZM1421.85,424.68h0c-27.12,0-49.18,22.06-49.18,49.18h0c0,27.12,22.06,49.18,49.18,49.18h0c27.12,0,49.18-22.06,49.18-49.18h0c0-27.12-22.06-49.18-49.18-49.18ZM1470.45,473.85h0c0,26.8-21.8,48.6-48.6,48.6h0c-26.8,0-48.6-21.8-48.6-48.6h0c0-26.8,21.8-48.6,48.6-48.6h0c26.8,0,48.6,21.8,48.6,48.6h0ZM1421.85,394.46h0c-43.78,0-79.39,35.61-79.39,79.39h0c0,43.78,35.61,79.39,79.39,79.39h0c43.78,0,79.39-35.61,79.39-79.39h0c0-43.78-35.61-79.39-79.39-79.39ZM1500.66,473.85h0c0,43.46-35.35,78.81-78.81,78.81h0c-43.46,0-78.81-35.35-78.81-78.81h0c0-43.46,35.35-78.81,78.81-78.81h0c43.46,0,78.81,35.35,78.81,78.81h0ZM1421.85,443.35h0c-16.82,0-30.5,13.68-30.5,30.5h0c0,16.82,13.68,30.5,30.5,30.5h0c16.82,0,30.5-13.68,30.5-30.5h0c0-16.82-13.68-30.5-30.5-30.5ZM1451.77,473.85h0c0,16.5-13.42,29.93-29.93,29.93h0c-16.5,0-29.93-13.42-29.93-29.93h0c0-16.5,13.42-29.93,29.93-29.93h0c16.5,0,29.93,13.42,29.93,29.93h0ZM1816.31,473.85h0c0,43.78,35.61,79.39,79.39,79.39h0v-.58h0c-43.46,0-78.81-35.35-78.81-78.81h0c0-43.46,35.35-78.81,78.81-78.81h0v-.58h0c-43.78,0-79.39,35.61-79.39,79.39ZM1846.53,473.85h0c0,27.12,22.06,49.18,49.18,49.18h0v-.58h0c-26.8,0-48.6-21.8-48.6-48.6h0c0-26.8,21.8-48.6,48.6-48.6h0v-.58h0c-27.12,0-49.18,22.06-49.18,49.18ZM1865.2,473.85h0c0,16.82,13.68,30.5,30.5,30.5h0v-.58h0c-16.5,0-29.93-13.42-29.93-29.93h0c0-16.5,13.42-29.93,29.93-29.93h0v-.58h0c-16.82,0-30.5,13.68-30.5,30.5ZM30.79,473.86h0c0-16.82-13.68-30.5-30.5-30.5h0v.58h0c16.5,0,29.93,13.42,29.93,29.93h0c0,16.5-13.42,29.93-29.93,29.93h0v.58h0c16.82,0,30.5-13.68,30.5-30.5ZM49.46,473.86h0c0-27.12-22.06-49.18-49.18-49.18h0v.58h0c26.8,0,48.6,21.8,48.6,48.6h0c0,26.8-21.8,48.6-48.6,48.6h0v.58h0c27.12,0,49.18-22.06,49.18-49.18ZM79.68,473.86h0c0-43.78-35.61-79.39-79.39-79.39h0v.58h0c43.46,0,78.81,35.35,78.81,78.81h0c0,43.46-35.35,78.81-78.81,78.81h0v.58h0c43.78,0,79.39-35.61,79.39-79.39ZM474.14,443.35h0c-16.82,0-30.5,13.68-30.5,30.5h0c0,16.82,13.68,30.5,30.5,30.5h0c16.82,0,30.5-13.68,30.5-30.5h0c0-16.82-13.68-30.5-30.5-30.5ZM504.07,473.85h0c0,16.5-13.42,29.93-29.93,29.93h0c-16.5,0-29.93-13.42-29.93-29.93h0c0-16.5,13.42-29.93,29.93-29.93h0c16.5,0,29.93,13.42,29.93,29.93h0ZM474.14,394.46h0c-43.78,0-79.39,35.61-79.39,79.39h0c0,43.78,35.61,79.39,79.39,79.39h0c43.78,0,79.39-35.61,79.39-79.39h0c0-43.78-35.61-79.39-79.39-79.39ZM552.95,473.85h0c0,43.46-35.35,78.81-78.81,78.81h0c-43.46,0-78.81-35.35-78.81-78.81h0c0-43.46,35.35-78.81,78.81-78.81h0c43.46,0,78.81,35.35,78.81,78.81h0ZM474.14,424.68h0c-27.12,0-49.18,22.06-49.18,49.18h0c0,27.12,22.06,49.18,49.18,49.18h0c27.12,0,49.18-22.06,49.18-49.18h0c0-27.12-22.06-49.18-49.18-49.18ZM522.74,473.85h0c0,26.8-21.8,48.6-48.6,48.6h0c-26.8,0-48.6-21.8-48.6-48.6h0c0-26.8,21.8-48.6,48.6-48.6h0c26.8,0,48.6,21.8,48.6,48.6h0ZM947.99,868.32h0c-43.78,0-79.39,35.61-79.39,79.39h0c0,43.78,35.61,79.39,79.39,79.39h0c43.78,0,79.39-35.61,79.39-79.39h0c0-43.78-35.61-79.39-79.39-79.39ZM1026.81,947.71h0c0,43.46-35.35,78.81-78.81,78.81h0c-43.46,0-78.81-35.35-78.81-78.81h0c0-43.46,35.35-78.81,78.81-78.81h0c43.46,0,78.81,35.35,78.81,78.81h0ZM947.99,917.21h0c-16.82,0-30.5,13.68-30.5,30.5h0c0,16.82,13.68,30.5,30.5,30.5h0c16.82,0,30.5-13.68,30.5-30.5h0c0-16.82-13.68-30.5-30.5-30.5ZM977.92,947.71h0c0,16.5-13.42,29.93-29.93,29.93h0c-16.5,0-29.93-13.42-29.93-29.93h0c0-16.5,13.42-29.93,29.93-29.93h0c16.5,0,29.93,13.42,29.93,29.93h0ZM947.99,898.53h0c-27.12,0-49.18,22.06-49.18,49.18h0c0,27.12,22.06,49.18,49.18,49.18h0c27.12,0,49.18-22.06,49.18-49.18h0c0-27.12-22.06-49.18-49.18-49.18ZM996.59,947.71h0c0,26.8-21.8,48.6-48.6,48.6h0c-26.8,0-48.6-21.8-48.6-48.6h0c0-26.8,21.8-48.6,48.6-48.6h0c26.8,0,48.6,21.8,48.6,48.6h0ZM1421.85,917.21h0c-16.82,0-30.5,13.68-30.5,30.5h0c0,16.82,13.68,30.5,30.5,30.5h0c16.82,0,30.5-13.68,30.5-30.5h0c0-16.82-13.68-30.5-30.5-30.5ZM1451.77,947.71h0c0,16.5-13.42,29.93-29.93,29.93h0c-16.5,0-29.93-13.42-29.93-29.93h0c0-16.5,13.42-29.93,29.93-29.93h0c16.5,0,29.93,13.42,29.93,29.93h0ZM1421.85,868.32h0c-43.78,0-79.39,35.61-79.39,79.39h0c0,43.78,35.61,79.39,79.39,79.39h0c43.78,0,79.39-35.61,79.39-79.39h0c0-43.78-35.61-79.39-79.39-79.39ZM1500.66,947.71h0c0,43.46-35.35,78.81-78.81,78.81h0c-43.46,0-78.81-35.35-78.81-78.81h0c0-43.46,35.35-78.81,78.81-78.81h0c43.46,0,78.81,35.35,78.81,78.81h0ZM1421.85,898.53h0c-27.12,0-49.18,22.06-49.18,49.18h0c0,27.12,22.06,49.18,49.18,49.18h0c27.12,0,49.18-22.06,49.18-49.18h0c0-27.12-22.06-49.18-49.18-49.18ZM1470.45,947.71h0c0,26.8-21.8,48.6-48.6,48.6h0c-26.8,0-48.6-21.8-48.6-48.6h0c0-26.8,21.8-48.6,48.6-48.6h0c26.8,0,48.6,21.8,48.6,48.6h0ZM1816.31,947.71h0c0,43.78,35.61,79.39,79.39,79.39h0v-.58h0c-43.46,0-78.81-35.35-78.81-78.81h0c0-43.46,35.35-78.81,78.81-78.81h0v-.58h0c-43.78,0-79.39,35.61-79.39,79.39ZM1846.53,947.71h0c0,27.12,22.06,49.18,49.18,49.18h0v-.58h0c-26.8,0-48.6-21.8-48.6-48.6h0c0-26.8,21.8-48.6,48.6-48.6h0v-.58h0c-27.12,0-49.18,22.06-49.18,49.18ZM1865.2,947.71h0c0,16.82,13.68,30.5,30.5,30.5h0v-.58h0c-16.5,0-29.93-13.42-29.93-29.93h0c0-16.5,13.42-29.93,29.93-29.93h0v-.58h0c-16.82,0-30.5,13.68-30.5,30.5ZM30.79,947.71h0c0-16.82-13.68-30.5-30.5-30.5h0v.58h0c16.5,0,29.93,13.42,29.93,29.93h0c0,16.5-13.42,29.93-29.93,29.93h0v.58h0c16.82,0,30.5-13.68,30.5-30.5ZM79.68,947.71h0c0-43.78-35.61-79.39-79.39-79.39h0v.58h0c43.46,0,78.81,35.35,78.81,78.81h0c0,43.46-35.35,78.81-78.81,78.81h0v.58h0c43.78,0,79.39-35.61,79.39-79.39ZM49.46,947.71h0c0-27.12-22.06-49.18-49.18-49.18h0v.58h0c26.8,0,48.6,21.8,48.6,48.6h0c0,26.8-21.8,48.6-48.6,48.6h0v.58h0c27.12,0,49.18-22.06,49.18-49.18ZM474.14,1027.1h0c43.78,0,79.39-35.61,79.39-79.39h0c0-43.78-35.61-79.39-79.39-79.39h0c-43.78,0-79.39,35.61-79.39,79.39h0c0,43.78,35.61,79.39,79.39,79.39ZM395.33,947.71h0c0-43.46,35.35-78.81,78.81-78.81h0c43.46,0,78.81,35.35,78.81,78.81h0c0,43.46-35.35,78.81-78.81,78.81h0c-43.46,0-78.81-35.35-78.81-78.81h0ZM474.14,978.21h0c16.82,0,30.5-13.68,30.5-30.5h0c0-16.82-13.68-30.5-30.5-30.5h0c-16.82,0-30.5,13.68-30.5,30.5h0c0,16.82,13.68,30.5,30.5,30.5ZM444.21,947.71h0c0-16.5,13.42-29.93,29.93-29.93h0c16.5,0,29.93,13.42,29.93,29.93h0c0,16.5-13.42,29.93-29.93,29.93h0c-16.5,0-29.93-13.42-29.93-29.93h0ZM474.14,996.89h0c27.12,0,49.18-22.06,49.18-49.18h0c0-27.12-22.06-49.18-49.18-49.18h0c-27.12,0-49.18,22.06-49.18,49.18h0c0,27.12,22.06,49.18,49.18,49.18ZM425.54,947.71h0c0-26.8,21.8-48.6,48.6-48.6h0c26.8,0,48.6,21.8,48.6,48.6h0c0,26.8-21.8,48.6-48.6,48.6h0c-26.8,0-48.6-21.8-48.6-48.6h0ZM947.99,1470.74h0c27.12,0,49.18-22.06,49.18-49.18h0c0-27.12-22.06-49.18-49.18-49.18h0c-27.12,0-49.18,22.06-49.18,49.18h0c0,27.12,22.06,49.18,49.18,49.18ZM899.39,1421.56h0c0-26.8,21.8-48.6,48.6-48.6h0c26.8,0,48.6,21.8,48.6,48.6h0c0,26.8-21.8,48.6-48.6,48.6h0c-26.8,0-48.6-21.8-48.6-48.6h0ZM947.99,1452.07h0c16.82,0,30.5-13.68,30.5-30.5h0c0-16.82-13.68-30.5-30.5-30.5h0c-16.82,0-30.5,13.68-30.5,30.5h0c0,16.82,13.68,30.5,30.5,30.5ZM918.07,1421.56h0c0-16.5,13.42-29.93,29.93-29.93h0c16.5,0,29.93,13.42,29.93,29.93h0c0,16.5-13.42,29.93-29.93,29.93h0c-16.5,0-29.93-13.42-29.93-29.93h0ZM947.99,1500.95h0c43.78,0,79.39-35.61,79.39-79.39h0c0-43.78-35.61-79.39-79.39-79.39h0c-43.78,0-79.39,35.61-79.39,79.39h0c0,43.78,35.61,79.39,79.39,79.39ZM869.18,1421.56h0c0-43.46,35.35-78.81,78.81-78.81h0c43.46,0,78.81,35.35,78.81,78.81h0c0,43.46-35.35,78.81-78.81,78.81h0c-43.46,0-78.81-35.35-78.81-78.81h0ZM1421.85,1391.06h0c-16.82,0-30.5,13.68-30.5,30.5h0c0,16.82,13.68,30.5,30.5,30.5h0c16.82,0,30.5-13.68,30.5-30.5h0c0-16.82-13.68-30.5-30.5-30.5ZM1451.77,1421.56h0c0,16.5-13.42,29.93-29.93,29.93h0c-16.5,0-29.93-13.42-29.93-29.93h0c0-16.5,13.42-29.93,29.93-29.93h0c16.5,0,29.93,13.42,29.93,29.93h0ZM1421.85,1372.39h0c-27.12,0-49.18,22.06-49.18,49.18h0c0,27.12,22.06,49.18,49.18,49.18h0c27.12,0,49.18-22.06,49.18-49.18h0c0-27.12-22.06-49.18-49.18-49.18ZM1470.45,1421.56h0c0,26.8-21.8,48.6-48.6,48.6h0c-26.8,0-48.6-21.8-48.6-48.6h0c0-26.8,21.8-48.6,48.6-48.6h0c26.8,0,48.6,21.8,48.6,48.6h0ZM1421.85,1342.17h0c-43.78,0-79.39,35.61-79.39,79.39h0c0,43.78,35.61,79.39,79.39,79.39h0c43.78,0,79.39-35.61,79.39-79.39h0c0-43.78-35.61-79.39-79.39-79.39ZM1500.66,1421.56h0c0,43.46-35.35,78.81-78.81,78.81h0c-43.46,0-78.81-35.35-78.81-78.81h0c0-43.46,35.35-78.81,78.81-78.81h0c43.46,0,78.81,35.35,78.81,78.81h0ZM1846.53,1421.56h0c0,27.12,22.06,49.18,49.18,49.18h0v-.58h0c-26.8,0-48.6-21.8-48.6-48.6h0c0-26.8,21.8-48.6,48.6-48.6h0v-.58h0c-27.12,0-49.18,22.06-49.18,49.18ZM1865.2,1421.56h0c0,16.82,13.68,30.5,30.5,30.5h0v-.58h0c-16.5,0-29.93-13.42-29.93-29.93h0c0-16.5,13.42-29.93,29.93-29.93h0v-.58h0c-16.82,0-30.5,13.68-30.5,30.5ZM1816.31,1421.56h0c0,43.78,35.61,79.39,79.39,79.39h0v-.58h0c-43.46,0-78.81-35.35-78.81-78.81h0c0-43.46,35.35-78.81,78.81-78.81h0v-.58h0c-43.78,0-79.39,35.61-79.39,79.39ZM79.68,1421.56h0c0-43.78-35.61-79.39-79.39-79.39h0v.58h0c43.46,0,78.81,35.35,78.81,78.81h0c0,43.46-35.35,78.81-78.81,78.81h0v.58h0c43.78,0,79.39-35.61,79.39-79.39ZM30.79,1421.56h0c0-16.82-13.68-30.5-30.5-30.5h0v.58h0c16.5,0,29.93,13.42,29.93,29.93h0c0,16.5-13.42,29.93-29.93,29.93h0v.58h0c16.82,0,30.5-13.68,30.5-30.5ZM49.46,1421.56h0c0-27.12-22.06-49.18-49.18-49.18h0v.58h0c26.8,0,48.6,21.8,48.6,48.6h0c0,26.8-21.8,48.6-48.6,48.6h0v.58h0c27.12,0,49.18-22.06,49.18-49.18ZM474.14,1452.07h0c16.82,0,30.5-13.68,30.5-30.5h0c0-16.82-13.68-30.5-30.5-30.5h0c-16.82,0-30.5,13.68-30.5,30.5h0c0,16.82,13.68,30.5,30.5,30.5ZM444.21,1421.56h0c0-16.5,13.42-29.93,29.93-29.93h0c16.5,0,29.93,13.42,29.93,29.93h0c0,16.5-13.42,29.93-29.93,29.93h0c-16.5,0-29.93-13.42-29.93-29.93h0ZM474.14,1470.74h0c27.12,0,49.18-22.06,49.18-49.18h0c0-27.12-22.06-49.18-49.18-49.18h0c-27.12,0-49.18,22.06-49.18,49.18h0c0,27.12,22.06,49.18,49.18,49.18ZM425.54,1421.56h0c0-26.8,21.8-48.6,48.6-48.6h0c26.8,0,48.6,21.8,48.6,48.6h0c0,26.8-21.8,48.6-48.6,48.6h0c-26.8,0-48.6-21.8-48.6-48.6h0ZM474.14,1500.95h0c43.78,0,79.39-35.61,79.39-79.39h0c0-43.78-35.61-79.39-79.39-79.39h0c-43.78,0-79.39,35.61-79.39,79.39h0c0,43.78,35.61,79.39,79.39,79.39ZM395.33,1421.56h0c0-43.46,35.35-78.81,78.81-78.81h0c43.46,0,78.81,35.35,78.81,78.81h0c0,43.46-35.35,78.81-78.81,78.81h0c-43.46,0-78.81-35.35-78.81-78.81h0ZM1421.85,1944.59h0c27.12,0,49.18-22.06,49.18-49.18h0c0-27.12-22.06-49.18-49.18-49.18h0c-27.12,0-49.18,22.06-49.18,49.18h0c0,27.12,22.06,49.18,49.18,49.18ZM1373.25,1895.42h0c0-26.8,21.8-48.6,48.6-48.6h0c26.8,0,48.6,21.8,48.6,48.6h0c0,26.8-21.8,48.6-48.6,48.6h0c-26.8,0-48.6-21.8-48.6-48.6h0ZM1421.85,1974.81h0c43.78,0,79.39-35.61,79.39-79.39h0c0-43.78-35.61-79.39-79.39-79.39h0c-43.78,0-79.39,35.61-79.39,79.39h0c0,43.78,35.61,79.39,79.39,79.39ZM1343.04,1895.42h0c0-43.46,35.35-78.81,78.81-78.81h0c43.46,0,78.81,35.35,78.81,78.81h0c0,43.46-35.35,78.81-78.81,78.81h0c-43.46,0-78.81-35.35-78.81-78.81h0ZM1421.85,1925.92h0c16.82,0,30.5-13.68,30.5-30.5h0c0-16.82-13.68-30.5-30.5-30.5h0c-16.82,0-30.5,13.68-30.5,30.5h0c0,16.82,13.68,30.5,30.5,30.5ZM1391.92,1895.42h0c0-16.5,13.42-29.93,29.93-29.93h0c16.5,0,29.93,13.42,29.93,29.93h0c0,16.5-13.42,29.93-29.93,29.93h0c-16.5,0-29.93-13.42-29.93-29.93h0ZM1816.31,1895.42h0c0,43.78,35.61,79.39,79.39,79.39h0v-.58h0c-43.46,0-78.81-35.35-78.81-78.81h0c0-43.46,35.35-78.81,78.81-78.81h0v-.58h0c-43.78,0-79.39,35.61-79.39,79.39ZM1846.53,1895.42h0c0,27.12,22.06,49.18,49.18,49.18h0v-.58h0c-26.8,0-48.6-21.8-48.6-48.6h0c0-26.8,21.8-48.6,48.6-48.6h0v-.58h0c-27.12,0-49.18,22.06-49.18,49.18ZM1865.2,1895.42h0c0,16.82,13.68,30.5,30.5,30.5h0v-.58h0c-16.5,0-29.93-13.42-29.93-29.93h0c0-16.5,13.42-29.93,29.93-29.93h0v-.58h0c-16.82,0-30.5,13.68-30.5,30.5ZM30.79,1895.42h0c0-16.82-13.68-30.5-30.5-30.5h0v.58h0c16.5,0,29.93,13.42,29.93,29.93h0c0,16.5-13.42,29.93-29.93,29.93h0v.58h0c16.82,0,30.5-13.68,30.5-30.5ZM49.46,1895.42h0c0-27.12-22.06-49.18-49.18-49.18h0v.58h0c26.8,0,48.6,21.8,48.6,48.6h0c0,26.8-21.8,48.6-48.6,48.6h0v.58h0c27.12,0,49.18-22.06,49.18-49.18ZM79.68,1895.42h0c0-43.78-35.61-79.39-79.39-79.39h0v.58h0c43.46,0,78.81,35.35,78.81,78.81h0c0,43.46-35.35,78.81-78.81,78.81h0v.58h0c43.78,0,79.39-35.61,79.39-79.39ZM474.14,1944.59h0c27.12,0,49.18-22.06,49.18-49.18h0c0-27.12-22.06-49.18-49.18-49.18h0c-27.12,0-49.18,22.06-49.18,49.18h0c0,27.12,22.06,49.18,49.18,49.18ZM425.54,1895.42h0c0-26.8,21.8-48.6,48.6-48.6h0c26.8,0,48.6,21.8,48.6,48.6h0c0,26.8-21.8,48.6-48.6,48.6h0c-26.8,0-48.6-21.8-48.6-48.6h0ZM474.14,1925.92h0c16.82,0,30.5-13.68,30.5-30.5h0c0-16.82-13.68-30.5-30.5-30.5h0c-16.82,0-30.5,13.68-30.5,30.5h0c0,16.82,13.68,30.5,30.5,30.5ZM444.21,1895.42h0c0-16.5,13.42-29.93,29.93-29.93h0c16.5,0,29.93,13.42,29.93,29.93h0c0,16.5-13.42,29.93-29.93,29.93h0c-16.5,0-29.93-13.42-29.93-29.93h0ZM474.14,1974.81h0c43.78,0,79.39-35.61,79.39-79.39h0c0-43.78-35.61-79.39-79.39-79.39h0c-43.78,0-79.39,35.61-79.39,79.39h0c0,43.78,35.61,79.39,79.39,79.39ZM395.33,1895.42h0c0-43.46,35.35-78.81,78.81-78.81h0c43.46,0,78.81,35.35,78.81,78.81h0c0,43.46-35.35,78.81-78.81,78.81h0c-43.46,0-78.81-35.35-78.81-78.81h0ZM947.99,1974.81h0c43.78,0,79.39-35.61,79.39-79.39h0c0-43.78-35.61-79.39-79.39-79.39h0c-43.78,0-79.39,35.61-79.39,79.39h0c0,43.78,35.61,79.39,79.39,79.39ZM869.18,1895.42h0c0-43.46,35.35-78.81,78.81-78.81h0c43.46,0,78.81,35.35,78.81,78.81h0c0,43.46-35.35,78.81-78.81,78.81h0c-43.46,0-78.81-35.35-78.81-78.81h0ZM947.99,1925.92h0c16.82,0,30.5-13.68,30.5-30.5h0c0-16.82-13.68-30.5-30.5-30.5h0c-16.82,0-30.5,13.68-30.5,30.5h0c0,16.82,13.68,30.5,30.5,30.5ZM918.07,1895.42h0c0-16.5,13.42-29.93,29.93-29.93h0c16.5,0,29.93,13.42,29.93,29.93h0c0,16.5-13.42,29.93-29.93,29.93h0c-16.5,0-29.93-13.42-29.93-29.93h0ZM947.99,1944.59h0c27.12,0,49.18-22.06,49.18-49.18h0c0-27.12-22.06-49.18-49.18-49.18h0c-27.12,0-49.18,22.06-49.18,49.18h0c0,27.12,22.06,49.18,49.18,49.18ZM899.39,1895.42h0c0-26.8,21.8-48.6,48.6-48.6h0c26.8,0,48.6,21.8,48.6,48.6h0c0,26.8-21.8,48.6-48.6,48.6h0c-26.8,0-48.6-21.8-48.6-48.6h0ZM.29,2320.1h0v.58h0c26.8,0,48.6,21.8,48.6,48.6h0s.58,0,.58,0h0c0-27.12-22.06-49.18-49.18-49.18ZM.29,2338.77h0v.58h0c16.5,0,29.93,13.42,29.93,29.93h0s.58,0,.58,0h0c0-16.82-13.68-30.5-30.5-30.5ZM.29,2289.88h0v.58h0c43.46,0,78.81,35.35,78.81,78.81h0s.58,0,.58,0h0c0-43.78-35.61-79.39-79.39-79.39ZM474.14,2289.88h0c-43.78,0-79.39,35.61-79.39,79.39h0s.58,0,.58,0h0c0-43.46,35.35-78.81,78.81-78.81h0c43.46,0,78.81,35.35,78.81,78.81h0s.58,0,.58,0h0c0-43.78-35.61-79.39-79.39-79.39ZM474.14,2338.77h0c-16.82,0-30.5,13.68-30.5,30.5h0s.58,0,.58,0h0c0-16.5,13.42-29.93,29.93-29.93h0c16.5,0,29.93,13.42,29.93,29.93h0s.58,0,.58,0h0c0-16.82-13.68-30.5-30.5-30.5ZM474.14,2320.1h0c-27.12,0-49.18,22.06-49.18,49.18h0s.58,0,.58,0h0c0-26.8,21.8-48.6,48.6-48.6h0c26.8,0,48.6,21.8,48.6,48.6h0s.58,0,.58,0h0c0-27.12-22.06-49.18-49.18-49.18ZM947.99,2320.1h0c-27.12,0-49.18,22.06-49.18,49.18h0s.58,0,.58,0h0c0-26.8,21.8-48.6,48.6-48.6h0c26.8,0,48.6,21.8,48.6,48.6h0s.58,0,.58,0h0c0-27.12-22.06-49.18-49.18-49.18ZM947.99,2289.88h0c-43.78,0-79.39,35.61-79.39,79.39h0s.58,0,.58,0h0c0-43.46,35.35-78.81,78.81-78.81h0c43.46,0,78.81,35.35,78.81,78.81h0s.58,0,.58,0h0c0-43.78-35.61-79.39-79.39-79.39ZM947.99,2338.77h0c-16.82,0-30.5,13.68-30.5,30.5h0s.58,0,.58,0h0c0-16.5,13.42-29.93,29.93-29.93h0c16.5,0,29.93,13.42,29.93,29.93h0s.58,0,.58,0h0c0-16.82-13.68-30.5-30.5-30.5ZM1421.85,2289.88h0c-43.78,0-79.39,35.61-79.39,79.39h0s.58,0,.58,0h0c0-43.46,35.35-78.81,78.81-78.81h0c43.46,0,78.81,35.35,78.81,78.81h0s.58,0,.58,0h0c0-43.78-35.61-79.39-79.39-79.39ZM1421.85,2320.1h0c-27.12,0-49.18,22.06-49.18,49.18h0s.58,0,.58,0h0c0-26.8,21.8-48.6,48.6-48.6h0c26.8,0,48.6,21.8,48.6,48.6h0s.58,0,.58,0h0c0-27.12-22.06-49.18-49.18-49.18ZM1421.85,2338.77h0c-16.82,0-30.5,13.68-30.5,30.5h0s.58,0,.58,0h0c0-16.5,13.42-29.93,29.93-29.93h0c16.5,0,29.93,13.42,29.93,29.93h0s.58,0,.58,0h0c0-16.82-13.68-30.5-30.5-30.5ZM1846.53,2369.27h0s.58,0,.58,0h0c0-26.8,21.8-48.6,48.6-48.6h0v-.58h0c-27.12,0-49.18,22.06-49.18,49.18ZM1816.31,2369.27h0s.58,0,.58,0h0c0-43.46,35.35-78.81,78.81-78.81h0v-.58h0c-43.78,0-79.39,35.61-79.39,79.39ZM1865.2,2369.27h0s.58,0,.58,0h0c0-16.5,13.42-29.93,29.93-29.93h0v-.58h0c-16.82,0-30.5,13.68-30.5,30.5Z"/>
</svg>