<?xml version="1.0" encoding="UTF-8"?>
<svg id="uuid-3f9399ca-4cb8-4875-b7ff-89195ebcaa24" data-name="uuid-66277e5b-8890-4b46-853e-4979bddd00f2" xmlns="http://www.w3.org/2000/svg" width="692.39" height="692.39" viewBox="0 0 692.39 692.39">
  <defs>
    <style>
      .uuid-1b60db09-6e3c-4bda-a90a-d77d46b8b382 {
        fill: none;
        stroke: #535267;
        stroke-miterlimit: 10;
      }
    </style>
  </defs>
  <polygon class="uuid-1b60db09-6e3c-4bda-a90a-d77d46b8b382" points="346.2 2.27 396.47 224.83 589.39 103 467.56 295.92 690.12 346.2 467.56 396.47 589.39 589.39 396.47 467.56 346.2 690.12 295.92 467.56 103 589.39 224.83 396.47 2.27 346.2 224.83 295.92 103 103 295.92 224.83 346.2 2.27"/>
  <circle class="uuid-1b60db09-6e3c-4bda-a90a-d77d46b8b382" cx="346.2" cy="346.2" r="131.32" transform="translate(-44.55 641.19) rotate(-82.05)"/>
  <circle class="uuid-1b60db09-6e3c-4bda-a90a-d77d46b8b382" cx="346.2" cy="346.2" r="210.75" transform="translate(-143.4 346.2) rotate(-45)"/>
  <circle class="uuid-1b60db09-6e3c-4bda-a90a-d77d46b8b382" cx="346.2" cy="346.2" r="80.45" transform="translate(-133.68 443.29) rotate(-56.44)"/>
  <circle class="uuid-1b60db09-6e3c-4bda-a90a-d77d46b8b382" cx="346.2" cy="346.2" r="49.35" transform="translate(-76.51 593.22) rotate(-75.3)"/>
  <circle class="uuid-1b60db09-6e3c-4bda-a90a-d77d46b8b382" cx="346.2" cy="346.2" r="30.75" transform="translate(-15.54 16.27) rotate(-2.63)"/>
</svg>