<?xml version="1.0" encoding="UTF-8"?>
<svg id="uuid-5d859ca0-d014-4f9b-a358-fae63c722b76" data-name="Calque 1" xmlns="http://www.w3.org/2000/svg" width="1133.13" height="207.74" viewBox="0 0 1133.13 207.74">
  <defs>
    <style>
      .uuid-6e007c4a-1937-4b72-9637-05a5efc442ae {
        fill: #fae8d2;
      }

      .uuid-4a620678-7f38-44d3-b943-60982d44e1d1 {
        fill: #3d275c;
      }

      .uuid-0ea6c0e1-adf2-4296-8a6c-e304afb26e41 {
        fill: #5c6f57;
      }

      .uuid-68ea2694-dcd9-448f-8509-506f6a56b30b {
        fill: #a4b3af;
      }
    </style>
  </defs>
  <path class="uuid-4a620678-7f38-44d3-b943-60982d44e1d1" d="M83.62,174.16h-12.85l-.21,6.58h2.45l.87-4.48h4.89c0,.49.01.98.01,1.47v16.12c0,.44,0,.88-.01,1.33l-3.52.2v2.03h11.87v-2.03l-3.53-.19c0-.45-.02-.9-.02-1.35-.01-1.19-.02-2.39-.02-3.59v-8.98c0-1.19,0-2.38.02-3.57,0-.48.01-.96.02-1.43h4.87l.87,4.48h2.45l-.21-6.58h-7.95ZM122.16,174.16h-3.01v2.03l3.04.18c0,.46.02.91.02,1.37.01,1.2.02,2.41.02,3.62v3.08h-10.05v-3.1c0-1.2,0-2.4.02-3.61,0-.46.01-.92.02-1.38l3.04-.18v-2.03h-10.99v2.03l3.11.19c0,.45.02.9.02,1.35.01,1.19.02,2.38.02,3.57v8.98c0,1.2,0,2.39-.02,3.57,0,.44-.01.89-.02,1.33l-3.11.19v2.03h10.99v-2.03l-3.04-.18c0-.49-.02-.98-.02-1.46-.01-1.21-.02-2.44-.02-3.69v-3.45h10.05v3.47c0,1.26,0,2.5-.02,3.71,0,.48-.01.95-.02,1.43l-3.04.18v2.03h10.99v-2.03l-3.13-.19c0-.45,0-.9,0-1.35-.01-1.19-.02-2.39-.02-3.59v-8.98c0-1.19,0-2.38.02-3.57,0-.44,0-.88,0-1.32l3.13-.19v-2.03h-7.98ZM159.39,195.3h-8.29c0-.5,0-.99,0-1.49-.01-1.2-.02-2.41-.02-3.62v-3.64h4.56l.51,2.94h2.07v-7.95h-2.07l-.53,2.94h-4.55v-3.22c0-1.19,0-2.38.02-3.57,0-.48,0-.96,0-1.43h7.6l.88,4.1h2.45l-.28-6.2h-18.62v2.03l3.14.19c0,.45.01.9.01,1.35v16.12c0,.44,0,.89-.01,1.33l-3.14.19v2.03h19.32l.28-6.37h-2.45l-.89,4.27ZM212.16,174.16h-3.01v2.03l3.04.18c0,.46.02.91.02,1.37.01,1.2.02,2.41.02,3.62v3.08h-10.05v-3.1c0-1.2,0-2.4.02-3.61,0-.46.01-.92.02-1.38l3.04-.18v-2.03h-10.99v2.03l3.11.19c0,.45.02.9.02,1.35.01,1.19.02,2.38.02,3.57v8.98c0,1.2,0,2.39-.02,3.57,0,.44-.01.89-.02,1.33l-3.11.19v2.03h10.99v-2.03l-3.04-.18c0-.49-.02-.98-.02-1.46-.01-1.21-.02-2.44-.02-3.69v-3.45h10.05v3.47c0,1.26,0,2.5-.02,3.71,0,.48-.01.95-.02,1.43l-3.04.18v2.03h10.99v-2.03l-3.13-.19c0-.45,0-.9,0-1.35-.01-1.19-.02-2.39-.02-3.59v-8.98c0-1.19,0-2.38.02-3.57,0-.44,0-.88,0-1.32l3.13-.19v-2.03h-7.98ZM252.19,176.68c-1.06-1.03-2.28-1.8-3.66-2.31-1.38-.51-2.84-.77-4.38-.77s-3,.27-4.38.81c-1.38.54-2.6,1.33-3.66,2.38-1.06,1.05-1.9,2.33-2.5,3.85-.61,1.52-.91,3.24-.91,5.18s.3,3.73.89,5.23c.59,1.5,1.43,2.77,2.5,3.8,1.07,1.03,2.3,1.8,3.68,2.33,1.38.53,2.84.79,4.38.79s3-.27,4.38-.81c1.38-.54,2.6-1.34,3.66-2.4,1.06-1.06,1.9-2.35,2.5-3.87.61-1.52.91-3.24.91-5.18s-.3-3.73-.91-5.23c-.61-1.5-1.44-2.77-2.5-3.8ZM250.14,189.7c-.26,1.21-.64,2.28-1.16,3.2-.51.92-1.17,1.64-1.98,2.15-.81.51-1.76.77-2.85.77s-2.05-.26-2.85-.77c-.81-.51-1.47-1.23-2-2.15-.53-.92-.91-2-1.16-3.22-.25-1.23-.37-2.54-.37-3.94s.12-2.71.37-3.92c.25-1.21.63-2.28,1.16-3.19.52-.91,1.19-1.62,2-2.13.81-.51,1.76-.77,2.85-.77s2.05.26,2.85.77c.81.51,1.46,1.23,1.98,2.15.51.92.9,1.99,1.16,3.2.26,1.21.38,2.52.38,3.92s-.13,2.71-.38,3.92ZM287.01,174.16h-3.71v2.03l3.71.24v7.88l.34,6.95-11.68-17.1h-7.35v2.03l2.98.12v18.83l-3.15.23v2.03h9.14v-2.03l-3.71-.25v-8.5l-.36-8.51h.01l13.34,19.46h2.73v-21.15l3.12-.24v-2.03h-5.39ZM324.09,176.68c-1.06-1.03-2.28-1.8-3.66-2.31-1.38-.51-2.84-.77-4.38-.77s-3,.27-4.38.81c-1.38.54-2.6,1.33-3.66,2.38-1.06,1.05-1.9,2.33-2.5,3.85-.61,1.52-.91,3.24-.91,5.18s.3,3.73.89,5.23c.59,1.5,1.43,2.77,2.5,3.8,1.07,1.03,2.3,1.8,3.68,2.33,1.38.53,2.84.79,4.38.79s3-.27,4.38-.81c1.38-.54,2.6-1.34,3.66-2.4,1.06-1.06,1.9-2.35,2.5-3.87.61-1.52.91-3.24.91-5.18s-.3-3.73-.91-5.23c-.61-1.5-1.44-2.77-2.5-3.8ZM322.05,189.7c-.26,1.21-.64,2.28-1.16,3.2-.51.92-1.17,1.64-1.98,2.15-.81.51-1.76.77-2.85.77s-2.05-.26-2.85-.77c-.81-.51-1.47-1.23-2-2.15-.53-.92-.91-2-1.16-3.22-.25-1.23-.37-2.54-.37-3.94s.12-2.71.37-3.92c.25-1.21.63-2.28,1.16-3.19.52-.91,1.19-1.62,2-2.13.81-.51,1.76-.77,2.85-.77s2.05.26,2.85.77c.81.51,1.46,1.23,1.98,2.15.51.92.9,1.99,1.16,3.2.26,1.21.38,2.52.38,3.92s-.13,2.71-.38,3.92ZM359.01,174.16h-3.5v2.03l3.5.18v11.37c0,1.8-.22,3.25-.67,4.36-.44,1.11-1.09,1.92-1.94,2.43-.85.51-1.87.77-3.06.77s-2.21-.25-3.05-.74c-.84-.49-1.48-1.27-1.93-2.34-.44-1.07-.67-2.5-.67-4.27v-6.74c0-1.18,0-2.36.02-3.54,0-.43,0-.86,0-1.28l3.41-.2v-2.03h-11.24v2.03l3.01.19c0,.44.02.87.02,1.32.01,1.19.02,2.37.02,3.54v7.46c0,2.12.38,3.87,1.14,5.25.76,1.38,1.83,2.39,3.22,3.05,1.39.65,3,.98,4.85.98s3.55-.36,4.92-1.07c1.37-.71,2.41-1.8,3.13-3.27.72-1.47,1.08-3.33,1.08-5.57v-11.7l3.12-.17v-2.03h-5.39ZM395.46,190.65c-.21-.91-.47-1.67-.79-2.28-.31-.61-.72-1.09-1.21-1.45-.49-.36-1.1-.63-1.82-.81-.72-.17-1.6-.27-2.63-.3v-.21c1.66-.07,3.07-.34,4.24-.82,1.17-.48,2.05-1.12,2.66-1.92.61-.81.91-1.73.91-2.78,0-1.87-.79-3.32-2.36-4.36-1.58-1.04-3.83-1.56-6.77-1.56h-11.06v2.03l3.14.2c0,.45.01.89.01,1.34v16.1c0,.45,0,.9-.01,1.35l-3.14.19v2.03h11.06v-2.03l-3.13-.19c0-.47,0-.94,0-1.41-.01-1.2-.02-2.42-.02-3.64v-3.34h2.07c.79,0,1.45.1,1.96.3.51.2.93.54,1.26,1.02.33.48.58,1.16.77,2.05l.98,4.34c.26,1.21.76,2.07,1.51,2.56.75.49,1.82.73,3.22.73.44,0,.86-.02,1.24-.05.39-.04.75-.08,1.09-.14.34-.06.67-.12,1-.19v-1.96l-2.99-.26-1.17-4.53ZM386.91,184.83h-2.38v-3.41c0-1.23,0-2.44.02-3.66,0-.52,0-1.03,0-1.54h2.5c1.68,0,2.93.34,3.75,1.01.82.68,1.23,1.72,1.23,3.12,0,.89-.18,1.67-.54,2.34-.36.68-.92,1.2-1.66,1.58-.75.37-1.72.56-2.91.56ZM425.28,174.05h-3.71l-7.37,21.1-2.78.22v2.03h8.16v-2.03l-3.1-.23,1.58-4.74h8.15l1.6,4.79-3.22.18v2.03h10.82v-2.03l-2.62-.14-7.49-21.18ZM418.74,188.33l2.45-7.35.72-3.47,3.61,10.82h-6.77ZM464.35,186.04c-1.28-.43-2.86-.68-4.73-.75v-.21c1.59-.09,2.92-.36,4.01-.8,1.09-.44,1.91-1.05,2.49-1.82.57-.77.86-1.69.86-2.76,0-1.14-.33-2.13-1-2.96-.67-.83-1.65-1.46-2.94-1.91-1.29-.44-2.86-.67-4.71-.67h-10.92v2.03l3.14.2c0,.45.01.89.01,1.34v16.1c0,.45,0,.89-.01,1.34l-3.14.2v2.03h10.4c1.84,0,3.42-.16,4.74-.49,1.32-.33,2.4-.79,3.24-1.4.84-.61,1.46-1.31,1.87-2.1.41-.79.61-1.64.61-2.55,0-1.19-.33-2.18-1-2.98s-1.64-1.41-2.92-1.84ZM455.32,181.3c0-1.19,0-2.39.02-3.59,0-.5,0-.99,0-1.49h2.11c1.07,0,1.97.14,2.68.42.71.28,1.25.71,1.61,1.28.36.57.54,1.33.54,2.26s-.19,1.67-.56,2.29c-.37.62-.94,1.09-1.7,1.4-.76.32-1.72.47-2.89.47h-1.82v-3.04ZM461.88,194.18c-.99.77-2.51,1.16-4.57,1.16h-1.97c0-.51,0-1.03,0-1.54-.01-1.19-.02-2.4-.02-3.62v-3.83h2.03c2.08,0,3.6.38,4.57,1.14.97.76,1.45,1.89,1.45,3.38s-.5,2.55-1.49,3.33ZM496.26,195.27h-7.66c0-.47,0-.95,0-1.42-.01-1.18-.02-2.35-.02-3.5v-9.08c0-1.19,0-2.38.02-3.55,0-.44,0-.88,0-1.32l3.48-.2v-2.03h-11.45v2.03l3.14.19c0,.44.01.87.01,1.31v16.14c0,.45,0,.9-.01,1.35l-3.14.19v2.03h18.83l.31-7.04h-2.49l-1.03,4.9ZM528.6,195.3h-8.29c0-.5,0-.99,0-1.49-.01-1.2-.02-2.41-.02-3.62v-3.64h4.56l.51,2.94h2.07v-7.95h-2.07l-.53,2.94h-4.55v-3.22c0-1.19,0-2.38.02-3.57,0-.48,0-.96,0-1.43h7.6l.88,4.1h2.45l-.28-6.2h-18.62v2.03l3.14.19c0,.45.01.9.01,1.35v16.12c0,.44,0,.89-.01,1.33l-3.14.19v2.03h19.32l.28-6.37h-2.45l-.89,4.27ZM588.66,174.16h-3.68l-5.15,13.93-1.27,3.82-6.71-17.75h-8.23v2.03l2.98.21v18.73l-3.29.24v2.03h8.72v-2.03l-3.12-.24v-9.57l-.42-8.13,7.57,19.96h2.56l5.99-16.17,1.18-3.63-.03,8.7v3.66c0,1.22,0,2.46-.02,3.69,0,.5-.01,1.01-.02,1.51l-3.04.21v2.03h10.92v-2.03l-3.13-.2c0-.45,0-.89,0-1.34-.01-1.19-.02-2.39-.02-3.59v-8.98c0-1.19,0-2.38.02-3.57,0-.44,0-.87,0-1.31l3.13-.2v-2.03h-4.94ZM622.84,195.3h-8.29c0-.5,0-.99,0-1.49-.01-1.2-.02-2.41-.02-3.62v-3.64h4.56l.51,2.94h2.07v-7.95h-2.07l-.53,2.94h-4.55v-3.22c0-1.19,0-2.38.02-3.57,0-.48,0-.96,0-1.43h7.6l.88,4.1h2.45l-.28-6.2h-18.62v2.03l3.14.19c0,.45.01.9.01,1.35v16.12c0,.44,0,.89-.01,1.33l-3.14.19v2.03h19.32l.28-6.37h-2.45l-.89,4.27ZM658.07,190.65c-.21-.91-.47-1.67-.79-2.28-.31-.61-.72-1.09-1.21-1.45-.49-.36-1.1-.63-1.82-.81-.72-.17-1.6-.27-2.63-.3v-.21c1.66-.07,3.07-.34,4.24-.82,1.17-.48,2.05-1.12,2.66-1.92.61-.81.91-1.73.91-2.78,0-1.87-.79-3.32-2.36-4.36-1.58-1.04-3.83-1.56-6.77-1.56h-11.06v2.03l3.14.2c0,.45.01.89.01,1.34v16.1c0,.45,0,.9-.01,1.35l-3.14.19v2.03h11.06v-2.03l-3.13-.19c0-.47,0-.94,0-1.41-.01-1.2-.02-2.42-.02-3.64v-3.34h2.07c.79,0,1.45.1,1.96.3.51.2.93.54,1.26,1.02.33.48.58,1.16.77,2.05l.98,4.34c.26,1.21.76,2.07,1.51,2.56.75.49,1.82.73,3.22.73.44,0,.86-.02,1.24-.05.39-.04.75-.08,1.09-.14.34-.06.67-.12,1-.19v-1.96l-2.99-.26-1.17-4.53ZM649.53,184.83h-2.38v-3.41c0-1.23,0-2.44.02-3.66,0-.52,0-1.03,0-1.54h2.5c1.68,0,2.93.34,3.75,1.01.82.68,1.23,1.72,1.23,3.12,0,.89-.18,1.67-.54,2.34-.36.68-.92,1.2-1.66,1.58-.75.37-1.72.56-2.91.56ZM690.95,195.06c-.21.08-.4.19-.62.26-1.02.34-2.11.51-3.27.51-1.54,0-2.91-.37-4.11-1.12-1.2-.75-2.15-1.87-2.84-3.36-.69-1.49-1.03-3.36-1.03-5.6s.36-4.1,1.09-5.58c.72-1.48,1.7-2.59,2.94-3.33,1.24-.74,2.6-1.1,4.1-1.1,1.05,0,2.04.17,2.96.51.15.05.29.12.44.18l.94,4.1h2.49l-.17-5.29c-.91-.51-1.97-.92-3.19-1.21-1.21-.29-2.54-.44-3.99-.44-1.73,0-3.36.26-4.9.79-1.54.53-2.89,1.32-4.06,2.38-1.17,1.06-2.08,2.35-2.73,3.87-.65,1.52-.98,3.27-.98,5.25s.31,3.69.94,5.2c.63,1.5,1.51,2.77,2.64,3.78,1.13,1.02,2.46,1.79,3.97,2.31s3.17.79,4.97.79c1.66,0,3.12-.16,4.39-.47,1.27-.32,2.35-.71,3.24-1.17l.17-5.36h-2.49l-.91,4.1ZM725.29,174.16h-3.01v2.03l3.04.18c0,.46.02.91.02,1.37.01,1.2.02,2.41.02,3.62v3.08h-10.05v-3.1c0-1.2,0-2.4.02-3.61,0-.46.01-.92.02-1.38l3.04-.18v-2.03h-10.99v2.03l3.11.19c0,.45.02.9.02,1.35.01,1.19.02,2.38.02,3.57v8.98c0,1.2,0,2.39-.02,3.57,0,.44-.01.89-.02,1.33l-3.11.19v2.03h10.99v-2.03l-3.04-.18c0-.49-.02-.98-.02-1.46-.01-1.21-.02-2.44-.02-3.69v-3.45h10.05v3.47c0,1.26,0,2.5-.02,3.71,0,.48-.01.95-.02,1.43l-3.04.18v2.03h10.99v-2.03l-3.13-.19c0-.45,0-.9,0-1.35-.01-1.19-.02-2.39-.02-3.59v-8.98c0-1.19,0-2.38.02-3.57,0-.44,0-.88,0-1.32l3.13-.19v-2.03h-7.98ZM759.28,174.05h-3.71l-7.37,21.1-2.78.22v2.03h8.16v-2.03l-3.1-.23,1.58-4.74h8.15l1.6,4.79-3.22.18v2.03h10.82v-2.03l-2.62-.14-7.49-21.18ZM752.74,188.33l2.45-7.35.72-3.47,3.61,10.82h-6.77ZM800.41,174.16h-3.71v2.03l3.71.24v7.88l.34,6.95-11.68-17.1h-7.35v2.03l2.98.12v18.83l-3.15.23v2.03h9.14v-2.03l-3.71-.25v-8.5l-.36-8.51h.01l13.34,19.46h2.73v-21.15l3.12-.24v-2.03h-5.39ZM831.18,174.16h-12.85l-.21,6.58h2.45l.87-4.48h4.89c0,.49.01.98.01,1.47v16.12c0,.44,0,.88-.01,1.33l-3.52.2v2.03h11.87v-2.03l-3.53-.19c0-.45-.02-.9-.02-1.35-.01-1.19-.02-2.39-.02-3.59v-8.98c0-1.19,0-2.38.02-3.57,0-.48.01-.96.02-1.43h4.87l.87,4.48h2.45l-.21-6.58h-7.95ZM865.45,185.46c-1.03-.65-2.26-1.27-3.71-1.86l-1.29-.52c-.86-.35-1.58-.71-2.15-1.07-.57-.36-1-.78-1.28-1.24-.28-.47-.42-1.03-.42-1.68s.18-1.27.53-1.79c.35-.51.84-.92,1.47-1.21.63-.29,1.39-.44,2.28-.44,1.03,0,1.94.16,2.73.49.08.03.16.09.24.12l.81,3.97h2.52l.14-5.01c-.68-.44-1.58-.83-2.7-1.16-1.12-.33-2.39-.49-3.82-.49-1.63,0-3.09.26-4.38.77-1.28.51-2.3,1.26-3.05,2.24-.75.98-1.12,2.17-1.12,3.57s.29,2.45.88,3.34c.58.9,1.39,1.67,2.42,2.31,1.03.64,2.21,1.23,3.54,1.77l1.23.53c.93.35,1.69.71,2.26,1.07.57.36.99.78,1.26,1.24.27.47.4,1.04.4,1.71s-.17,1.34-.52,1.91-.89,1.01-1.61,1.33c-.72.31-1.65.47-2.77.47-.82,0-1.56-.08-2.24-.25-.58-.14-1.13-.34-1.67-.57l-.81-4.15h-2.59l-.11,5.32c.82.47,1.9.88,3.24,1.23,1.34.35,2.77.53,4.29.53,1.87,0,3.48-.28,4.85-.84,1.37-.56,2.43-1.36,3.19-2.4.76-1.04,1.14-2.27,1.14-3.69,0-1.28-.27-2.37-.81-3.26-.54-.89-1.32-1.66-2.35-2.31ZM916.77,186.13h-3.5v2l3.52.16c0,.67.02,1.34.02,2v5.1c-.09.03-.18.07-.26.1-.76.23-1.64.35-2.64.35-1.63,0-3.07-.38-4.31-1.14-1.24-.76-2.2-1.88-2.89-3.38-.69-1.49-1.03-3.35-1.03-5.57s.37-4.07,1.1-5.55c.74-1.48,1.72-2.6,2.96-3.34s2.6-1.12,4.1-1.12c1.14,0,2.21.16,3.19.49.18.06.36.13.54.2l.93,4.07h2.49l-.17-5.32c-.56-.3-1.22-.57-1.98-.8-.76-.23-1.59-.42-2.5-.56-.91-.14-1.88-.21-2.91-.21-1.84,0-3.55.27-5.11.82-1.56.55-2.92,1.35-4.08,2.42-1.16,1.06-2.05,2.35-2.68,3.87-.63,1.52-.94,3.23-.94,5.15s.3,3.66.91,5.16c.61,1.5,1.48,2.77,2.61,3.8,1.13,1.03,2.46,1.81,3.99,2.35,1.53.54,3.2.81,5.02.81,1.66,0,3.17-.18,4.53-.54s2.61-.83,3.73-1.42v-1.65c0-1.35,0-2.72.02-4.1,0-.67.02-1.34.03-2.02l2.16-.12v-2h-6.83ZM954.75,190.65c-.21-.91-.47-1.67-.79-2.28-.31-.61-.72-1.09-1.21-1.45-.49-.36-1.1-.63-1.82-.81-.72-.17-1.6-.27-2.63-.3v-.21c1.66-.07,3.07-.34,4.24-.82,1.17-.48,2.05-1.12,2.66-1.92.61-.81.91-1.73.91-2.78,0-1.87-.79-3.32-2.36-4.36-1.58-1.04-3.83-1.56-6.77-1.56h-11.06v2.03l3.14.2c0,.45.01.89.01,1.34v16.1c0,.45,0,.9-.01,1.35l-3.14.19v2.03h11.06v-2.03l-3.13-.19c0-.47,0-.94,0-1.41-.01-1.2-.02-2.42-.02-3.64v-3.34h2.07c.79,0,1.45.1,1.96.3.51.2.93.54,1.26,1.02.33.48.58,1.16.77,2.05l.98,4.34c.26,1.21.76,2.07,1.51,2.56.75.49,1.82.73,3.22.73.44,0,.86-.02,1.24-.05.39-.04.75-.08,1.09-.14.34-.06.67-.12,1-.19v-1.96l-2.99-.26-1.17-4.53ZM946.21,184.83h-2.38v-3.41c0-1.23,0-2.44.02-3.66,0-.52,0-1.03,0-1.54h2.5c1.68,0,2.93.34,3.75,1.01.82.68,1.23,1.72,1.23,3.12,0,.89-.18,1.67-.54,2.34-.36.68-.92,1.2-1.66,1.58-.75.37-1.72.56-2.91.56ZM990.16,176.68c-1.06-1.03-2.28-1.8-3.66-2.31-1.38-.51-2.84-.77-4.38-.77s-3,.27-4.38.81c-1.38.54-2.6,1.33-3.66,2.38-1.06,1.05-1.9,2.33-2.5,3.85-.61,1.52-.91,3.24-.91,5.18s.3,3.73.89,5.23c.59,1.5,1.43,2.77,2.5,3.8,1.07,1.03,2.3,1.8,3.68,2.33,1.38.53,2.84.79,4.38.79s3-.27,4.38-.81c1.38-.54,2.6-1.34,3.66-2.4,1.06-1.06,1.9-2.35,2.5-3.87.61-1.52.91-3.24.91-5.18s-.3-3.73-.91-5.23c-.61-1.5-1.44-2.77-2.5-3.8ZM988.11,189.7c-.26,1.21-.64,2.28-1.16,3.2-.51.92-1.17,1.64-1.98,2.15-.81.51-1.76.77-2.85.77s-2.05-.26-2.85-.77c-.81-.51-1.47-1.23-2-2.15-.53-.92-.91-2-1.16-3.22-.25-1.23-.37-2.54-.37-3.94s.12-2.71.37-3.92c.25-1.21.63-2.28,1.16-3.19.52-.91,1.19-1.62,2-2.13.81-.51,1.76-.77,2.85-.77s2.05.26,2.85.77c.81.51,1.46,1.23,1.98,2.15.51.92.9,1.99,1.16,3.2.26,1.21.38,2.52.38,3.92s-.13,2.71-.38,3.92ZM1025.08,174.16h-3.5v2.03l3.5.18v11.37c0,1.8-.22,3.25-.67,4.36-.44,1.11-1.09,1.92-1.94,2.43-.85.51-1.87.77-3.06.77s-2.21-.25-3.05-.74c-.84-.49-1.48-1.27-1.93-2.34-.44-1.07-.67-2.5-.67-4.27v-6.74c0-1.18,0-2.36.02-3.54,0-.43,0-.86,0-1.28l3.41-.2v-2.03h-11.24v2.03l3.01.19c0,.44.02.87.02,1.32.01,1.19.02,2.37.02,3.54v7.46c0,2.12.38,3.87,1.14,5.25.76,1.38,1.83,2.39,3.22,3.05,1.39.65,3,.98,4.85.98s3.55-.36,4.92-1.07c1.37-.71,2.41-1.8,3.13-3.27.72-1.47,1.08-3.33,1.08-5.57v-11.7l3.12-.17v-2.03h-5.39ZM1061.63,177.4c-.72-1.04-1.83-1.84-3.31-2.4-1.48-.56-3.37-.84-5.65-.84h-9.98v2.03l3.14.2c0,.45.01.89.01,1.34v16.12c0,.44,0,.89-.01,1.34l-3.14.19v2.03h11.48v-2.03l-3.53-.2c0-.43-.02-.88-.02-1.31-.01-1.17-.02-2.3-.02-3.41v-2.01h1.61c2.5,0,4.52-.31,6.06-.95,1.54-.63,2.67-1.5,3.38-2.62s1.07-2.37,1.07-3.75c0-1.45-.36-2.69-1.09-3.73ZM1057.37,183.99c-.39.79-1,1.4-1.84,1.82-.84.42-1.96.63-3.36.63h-1.58v-5.18c0-1.19,0-2.38.02-3.57,0-.49.01-.98.02-1.47h1.71c1.96,0,3.38.41,4.27,1.24.89.83,1.33,2.07,1.33,3.73,0,1.07-.19,2.01-.58,2.8Z"/>
  <g>
    <path class="uuid-4a620678-7f38-44d3-b943-60982d44e1d1" d="M498.66,31.12l17.64,11.14,31.49-31.49h0c-38.38,0-69.49,31.11-69.49,69.49h0s31.49-31.49,31.49-31.49l-11.14-17.64ZM498.66,129.39l11.14-17.64-31.49-31.49h0c0,38.38,31.11,69.49,69.49,69.49h0l-31.49-31.49-17.64,11.14ZM596.94,129.39l-17.64-11.14-31.49,31.49h0c38.38,0,69.49-31.11,69.49-69.49h0s-31.49,31.49-31.49,31.49l11.14,17.64ZM547.8,10.77h0l31.49,31.49,17.64-11.14-11.14,17.64,31.49,31.49h0c0-38.38-31.11-69.49-69.49-69.49Z"/>
    <path class="uuid-0ea6c0e1-adf2-4296-8a6c-e304afb26e41" d="M585.79,48.76l-3.62,5.74c4.23,5.64,7.11,12.35,8.15,19.66l26.97,6.09-31.49-31.49h0ZM553.89,37.74c7.31,1.04,14.02,3.91,19.66,8.15l5.74-3.62-31.49-31.49,6.09,26.97ZM617.29,80.26l-26.97,6.09c-1.04,7.31-3.91,14.02-8.15,19.66l3.62,5.74h0s31.49-31.49,31.49-31.49ZM553.89,122.78l-6.09,26.97,31.49-31.49-5.74-3.62c-5.64,4.23-12.35,7.11-19.66,8.15ZM522.04,114.63l-5.74,3.62,31.49,31.49h0s-6.09-26.97-6.09-26.97c-7.31-1.04-14.02-3.91-19.66-8.15ZM509.8,111.75l3.62-5.74c-4.23-5.64-7.11-12.35-8.15-19.66l-26.97-6.09,31.49,31.49h0ZM516.31,42.26h0s5.74,3.62,5.74,3.62c5.64-4.23,12.35-7.11,19.66-8.15l6.09-26.97h0s-31.49,31.49-31.49,31.49ZM513.43,54.5l-3.62-5.74h0s-31.49,31.49-31.49,31.49l26.97-6.09c1.04-7.31,3.91-14.02,8.15-19.66Z"/>
    <path class="uuid-6e007c4a-1937-4b72-9637-05a5efc442ae" d="M596.94,31.12l-17.64,11.14,6.5,6.5,11.14-17.64ZM509.8,48.76l6.5-6.5-17.64-11.14,11.14,17.64ZM498.66,129.39l17.64-11.14-6.5-6.5-11.14,17.64ZM579.29,118.25l17.64,11.14-11.14-17.64-6.5,6.5Z"/>
    <path class="uuid-6e007c4a-1937-4b72-9637-05a5efc442ae" d="M537.64,55.74l4.07-18c-7.31,1.04-14.02,3.91-19.66,8.15l15.6,9.85ZM513.43,54.5c-4.23,5.64-7.11,12.35-8.15,19.66l18-4.07-9.85-15.6ZM590.32,74.17c-1.04-7.31-3.91-14.02-8.15-19.66l-9.85,15.6,18,4.07ZM573.55,45.89c-5.64-4.23-12.35-7.11-19.66-8.15l4.07,18,15.6-9.85ZM553.89,122.78c7.31-1.04,14.02-3.91,19.66-8.15l-15.6-9.85-4.07,18ZM505.28,86.35c1.04,7.31,3.91,14.02,8.15,19.66l9.85-15.6-18-4.07ZM582.17,106.01c4.23-5.64,7.11-12.35,8.15-19.66l-18,4.07,9.85,15.6ZM522.04,114.63c5.64,4.23,12.35,7.11,19.66,8.15l-4.07-18-15.6,9.85Z"/>
    <path class="uuid-4a620678-7f38-44d3-b943-60982d44e1d1" d="M521.26,80.26h0c0-3.6.72-7.03,2.01-10.16l-17.99,4.06c-.28,1.99-.43,4.02-.43,6.09h0c0,2.07.15,4.1.43,6.09l17.99,4.06c-1.3-3.13-2.01-6.56-2.01-10.16ZM547.8,37.31h0c-2.07,0-4.1.15-6.09.43l-4.06,17.99c3.13-1.3,6.56-2.01,10.16-2.01h0c3.6,0,7.03.72,10.16,2.01l-4.06-17.99c-1.99-.28-4.02-.43-6.09-.43ZM513.43,54.5l9.85,15.59c2.69-6.49,7.88-11.67,14.36-14.36l-15.59-9.85c-3.26,2.45-6.17,5.35-8.62,8.62ZM572.32,70.09l9.85-15.59c-2.45-3.26-5.35-6.17-8.62-8.62l-15.59,9.85c6.49,2.69,11.67,7.88,14.36,14.36ZM557.96,104.78l15.59,9.85c3.26-2.45,6.17-5.35,8.62-8.62l-9.85-15.59c-2.69,6.49-7.88,11.67-14.36,14.36ZM590.32,74.17l-17.99-4.06c1.3,3.13,2.01,6.56,2.01,10.16h0c0,3.6-.72,7.03-2.01,10.16l17.99-4.06c.28-1.99.43-4.02.43-6.09h0c0-2.07-.15-4.1-.43-6.09ZM523.27,90.42l-9.85,15.59c2.45,3.26,5.35,6.17,8.62,8.62l15.59-9.85c-6.49-2.69-11.67-7.88-14.36-14.36ZM547.8,106.8c-3.6,0-7.03-.72-10.16-2.01l4.06,17.99c1.99.28,4.02.43,6.09.43h0c2.07,0,4.1-.15,6.09-.43l4.06-17.99c-3.13,1.3-6.56,2.01-10.16,2.01h0Z"/>
    <path class="uuid-6e007c4a-1937-4b72-9637-05a5efc442ae" d="M541.71,37.74c1.99-.28,4.02-.43,6.09-.43h0c2.07,0,4.1.15,6.09.43l-6.09-26.97-6.09,26.97ZM590.32,86.35l26.97-6.09-26.97-6.09c.28,1.99.43,4.02.43,6.09h0c0,2.07-.15,4.1-.43,6.09ZM547.8,123.21c-2.07,0-4.1-.15-6.09-.43l6.09,26.97,6.09-26.97c-1.99.28-4.02.43-6.09.43h0ZM505.28,74.17l-26.97,6.09,26.97,6.09c-.28-1.99-.43-4.02-.43-6.09h0c0-2.07.15-4.1.43-6.09Z"/>
    <path class="uuid-68ea2694-dcd9-448f-8509-506f6a56b30b" d="M509.8,48.76l3.62,5.74c2.45-3.26,5.35-6.17,8.62-8.62l-5.74-3.62-6.5,6.5ZM582.17,54.5l3.62-5.74-6.5-6.5-5.74,3.62c3.26,2.45,6.17,5.35,8.62,8.62ZM573.55,114.63l5.74,3.62,6.5-6.5-3.62-5.74c-2.45,3.26-5.35,6.17-8.62,8.62ZM513.43,106.01l-3.62,5.74,6.5,6.5,5.74-3.62c-3.26-2.45-6.17-5.35-8.62-8.62Z"/>
    <path class="uuid-0ea6c0e1-adf2-4296-8a6c-e304afb26e41" d="M547.8,53.71h0c-14.66,0-26.54,11.88-26.54,26.54h0c0,14.66,11.88,26.54,26.54,26.54h0c14.66,0,26.54-11.88,26.54-26.54h0c0-14.66-11.88-26.54-26.54-26.54ZM564.2,80.26c0,9.06-7.34,16.4-16.4,16.4h0c-9.06,0-16.4-7.34-16.4-16.4h0c0-9.06,7.34-16.4,16.4-16.4h0c9.06,0,16.4,7.34,16.4,16.4h0Z"/>
    <path class="uuid-68ea2694-dcd9-448f-8509-506f6a56b30b" d="M547.8,63.85h0c-9.06,0-16.4,7.34-16.4,16.4h0c0,9.06,7.34,16.4,16.4,16.4h0c9.06,0,16.4-7.34,16.4-16.4h0c0-9.06-7.34-16.4-16.4-16.4ZM557.94,80.26c0,5.6-4.54,10.14-10.14,10.14h0c-5.6,0-10.14-4.54-10.14-10.14h0c0-5.6,4.54-10.14,10.14-10.14h0c5.6,0,10.14,4.54,10.14,10.14h0Z"/>
    <path class="uuid-6e007c4a-1937-4b72-9637-05a5efc442ae" d="M547.8,70.12h0c-5.6,0-10.14,4.54-10.14,10.14h0c0,5.6,4.54,10.14,10.14,10.14h0c5.6,0,10.14-4.54,10.14-10.14h0c0-5.6-4.54-10.14-10.14-10.14ZM553.88,80.26c0,3.36-2.72,6.08-6.08,6.08h0c-3.36,0-6.08-2.72-6.08-6.08h0c0-3.36,2.72-6.08,6.08-6.08h0c3.36,0,6.08,2.72,6.08,6.08h0Z"/>
    <rect class="uuid-4a620678-7f38-44d3-b943-60982d44e1d1" x="541.72" y="74.18" width="12.16" height="12.16" rx="6.08" ry="6.08" transform="translate(628.06 -467.54) rotate(90)"/>
  </g>
</svg>