<?xml version="1.0" encoding="UTF-8"?>
<svg id="uuid-b6ce01c2-11da-40e8-8b23-3134b97ab8ba" data-name="Calque 1" xmlns="http://www.w3.org/2000/svg" width="148.02" height="148.02" viewBox="0 0 148.02 148.02">
  <defs>
    <style>
      .uuid-aacb0e15-5487-4acf-bc47-a6c7b880973e {
        fill: none;
      }

      .uuid-e741b2e4-4173-4373-a81f-5ba380597cd3 {
        fill: #fae8d2;
      }

      .uuid-8c361856-2e65-4a7d-af91-7ed990712321 {
        fill: #3d275c;
      }

      .uuid-518217fd-6200-4fb2-ae58-6c63ce8060e3 {
        fill: #5c6f57;
      }

      .uuid-cce169ae-864b-490f-ad68-cf5413d4ba1b {
        fill: #a4b3af;
      }
    </style>
  </defs>
  <rect class="uuid-aacb0e15-5487-4acf-bc47-a6c7b880973e" width="148.02" height="148.02"/>
  <rect class="uuid-aacb0e15-5487-4acf-bc47-a6c7b880973e" width="148.02" height="148.02"/>
  <g>
    <path class="uuid-8c361856-2e65-4a7d-af91-7ed990712321" d="M104.5,48.82l25.28,25.28h0c0-30.8-24.97-55.77-55.77-55.77h0l25.28,25.28,14.16-8.94-8.94,14.16ZM99.28,104.59l-25.28,25.28h0c30.8,0,55.77-24.97,55.77-55.77h0s-25.28,25.28-25.28,25.28l8.94,14.16-14.16-8.94ZM43.51,99.37l-25.28-25.28h0c0,30.8,24.97,55.77,55.77,55.77h0l-25.28-25.28-14.16,8.94,8.94-14.16ZM18.24,74.09h0s25.28-25.28,25.28-25.28l-8.94-14.16,14.16,8.94,25.28-25.28h0c-30.8,0-55.77,24.97-55.77,55.77Z"/>
    <path class="uuid-518217fd-6200-4fb2-ae58-6c63ce8060e3" d="M43.51,48.82l-25.28,25.28,21.65-4.89c.83-5.86,3.14-11.25,6.54-15.78l-2.91-4.61h0ZM74.01,18.32l-25.28,25.28,4.61,2.91c4.53-3.4,9.92-5.71,15.78-6.54l4.89-21.65ZM43.51,99.37h0s2.91-4.61,2.91-4.61c-3.4-4.53-5.71-9.92-6.54-15.78l-21.65-4.89,25.28,25.28ZM53.34,101.68l-4.61,2.91,25.28,25.28-4.89-21.65c-5.86-.83-11.25-3.14-15.78-6.54ZM78.9,108.22l-4.89,21.65h0s25.28-25.28,25.28-25.28l-4.61-2.91c-4.53,3.4-9.92,5.71-15.78,6.54ZM104.5,99.37l25.28-25.28-21.65,4.89c-.83,5.86-3.14,11.25-6.54,15.78l2.91,4.61h0ZM74.01,18.32h0s4.89,21.65,4.89,21.65c5.86.83,11.25,3.14,15.78,6.54l4.61-2.91h0s-25.28-25.28-25.28-25.28ZM108.13,69.2l21.65,4.89-25.28-25.28h0s-2.91,4.61-2.91,4.61c3.4,4.53,5.71,9.92,6.54,15.78Z"/>
    <path class="uuid-e741b2e4-4173-4373-a81f-5ba380597cd3" d="M43.51,48.82l5.22-5.22-14.16-8.94,8.94,14.16ZM113.44,34.66l-14.16,8.94,5.22,5.22,8.94-14.16ZM104.5,99.37l-5.22,5.22,14.16,8.94-8.94-14.16ZM43.51,99.37l-8.94,14.16,14.16-8.94-5.22-5.22Z"/>
    <path class="uuid-e741b2e4-4173-4373-a81f-5ba380597cd3" d="M94.68,46.51c-4.53-3.4-9.92-5.71-15.78-6.54l3.26,14.44,12.52-7.9ZM93.69,65.94l14.44,3.26c-.83-5.86-3.14-11.25-6.54-15.78l-7.9,12.52ZM54.33,65.94l-7.9-12.52c-3.4,4.53-5.71,9.92-6.54,15.78l14.44-3.26ZM65.86,54.41l3.26-14.44c-5.86.83-11.25,3.14-15.78,6.54l12.52,7.9ZM65.86,93.77l-12.52,7.9c4.53,3.4,9.92,5.71,15.78,6.54l-3.26-14.44ZM93.69,82.24l7.9,12.52c3.4-4.53,5.71-9.92,6.54-15.78l-14.44,3.26ZM54.33,82.24l-14.44-3.26c.83,5.86,3.14,11.25,6.54,15.78l7.9-12.52ZM82.16,93.77l-3.26,14.44c5.86-.83,11.25-3.14,15.78-6.54l-12.52-7.9Z"/>
    <path class="uuid-8c361856-2e65-4a7d-af91-7ed990712321" d="M93.69,82.24l14.44-3.26c.23-1.6.34-3.23.34-4.89h0c0-1.66-.12-3.29-.34-4.89l-14.44-3.26c1.04,2.51,1.62,5.26,1.62,8.15h0c0,2.89-.58,5.64-1.62,8.15ZM69.12,39.97l-3.26,14.44c2.51-1.04,5.26-1.62,8.15-1.62h0c2.89,0,5.64.58,8.15,1.62l-3.26-14.44c-1.6-.23-3.23-.34-4.89-.34h0c-1.66,0-3.29.12-4.89.34ZM94.68,46.51l-12.51,7.9c5.2,2.16,9.37,6.32,11.53,11.53l7.9-12.51c-1.97-2.62-4.3-4.95-6.92-6.92ZM65.85,54.41l-12.51-7.9c-2.62,1.97-4.95,4.3-6.92,6.92l7.9,12.51c2.16-5.2,6.32-9.37,11.53-11.53ZM54.32,82.25l-7.9,12.51c1.97,2.62,4.3,4.95,6.92,6.92l12.51-7.9c-5.2-2.16-9.37-6.32-11.53-11.53ZM39.54,74.09h0c0,1.66.12,3.29.34,4.89l14.44,3.26c-1.04-2.51-1.62-5.26-1.62-8.15h0c0-2.89.58-5.64,1.62-8.15l-14.44,3.26c-.23,1.6-.34,3.23-.34,4.89ZM82.16,93.78l12.51,7.9c2.62-1.97,4.95-4.3,6.92-6.92l-7.9-12.51c-2.16,5.2-6.32,9.37-11.53,11.53ZM74.01,95.39c-2.89,0-5.64-.58-8.15-1.62l3.26,14.44c1.6.23,3.23.34,4.89.34h0c1.66,0,3.29-.12,4.89-.34l3.26-14.44c-2.51,1.04-5.26,1.62-8.15,1.62h0Z"/>
    <path class="uuid-e741b2e4-4173-4373-a81f-5ba380597cd3" d="M74.01,18.32l-4.89,21.65c1.6-.23,3.23-.34,4.89-.34h0c1.66,0,3.29.12,4.89.34l-4.89-21.65ZM39.54,74.09h0c0-1.66.12-3.29.34-4.89l-21.65,4.89,21.65,4.89c-.23-1.6-.34-3.23-.34-4.89ZM74.01,108.56c-1.66,0-3.29-.12-4.89-.34l4.89,21.65,4.89-21.65c-1.6.23-3.23.34-4.89.34h0ZM108.48,74.09h0c0,1.66-.12,3.29-.34,4.89l21.65-4.89-21.65-4.89c.23,1.6.34,3.23.34,4.89Z"/>
    <path class="uuid-cce169ae-864b-490f-ad68-cf5413d4ba1b" d="M99.28,43.6l-4.61,2.91c2.62,1.97,4.95,4.3,6.92,6.92l2.91-4.61-5.22-5.22ZM53.34,46.51l-4.61-2.91-5.22,5.22,2.91,4.61c1.97-2.62,4.3-4.95,6.92-6.92ZM46.42,94.76l-2.91,4.61,5.22,5.22,4.61-2.91c-2.62-1.97-4.95-4.3-6.92-6.92ZM94.68,101.68l4.61,2.91,5.22-5.22-2.91-4.61c-1.97,2.62-4.3,4.95-6.92,6.92Z"/>
    <path class="uuid-518217fd-6200-4fb2-ae58-6c63ce8060e3" d="M52.71,74.09h0c0,11.76,9.54,21.3,21.3,21.3h0c11.76,0,21.3-9.54,21.3-21.3h0c0-11.76-9.54-21.3-21.3-21.3h0c-11.76,0-21.3,9.54-21.3,21.3ZM60.84,74.09c0-7.27,5.89-13.17,13.17-13.17h0c7.27,0,13.17,5.89,13.17,13.17h0c0,7.27-5.89,13.17-13.17,13.17h0c-7.27,0-13.17-5.89-13.17-13.17h0Z"/>
    <path class="uuid-cce169ae-864b-490f-ad68-cf5413d4ba1b" d="M60.84,74.09h0c0,7.27,5.89,13.17,13.17,13.17h0c7.27,0,13.17-5.89,13.17-13.17h0c0-7.27-5.89-13.17-13.17-13.17h0c-7.27,0-13.17,5.89-13.17,13.17ZM65.87,74.09c0-4.49,3.64-8.14,8.14-8.14h0c4.49,0,8.14,3.64,8.14,8.14h0c0,4.49-3.64,8.14-8.14,8.14h0c-4.49,0-8.14-3.64-8.14-8.14h0Z"/>
    <path class="uuid-e741b2e4-4173-4373-a81f-5ba380597cd3" d="M65.87,74.09h0c0,4.49,3.64,8.14,8.14,8.14h0c4.49,0,8.14-3.64,8.14-8.14h0c0-4.49-3.64-8.14-8.14-8.14h0c-4.49,0-8.14,3.64-8.14,8.14ZM69.13,74.09c0-2.69,2.18-4.88,4.88-4.88h0c2.69,0,4.88,2.18,4.88,4.88h0c0,2.69-2.18,4.88-4.88,4.88h0c-2.69,0-4.88-2.18-4.88-4.88h0Z"/>
    <rect class="uuid-8c361856-2e65-4a7d-af91-7ed990712321" x="69.13" y="69.21" width="9.76" height="9.76" rx="4.88" ry="4.88" transform="translate(148.1 .08) rotate(90)"/>
  </g>
</svg>